<svg width="103" height="75" viewBox="0 0 103 75" fill="none" xmlns="http://www.w3.org/2000/svg">
<path d="M37.9078 73.5932C58.4963 73.5932 75.1866 57.2984 75.1866 37.1978C75.1866 17.0971 58.4963 0.802368 37.9078 0.802368C17.3192 0.802368 0.628906 17.0971 0.628906 37.1978C0.628906 57.2984 17.3192 73.5932 37.9078 73.5932Z" stroke="white" stroke-width="0.918624" stroke-miterlimit="10"/>
<path d="M53.9279 21.487C54.0069 21.2459 53.8754 20.9865 53.6344 20.9075C53.3933 20.8285 53.1339 20.96 53.0549 21.201L53.9279 21.487ZM43.3642 53.7387L53.9279 21.487L53.0549 21.201L42.4912 53.4527L43.3642 53.7387Z" fill="white"/>
<path d="M40.7586 45.5276L41.2105 45.61L41.2105 45.61L40.7586 45.5276ZM26.9828 34.0087L27.1961 33.6019L27.196 33.6019L26.9828 34.0087ZM40.2619 25.0511C40.4249 25.2455 40.7146 25.2709 40.9089 25.1079C41.1033 24.9449 41.1287 24.6552 40.9657 24.4609L40.2619 25.0511ZM21.5783 46.507C23.2683 50.205 27.8838 51.7813 32.0997 51.5953C34.227 51.5014 36.315 50.9606 37.9666 49.9723C39.6223 48.9814 40.8615 47.5243 41.2105 45.61L40.3068 45.4452C40.0167 47.0365 38.9847 48.2925 37.4949 49.184C36.0009 50.078 34.0689 50.5889 32.0592 50.6775C28.0011 50.8566 23.8746 49.3216 22.4139 46.1251L21.5783 46.507ZM41.2105 45.61C41.6045 43.4479 41.212 41.7322 40.2897 40.3526C39.3778 38.9888 37.9763 37.9956 36.4251 37.2093C34.8731 36.4226 33.1287 35.8224 31.5013 35.2697C29.8563 34.711 28.3467 34.2054 27.1961 33.6019L26.7694 34.4154C27.9981 35.0599 29.5876 35.5899 31.2059 36.1395C32.8419 36.6951 34.5251 37.276 36.0097 38.0286C37.495 38.7816 38.7389 39.6859 39.526 40.8632C40.3026 42.0247 40.6624 43.4936 40.3068 45.4453L41.2105 45.61ZM27.196 33.6019C23.9255 31.8874 23.0867 28.821 23.9191 26.1718C24.7569 23.505 27.2927 21.2555 30.8432 21.2555V20.3368C26.8684 20.3368 23.9938 22.8692 23.0427 25.8965C22.086 28.9413 23.0797 32.4812 26.7695 34.4155L27.196 33.6019ZM30.8432 21.2555C33.9698 21.2555 36.3312 22.2143 37.9094 23.1691C38.6993 23.6469 39.2928 24.1237 39.6867 24.4785C39.8836 24.6559 40.0302 24.8025 40.1263 24.9031C40.1744 24.9534 40.2097 24.9921 40.2323 25.0175C40.2436 25.0301 40.2517 25.0394 40.2567 25.0451C40.2591 25.048 40.2608 25.0499 40.2617 25.0509C40.2621 25.0514 40.2623 25.0517 40.2624 25.0517C40.2624 25.0518 40.2623 25.0517 40.2623 25.0516C40.2622 25.0516 40.2621 25.0515 40.2621 25.0514C40.262 25.0513 40.2619 25.0511 40.6138 24.756C40.9657 24.4609 40.9656 24.4607 40.9654 24.4605C40.9653 24.4604 40.9652 24.4602 40.965 24.46C40.9647 24.4597 40.9644 24.4593 40.964 24.4588C40.9632 24.4579 40.9622 24.4567 40.9611 24.4554C40.9587 24.4526 40.9555 24.4488 40.9515 24.4442C40.9434 24.4349 40.9321 24.422 40.9175 24.4056C40.8883 24.3729 40.8461 24.3266 40.7907 24.2686C40.6799 24.1527 40.5168 23.9899 40.3016 23.796C39.8712 23.4084 39.2315 22.8952 38.3849 22.3831C36.6902 21.3579 34.1663 20.3368 30.8432 20.3368V21.2555Z" fill="white"/>
<path d="M94.1059 40.8412V29.6562H85.7197V40.8412H78.4531L89.9128 57.6218L101.369 40.8412H94.1059Z" stroke="white" stroke-width="0.918624" stroke-miterlimit="10"/>
</svg>
