<svg width="76" height="95" viewBox="0 0 76 95" fill="none" xmlns="http://www.w3.org/2000/svg">
<path d="M35.0751 55.9256C48.1782 60.4097 62.5945 53.5585 67.2749 40.623C71.9552 27.6875 65.1272 13.5661 52.0241 9.08203C38.921 4.59795 24.5047 11.4492 19.8243 24.3847C15.144 37.3202 21.972 51.4416 35.0751 55.9256Z" stroke="white" stroke-width="0.989139" stroke-miterlimit="10"/>
<path d="M36.7846 51.2018C47.245 54.7815 58.7538 49.3121 62.4902 38.9855C66.2265 28.6589 60.7756 17.3856 50.3152 13.8058C39.8548 10.2261 28.3461 15.6956 24.6097 26.0222C20.8733 36.3488 26.3242 47.6221 36.7846 51.2018Z" stroke="white" stroke-width="0.989139" stroke-miterlimit="10"/>
<path d="M39.1758 56.8273L28.1808 87.3035L20.4854 84.6639L31.4805 54.1876" stroke="white" stroke-width="0.989139" stroke-miterlimit="10"/>
<path d="M22.6797 78.5105L30.4496 81.1873" stroke="white" stroke-width="0.989139" stroke-miterlimit="10"/>
</svg>
