<svg width="270" height="309" viewBox="0 0 270 309" fill="none" xmlns="http://www.w3.org/2000/svg">
<rect width="270" height="309" rx="12" fill="#FF500B"/>
<mask id="mask0_819_2817" style="mask-type:alpha" maskUnits="userSpaceOnUse" x="0" y="0" width="270" height="309">
<rect width="270" height="309" rx="12" fill="#111111"/>
</mask>
<g mask="url(#mask0_819_2817)">
<path d="M29.1584 127.578L29.1584 53L-20.1584 53L-20.1584 127.578H-65L5.92116 257L74 127.578H29.1584Z" fill="url(#paint0_linear_819_2817)" fill-opacity="0.15" stroke="white" stroke-opacity="0.5" stroke-width="0.5" stroke-miterlimit="10"/>
</g>
<path d="M153.468 197.72L186.858 116.9H188.568L155.178 197.72H153.468Z" fill="white"/>
<path d="M128.421 192.712C116.157 192.712 106.623 188.428 99.8194 179.86L101.709 178.222C105.069 182.506 108.891 185.614 113.175 187.546C117.459 189.394 122.499 190.318 128.295 190.318C135.099 190.318 140.559 188.974 144.675 186.286C148.791 183.598 150.849 179.44 150.849 173.812C150.849 171.376 150.429 169.36 149.589 167.764C148.833 166.168 147.657 164.866 146.061 163.858C144.549 162.766 142.701 161.926 140.517 161.338C138.333 160.75 135.855 160.246 133.083 159.826L123.003 158.44C120.063 158.02 117.333 157.474 114.813 156.802C112.377 156.13 110.277 155.206 108.513 154.03C106.749 152.77 105.363 151.216 104.355 149.368C103.347 147.436 102.843 145 102.843 142.06C102.843 138.868 103.431 136.18 104.607 133.996C105.867 131.812 107.547 130.048 109.647 128.704C111.747 127.276 114.183 126.268 116.955 125.68C119.727 125.008 122.709 124.672 125.901 124.672C129.093 124.672 131.949 124.966 134.469 125.554C137.073 126.142 139.341 126.898 141.273 127.822C143.289 128.746 145.053 129.838 146.565 131.098C148.161 132.358 149.547 133.618 150.723 134.878L148.959 136.768C147.783 135.508 146.481 134.29 145.053 133.114C143.709 131.938 142.113 130.93 140.265 130.09C138.417 129.166 136.317 128.452 133.965 127.948C131.613 127.36 128.883 127.066 125.775 127.066C119.643 127.066 114.729 128.242 111.033 130.594C107.337 132.946 105.489 136.726 105.489 141.934C105.489 144.37 105.867 146.386 106.623 147.982C107.463 149.578 108.639 150.922 110.151 152.014C111.747 153.022 113.637 153.862 115.821 154.534C118.005 155.122 120.483 155.584 123.255 155.92L133.335 157.306C136.275 157.726 138.963 158.272 141.399 158.944C143.919 159.616 146.061 160.582 147.825 161.842C149.589 163.018 150.975 164.572 151.983 166.504C152.991 168.436 153.495 170.83 153.495 173.686C153.495 176.962 152.823 179.818 151.479 182.254C150.219 184.606 148.455 186.58 146.187 188.176C144.003 189.688 141.357 190.822 138.249 191.578C135.225 192.334 131.949 192.712 128.421 192.712Z" fill="white"/>
<circle cx="135" cy="152" r="80.25" fill="url(#paint1_linear_819_2817)" fill-opacity="0.15" stroke="white" stroke-width="1.5"/>
<defs>
<linearGradient id="paint0_linear_819_2817" x1="4.50001" y1="22.3213" x2="4.50001" y2="257" gradientUnits="userSpaceOnUse">
<stop stop-color="white" stop-opacity="0"/>
<stop offset="1" stop-color="white"/>
</linearGradient>
<linearGradient id="paint1_linear_819_2817" x1="135" y1="71" x2="135" y2="233" gradientUnits="userSpaceOnUse">
<stop stop-color="#D9D9D9"/>
<stop offset="1" stop-color="#111111" stop-opacity="0"/>
</linearGradient>
</defs>
</svg>
