<svg width="179" height="78" viewBox="0 0 179 78" fill="none" xmlns="http://www.w3.org/2000/svg">
<path d="M15.1209 76V13.8L19.5209 17.2H0.820859V3H31.4209V76H15.1209ZM71.3543 77.9C65.5543 77.9 60.5876 76.9667 56.4543 75.1C52.321 73.1667 48.9543 70.5667 46.3543 67.3C43.821 64.0333 41.921 60.2667 40.6543 56C39.4543 51.6667 38.8543 47.1 38.8543 42.3V36.6C38.8543 29.9333 40.021 23.9 42.3543 18.5C44.6876 13.1 48.2543 8.8 53.0543 5.59999C57.8543 2.4 63.9543 0.799997 71.3543 0.799997C78.7543 0.799997 84.821 2.4 89.5543 5.59999C94.3543 8.8 97.921 13.1 100.254 18.5C102.588 23.9 103.754 29.9333 103.754 36.6V42.3C103.754 47.1 103.121 51.6667 101.854 56C100.654 60.2667 98.7543 64.0333 96.1543 67.3C93.621 70.5667 90.2876 73.1667 86.1543 75.1C82.0876 76.9667 77.1543 77.9 71.3543 77.9ZM71.3543 62.8C76.7543 62.8 80.7543 60.9333 83.3543 57.2C86.021 53.4 87.3543 47.5333 87.3543 39.6C87.3543 31.2 85.9876 25.1667 83.2543 21.5C80.5876 17.7667 76.621 15.9 71.3543 15.9C65.9543 15.9 61.921 17.7667 59.2543 21.5C56.5876 25.1667 55.2543 31.1333 55.2543 39.4C55.2543 47.4 56.5543 53.3 59.1543 57.1C61.821 60.9 65.8876 62.8 71.3543 62.8ZM158.484 76L133.284 41.9H123.184L153.784 3H172.584L145.084 37.9L144.884 30.8L178.284 76H158.484ZM110.484 76V3H126.884V76H110.484Z" fill="#1E1E1E"/>
</svg>
