<svg width="555" height="190" viewBox="0 0 555 190" fill="none" xmlns="http://www.w3.org/2000/svg">
<rect width="555" height="190" rx="15" fill="url(#paint0_linear_745_2409)"/>
<path d="M84.9316 138.28C77.9716 138.28 71.9716 136.96 66.9316 134.32C61.8916 131.6 58.0116 127.96 55.2916 123.4C52.6516 118.84 51.3316 113.8 51.3316 108.28H70.2916C70.2916 111 70.8916 113.4 72.0916 115.48C73.3716 117.48 75.1316 119.08 77.3716 120.28C79.6116 121.4 82.1716 121.96 85.0516 121.96C88.2516 121.96 90.9316 121.32 93.0916 120.04C95.3316 118.68 97.0516 116.88 98.2516 114.64C99.4516 112.32 100.052 109.72 100.052 106.84C100.052 103.88 99.4516 101.28 98.2516 99.04C97.1316 96.72 95.4516 94.88 93.2116 93.52C91.0516 92.16 88.4116 91.48 85.2916 91.48C82.4116 91.48 79.8116 92.08 77.4916 93.28C75.1716 94.48 73.4516 96 72.3316 97.84H53.8516L58.2916 48.4H111.452V65.2H66.0916L73.6516 60.16L71.0116 88.6L66.4516 87.4C68.8516 84.52 71.7316 82.12 75.0916 80.2C78.5316 78.2 83.0116 77.2 88.5316 77.2C94.9316 77.2 100.372 78.52 104.852 81.16C109.412 83.72 112.892 87.2 115.292 91.6C117.772 95.92 119.012 100.76 119.012 106.12V107.68C119.012 113.04 117.692 118.04 115.052 122.68C112.412 127.32 108.532 131.08 103.412 133.96C98.3716 136.84 92.2116 138.28 84.9316 138.28ZM161.738 138.28C154.778 138.28 148.818 137.16 143.858 134.92C138.898 132.6 134.858 129.48 131.738 125.56C128.698 121.64 126.418 117.12 124.898 112C123.458 106.8 122.738 101.32 122.738 95.56V88.72C122.738 80.72 124.138 73.48 126.938 67C129.738 60.52 134.018 55.36 139.778 51.52C145.538 47.68 152.858 45.76 161.738 45.76C170.618 45.76 177.898 47.68 183.578 51.52C189.338 55.36 193.618 60.52 196.418 67C199.218 73.48 200.618 80.72 200.618 88.72V95.56C200.618 101.32 199.858 106.8 198.338 112C196.898 117.12 194.618 121.64 191.498 125.56C188.458 129.48 184.458 132.6 179.498 134.92C174.618 137.16 168.698 138.28 161.738 138.28ZM161.738 120.16C168.218 120.16 173.018 117.92 176.138 113.44C179.338 108.88 180.938 101.84 180.938 92.32C180.938 82.24 179.298 75 176.018 70.6C172.818 66.12 168.058 63.88 161.738 63.88C155.258 63.88 150.418 66.12 147.218 70.6C144.018 75 142.418 82.16 142.418 92.08C142.418 101.68 143.978 108.76 147.098 113.32C150.298 117.88 155.178 120.16 161.738 120.16ZM246.122 138.28C239.162 138.28 233.202 137.16 228.242 134.92C223.282 132.6 219.242 129.48 216.122 125.56C213.082 121.64 210.802 117.12 209.282 112C207.842 106.8 207.122 101.32 207.122 95.56V88.72C207.122 80.72 208.522 73.48 211.322 67C214.122 60.52 218.402 55.36 224.162 51.52C229.922 47.68 237.242 45.76 246.122 45.76C255.002 45.76 262.282 47.68 267.962 51.52C273.722 55.36 278.002 60.52 280.802 67C283.602 73.48 285.002 80.72 285.002 88.72V95.56C285.002 101.32 284.242 106.8 282.722 112C281.282 117.12 279.002 121.64 275.882 125.56C272.842 129.48 268.842 132.6 263.882 134.92C259.002 137.16 253.082 138.28 246.122 138.28ZM246.122 120.16C252.602 120.16 257.402 117.92 260.522 113.44C263.722 108.88 265.322 101.84 265.322 92.32C265.322 82.24 263.682 75 260.402 70.6C257.202 66.12 252.442 63.88 246.122 63.88C239.642 63.88 234.802 66.12 231.602 70.6C228.402 75 226.802 82.16 226.802 92.08C226.802 101.68 228.362 108.76 231.482 113.32C234.682 117.88 239.562 120.16 246.122 120.16ZM330.505 138.28C323.545 138.28 317.585 137.16 312.625 134.92C307.665 132.6 303.625 129.48 300.505 125.56C297.465 121.64 295.185 117.12 293.665 112C292.225 106.8 291.505 101.32 291.505 95.56V88.72C291.505 80.72 292.905 73.48 295.705 67C298.505 60.52 302.785 55.36 308.545 51.52C314.305 47.68 321.625 45.76 330.505 45.76C339.385 45.76 346.665 47.68 352.345 51.52C358.105 55.36 362.385 60.52 365.185 67C367.985 73.48 369.385 80.72 369.385 88.72V95.56C369.385 101.32 368.625 106.8 367.105 112C365.665 117.12 363.385 121.64 360.265 125.56C357.225 129.48 353.225 132.6 348.265 134.92C343.385 137.16 337.465 138.28 330.505 138.28ZM330.505 120.16C336.985 120.16 341.785 117.92 344.905 113.44C348.105 108.88 349.705 101.84 349.705 92.32C349.705 82.24 348.065 75 344.785 70.6C341.585 66.12 336.825 63.88 330.505 63.88C324.025 63.88 319.185 66.12 315.985 70.6C312.785 75 311.185 82.16 311.185 92.08C311.185 101.68 312.745 108.76 315.865 113.32C319.065 117.88 323.945 120.16 330.505 120.16Z" fill="#1E1E1E"/>
<mask id="mask0_745_2409" style="mask-type:alpha" maskUnits="userSpaceOnUse" x="351" y="0" width="204" height="190">
<rect x="351" width="204" height="190" rx="15" fill="#00D680"/>
</mask>
<g mask="url(#mask0_745_2409)">
<path d="M520.164 103.983C550.81 103.983 575.653 79.1383 575.653 48.4913C575.653 17.8443 550.81 -7 520.164 -7C489.519 -7 464.676 17.8443 464.676 48.4913C464.676 79.1383 489.519 103.983 520.164 103.983Z" fill="url(#paint1_linear_745_2409)" fill-opacity="0.5" stroke="white" stroke-opacity="0.5" stroke-miterlimit="10"/>
<path d="M520.165 113.823C472.578 113.823 434 140.202 434 187.791V236.596H606.345V187.791C606.345 140.202 567.767 113.823 520.18 113.823H520.165Z" fill="url(#paint2_linear_745_2409)" fill-opacity="0.4" stroke="white" stroke-opacity="0.5" stroke-miterlimit="10"/>
</g>
<defs>
<linearGradient id="paint0_linear_745_2409" x1="199" y1="42" x2="935" y2="164.5" gradientUnits="userSpaceOnUse">
<stop stop-color="#00D680"/>
<stop offset="1" stop-color="#111111"/>
</linearGradient>
<linearGradient id="paint1_linear_745_2409" x1="520.164" y1="-7" x2="520.164" y2="103.983" gradientUnits="userSpaceOnUse">
<stop stop-color="white"/>
<stop offset="1" stop-color="#00D680" stop-opacity="0"/>
</linearGradient>
<linearGradient id="paint2_linear_745_2409" x1="520.172" y1="113.823" x2="520.172" y2="236.596" gradientUnits="userSpaceOnUse">
<stop stop-color="white"/>
<stop offset="1" stop-color="#00D680" stop-opacity="0"/>
</linearGradient>
</defs>
</svg>
