<svg width="555" height="445" viewBox="0 0 555 445" fill="none" xmlns="http://www.w3.org/2000/svg">
<rect y="3" width="555" height="442" rx="15" fill="#111111"/>
<mask id="mask0_367_2267" style="mask-type:alpha" maskUnits="userSpaceOnUse" x="0" y="3" width="555" height="442">
<rect y="3" width="555" height="442" rx="15" fill="#111111"/>
</mask>
<g mask="url(#mask0_367_2267)">
<g filter="url(#filter0_f_367_2267)">
<path d="M-272.653 -554.164C-239.671 -653.211 177.505 -481.05 276.552 -448.069C375.599 -415.087 963.55 -402.619 585.058 -157.181C58.9267 -145.604 -107.375 229.291 -206.422 196.31C-305.469 163.328 -305.635 -455.118 -272.653 -554.164Z" fill="#00D680"/>
</g>
<g filter="url(#filter1_f_367_2267)">
<path d="M951.57 357.996C939.468 319.947 642.821 426.96 573.186 449.108C503.55 471.257 108.659 527.054 337.332 595.774C688.412 555.229 761.979 695.673 831.615 673.524C901.25 651.376 963.672 396.045 951.57 357.996Z" fill="#00D680"/>
</g>
</g>
<mask id="mask1_367_2267" style="mask-type:alpha" maskUnits="userSpaceOnUse" x="95" y="3" width="380" height="442">
<rect x="95" y="3" width="380" height="442" fill="#D9D9D9"/>
</mask>
<g mask="url(#mask1_367_2267)">
<path d="M225.072 409.031L225.072 587.683L343.928 587.683L343.928 409.031L452 409.031L281.075 99L117 409.031L225.072 409.031Z" fill="url(#paint0_linear_367_2267)" fill-opacity="0.15" stroke="white" stroke-opacity="0.5" stroke-width="0.5" stroke-miterlimit="10"/>
</g>
<path d="M98.1009 320V183.16L107.781 190.64H66.6409V159.4H133.961V320H98.1009ZM218.202 324.18C205.442 324.18 194.442 321.76 185.202 316.92C175.962 311.933 168.849 305.26 163.862 296.9C159.022 288.54 156.602 279.3 156.602 269.18H191.362C191.362 274.167 192.462 278.567 194.662 282.38C197.009 286.047 200.236 288.98 204.342 291.18C208.449 293.233 213.142 294.26 218.422 294.26C224.289 294.26 229.202 293.087 233.162 290.74C237.269 288.247 240.422 284.947 242.622 280.84C244.822 276.587 245.922 271.82 245.922 266.54C245.922 261.113 244.822 256.347 242.622 252.24C240.569 247.987 237.489 244.613 233.382 242.12C229.422 239.627 224.582 238.38 218.862 238.38C213.582 238.38 208.816 239.48 204.562 241.68C200.309 243.88 197.156 246.667 195.102 250.04H161.222L169.362 159.4H266.822V190.2H183.662L197.522 180.96L192.682 233.1L184.322 230.9C188.722 225.62 194.002 221.22 200.162 217.7C206.469 214.033 214.682 212.2 224.802 212.2C236.536 212.2 246.509 214.62 254.722 219.46C263.082 224.153 269.462 230.533 273.862 238.6C278.409 246.52 280.682 255.393 280.682 265.22V268.08C280.682 277.907 278.262 287.073 273.422 295.58C268.582 304.087 261.469 310.98 252.082 316.26C242.842 321.54 231.549 324.18 218.202 324.18ZM299.104 320V159.4H348.824L385.564 249.6H389.744L426.044 159.4H476.644V320H441.004V182.94L446.064 183.38L403.604 287.44H369.284L326.604 183.38L332.104 182.94V320H299.104Z" fill="white"/>
<path d="M155.91 365.2C155.037 365.2 154.237 364.99 153.51 364.57C152.783 364.143 152.203 363.52 151.77 362.7C151.337 361.873 151.12 360.867 151.12 359.68C151.12 358.513 151.34 357.523 151.78 356.71C152.22 355.897 152.803 355.28 153.53 354.86C154.257 354.433 155.05 354.22 155.91 354.22C156.73 354.22 157.497 354.417 158.21 354.81C158.93 355.197 159.51 355.737 159.95 356.43C160.39 357.123 160.61 357.927 160.61 358.84C160.61 358.86 160.61 358.88 160.61 358.9C160.61 358.92 160.61 358.94 160.61 358.96L159.39 359.01C159.39 358.99 159.39 358.97 159.39 358.95C159.39 358.923 159.39 358.9 159.39 358.88C159.39 358.3 159.237 357.777 158.93 357.31C158.63 356.843 158.233 356.473 157.74 356.2C157.247 355.92 156.717 355.78 156.15 355.78C155.203 355.78 154.42 356.1 153.8 356.74C153.18 357.373 152.87 358.353 152.87 359.68C152.87 361 153.18 361.983 153.8 362.63C154.427 363.27 155.21 363.59 156.15 363.59C156.743 363.59 157.283 363.447 157.77 363.16C158.263 362.873 158.657 362.49 158.95 362.01C159.243 361.523 159.39 360.98 159.39 360.38L160.61 360.41C160.61 361.317 160.4 362.133 159.98 362.86C159.56 363.58 158.993 364.15 158.28 364.57C157.573 364.99 156.783 365.2 155.91 365.2ZM159.39 365V349.37H161.1V365H159.39ZM164.55 360.37V358.85H172.76L172.46 359.35C172.46 359.31 172.46 359.273 172.46 359.24C172.46 359.2 172.46 359.163 172.46 359.13C172.46 358.517 172.33 357.957 172.07 357.45C171.817 356.937 171.437 356.527 170.93 356.22C170.424 355.913 169.797 355.76 169.05 355.76C168.297 355.76 167.634 355.92 167.06 356.24C166.487 356.56 166.04 357.013 165.72 357.6C165.4 358.18 165.24 358.873 165.24 359.68C165.24 360.5 165.394 361.207 165.7 361.8C166.014 362.393 166.457 362.85 167.03 363.17C167.604 363.49 168.284 363.65 169.07 363.65C169.63 363.65 170.117 363.593 170.53 363.48C170.944 363.36 171.284 363.203 171.55 363.01C171.824 362.81 172.03 362.593 172.17 362.36C172.31 362.127 172.394 361.893 172.42 361.66H174.12C174.087 362.087 173.954 362.51 173.72 362.93C173.487 363.35 173.157 363.733 172.73 364.08C172.304 364.42 171.78 364.693 171.16 364.9C170.54 365.107 169.827 365.21 169.02 365.21C167.954 365.21 167.014 364.977 166.2 364.51C165.387 364.043 164.747 363.397 164.28 362.57C163.82 361.743 163.59 360.793 163.59 359.72C163.59 358.633 163.824 357.68 164.29 356.86C164.757 356.033 165.4 355.387 166.22 354.92C167.04 354.453 167.977 354.22 169.03 354.22C170.104 354.22 171.034 354.453 171.82 354.92C172.607 355.387 173.214 356.027 173.64 356.84C174.067 357.647 174.28 358.567 174.28 359.6C174.28 359.707 174.277 359.847 174.27 360.02C174.264 360.193 174.254 360.31 174.24 360.37H164.55ZM185.813 365.2C185.173 365.2 184.58 365.133 184.033 365C183.493 364.86 183.02 364.66 182.613 364.4C182.213 364.133 181.9 363.807 181.673 363.42C181.453 363.033 181.343 362.59 181.343 362.09C181.343 362.037 181.343 361.983 181.343 361.93C181.343 361.87 181.343 361.82 181.343 361.78H183.053C183.053 361.82 183.053 361.853 183.053 361.88C183.053 361.907 183.053 361.947 183.053 362C183.053 362.54 183.303 362.953 183.803 363.24C184.303 363.52 184.987 363.66 185.853 363.66C186.387 363.66 186.863 363.607 187.283 363.5C187.703 363.393 188.033 363.23 188.273 363.01C188.52 362.79 188.643 362.513 188.643 362.18C188.643 361.627 188.383 361.233 187.863 361C187.35 360.76 186.58 360.553 185.553 360.38C185.013 360.287 184.5 360.167 184.013 360.02C183.527 359.867 183.093 359.67 182.713 359.43C182.34 359.19 182.043 358.893 181.823 358.54C181.61 358.18 181.503 357.75 181.503 357.25C181.503 356.603 181.693 356.057 182.073 355.61C182.46 355.157 182.98 354.813 183.633 354.58C184.287 354.34 185.013 354.22 185.813 354.22C186.587 354.22 187.3 354.343 187.953 354.59C188.607 354.837 189.13 355.197 189.523 355.67C189.923 356.137 190.123 356.713 190.123 357.4C190.123 357.427 190.123 357.46 190.123 357.5C190.123 357.533 190.123 357.567 190.123 357.6H188.423C188.423 357.567 188.423 357.54 188.423 357.52C188.423 357.5 188.423 357.477 188.423 357.45C188.423 357.063 188.3 356.747 188.053 356.5C187.807 356.247 187.487 356.06 187.093 355.94C186.7 355.813 186.28 355.75 185.833 355.75C185.413 355.75 185 355.797 184.593 355.89C184.187 355.977 183.85 356.123 183.583 356.33C183.317 356.537 183.183 356.82 183.183 357.18C183.183 357.54 183.307 357.83 183.553 358.05C183.807 358.263 184.16 358.44 184.613 358.58C185.073 358.713 185.613 358.837 186.233 358.95C186.787 359.05 187.31 359.177 187.803 359.33C188.297 359.477 188.73 359.667 189.103 359.9C189.483 360.133 189.78 360.43 189.993 360.79C190.213 361.143 190.323 361.577 190.323 362.09C190.323 362.61 190.203 363.063 189.963 363.45C189.73 363.837 189.403 364.16 188.983 364.42C188.57 364.68 188.09 364.873 187.543 365C187.003 365.133 186.427 365.2 185.813 365.2ZM197.906 365.19C196.839 365.19 195.896 364.953 195.076 364.48C194.263 364 193.623 363.347 193.156 362.52C192.696 361.687 192.466 360.74 192.466 359.68C192.466 358.62 192.696 357.68 193.156 356.86C193.623 356.04 194.263 355.397 195.076 354.93C195.896 354.463 196.839 354.23 197.906 354.23C198.973 354.23 199.913 354.463 200.726 354.93C201.546 355.397 202.186 356.04 202.646 356.86C203.113 357.68 203.346 358.62 203.346 359.68C203.346 360.74 203.113 361.687 202.646 362.52C202.186 363.347 201.546 364 200.726 364.48C199.913 364.953 198.973 365.19 197.906 365.19ZM197.906 363.63C198.639 363.63 199.286 363.467 199.846 363.14C200.406 362.813 200.843 362.353 201.156 361.76C201.476 361.167 201.636 360.473 201.636 359.68C201.636 358.887 201.476 358.2 201.156 357.62C200.843 357.033 200.406 356.583 199.846 356.27C199.286 355.95 198.639 355.79 197.906 355.79C197.179 355.79 196.533 355.95 195.966 356.27C195.406 356.583 194.966 357.033 194.646 357.62C194.333 358.2 194.176 358.887 194.176 359.68C194.176 360.473 194.333 361.167 194.646 361.76C194.966 362.353 195.406 362.813 195.966 363.14C196.533 363.467 197.179 363.63 197.906 363.63ZM207.743 349.37V365H206.063V349.37H207.743ZM211.316 360.37V358.85H219.526L219.226 359.35C219.226 359.31 219.226 359.273 219.226 359.24C219.226 359.2 219.226 359.163 219.226 359.13C219.226 358.517 219.096 357.957 218.836 357.45C218.583 356.937 218.203 356.527 217.696 356.22C217.189 355.913 216.563 355.76 215.816 355.76C215.063 355.76 214.399 355.92 213.826 356.24C213.253 356.56 212.806 357.013 212.486 357.6C212.166 358.18 212.006 358.873 212.006 359.68C212.006 360.5 212.159 361.207 212.466 361.8C212.779 362.393 213.223 362.85 213.796 363.17C214.369 363.49 215.049 363.65 215.836 363.65C216.396 363.65 216.883 363.593 217.296 363.48C217.709 363.36 218.049 363.203 218.316 363.01C218.589 362.81 218.796 362.593 218.936 362.36C219.076 362.127 219.159 361.893 219.186 361.66H220.886C220.853 362.087 220.719 362.51 220.486 362.93C220.253 363.35 219.923 363.733 219.496 364.08C219.069 364.42 218.546 364.693 217.926 364.9C217.306 365.107 216.593 365.21 215.786 365.21C214.719 365.21 213.779 364.977 212.966 364.51C212.153 364.043 211.513 363.397 211.046 362.57C210.586 361.743 210.356 360.793 210.356 359.72C210.356 358.633 210.589 357.68 211.056 356.86C211.523 356.033 212.166 355.387 212.986 354.92C213.806 354.453 214.743 354.22 215.796 354.22C216.869 354.22 217.799 354.453 218.586 354.92C219.373 355.387 219.979 356.027 220.406 356.84C220.833 357.647 221.046 358.567 221.046 359.6C221.046 359.707 221.043 359.847 221.036 360.02C221.029 360.193 221.019 360.31 221.006 360.37H211.316ZM227.667 365.2C227.027 365.2 226.434 365.133 225.887 365C225.347 364.86 224.874 364.66 224.467 364.4C224.067 364.133 223.754 363.807 223.527 363.42C223.307 363.033 223.197 362.59 223.197 362.09C223.197 362.037 223.197 361.983 223.197 361.93C223.197 361.87 223.197 361.82 223.197 361.78H224.907C224.907 361.82 224.907 361.853 224.907 361.88C224.907 361.907 224.907 361.947 224.907 362C224.907 362.54 225.157 362.953 225.657 363.24C226.157 363.52 226.841 363.66 227.707 363.66C228.241 363.66 228.717 363.607 229.137 363.5C229.557 363.393 229.887 363.23 230.127 363.01C230.374 362.79 230.497 362.513 230.497 362.18C230.497 361.627 230.237 361.233 229.717 361C229.204 360.76 228.434 360.553 227.407 360.38C226.867 360.287 226.354 360.167 225.867 360.02C225.381 359.867 224.947 359.67 224.567 359.43C224.194 359.19 223.897 358.893 223.677 358.54C223.464 358.18 223.357 357.75 223.357 357.25C223.357 356.603 223.547 356.057 223.927 355.61C224.314 355.157 224.834 354.813 225.487 354.58C226.141 354.34 226.867 354.22 227.667 354.22C228.441 354.22 229.154 354.343 229.807 354.59C230.461 354.837 230.984 355.197 231.377 355.67C231.777 356.137 231.977 356.713 231.977 357.4C231.977 357.427 231.977 357.46 231.977 357.5C231.977 357.533 231.977 357.567 231.977 357.6H230.277C230.277 357.567 230.277 357.54 230.277 357.52C230.277 357.5 230.277 357.477 230.277 357.45C230.277 357.063 230.154 356.747 229.907 356.5C229.661 356.247 229.341 356.06 228.947 355.94C228.554 355.813 228.134 355.75 227.687 355.75C227.267 355.75 226.854 355.797 226.447 355.89C226.041 355.977 225.704 356.123 225.437 356.33C225.171 356.537 225.037 356.82 225.037 357.18C225.037 357.54 225.161 357.83 225.407 358.05C225.661 358.263 226.014 358.44 226.467 358.58C226.927 358.713 227.467 358.837 228.087 358.95C228.641 359.05 229.164 359.177 229.657 359.33C230.151 359.477 230.584 359.667 230.957 359.9C231.337 360.133 231.634 360.43 231.847 360.79C232.067 361.143 232.177 361.577 232.177 362.09C232.177 362.61 232.057 363.063 231.817 363.45C231.584 363.837 231.257 364.16 230.837 364.42C230.424 364.68 229.944 364.873 229.397 365C228.857 365.133 228.281 365.2 227.667 365.2ZM240.192 360.37V358.85H248.402L248.102 359.35C248.102 359.31 248.102 359.273 248.102 359.24C248.102 359.2 248.102 359.163 248.102 359.13C248.102 358.517 247.972 357.957 247.712 357.45C247.458 356.937 247.078 356.527 246.572 356.22C246.065 355.913 245.438 355.76 244.692 355.76C243.938 355.76 243.275 355.92 242.702 356.24C242.128 356.56 241.682 357.013 241.362 357.6C241.042 358.18 240.882 358.873 240.882 359.68C240.882 360.5 241.035 361.207 241.342 361.8C241.655 362.393 242.098 362.85 242.672 363.17C243.245 363.49 243.925 363.65 244.712 363.65C245.272 363.65 245.758 363.593 246.172 363.48C246.585 363.36 246.925 363.203 247.192 363.01C247.465 362.81 247.672 362.593 247.812 362.36C247.952 362.127 248.035 361.893 248.062 361.66H249.762C249.728 362.087 249.595 362.51 249.362 362.93C249.128 363.35 248.798 363.733 248.372 364.08C247.945 364.42 247.422 364.693 246.802 364.9C246.182 365.107 245.468 365.21 244.662 365.21C243.595 365.21 242.655 364.977 241.842 364.51C241.028 364.043 240.388 363.397 239.922 362.57C239.462 361.743 239.232 360.793 239.232 359.72C239.232 358.633 239.465 357.68 239.932 356.86C240.398 356.033 241.042 355.387 241.862 354.92C242.682 354.453 243.618 354.22 244.672 354.22C245.745 354.22 246.675 354.453 247.462 354.92C248.248 355.387 248.855 356.027 249.282 356.84C249.708 357.647 249.922 358.567 249.922 359.6C249.922 359.707 249.918 359.847 249.912 360.02C249.905 360.193 249.895 360.31 249.882 360.37H240.192ZM260.083 365V359.91C260.083 359.603 260.083 359.353 260.083 359.16C260.083 358.96 260.083 358.77 260.083 358.59C260.083 358.037 259.99 357.553 259.803 357.14C259.616 356.727 259.323 356.407 258.923 356.18C258.523 355.953 258 355.84 257.353 355.84C256.786 355.84 256.26 355.987 255.773 356.28C255.293 356.567 254.906 356.957 254.613 357.45C254.326 357.937 254.183 358.483 254.183 359.09L253.213 358.72C253.213 357.887 253.416 357.13 253.823 356.45C254.236 355.77 254.783 355.23 255.463 354.83C256.15 354.423 256.896 354.22 257.703 354.22C258.523 354.22 259.24 354.377 259.853 354.69C260.466 355.003 260.94 355.453 261.273 356.04C261.613 356.62 261.783 357.32 261.783 358.14C261.783 358.433 261.783 358.753 261.783 359.1C261.783 359.447 261.783 359.77 261.783 360.07V365H260.083ZM252.483 365V354.38H254.183V365H252.483ZM269.672 365V354.38H271.352V365H269.672ZM270.522 351.94C270.209 351.94 269.935 351.853 269.702 351.68C269.475 351.5 269.362 351.257 269.362 350.95C269.362 350.65 269.475 350.413 269.702 350.24C269.935 350.06 270.209 349.97 270.522 349.97C270.835 349.97 271.105 350.06 271.332 350.24C271.559 350.413 271.672 350.65 271.672 350.95C271.672 351.257 271.559 351.5 271.332 351.68C271.105 351.853 270.835 351.94 270.522 351.94ZM280.955 365V360.31C280.955 359.897 280.955 359.54 280.955 359.24C280.955 358.933 280.955 358.677 280.955 358.47C280.955 358.21 280.935 357.93 280.895 357.63C280.862 357.323 280.779 357.037 280.645 356.77C280.512 356.497 280.302 356.273 280.015 356.1C279.735 355.927 279.345 355.84 278.845 355.84C278.339 355.84 277.912 355.94 277.565 356.14C277.219 356.333 276.939 356.59 276.725 356.91C276.512 357.23 276.359 357.583 276.265 357.97C276.172 358.35 276.125 358.727 276.125 359.1L275.165 358.71C275.165 357.91 275.332 357.17 275.665 356.49C275.999 355.81 276.465 355.263 277.065 354.85C277.672 354.43 278.382 354.22 279.195 354.22C280.002 354.22 280.659 354.383 281.165 354.71C281.672 355.037 282.045 355.487 282.285 356.06C282.525 356.633 282.645 357.293 282.645 358.04C282.645 358.307 282.645 358.65 282.645 359.07C282.645 359.483 282.645 359.957 282.645 360.49V365H280.955ZM274.425 365V354.38H276.125V365H274.425ZM287.465 365V360.31C287.465 359.857 287.465 359.483 287.465 359.19C287.465 358.89 287.465 358.637 287.465 358.43C287.465 358.17 287.449 357.89 287.415 357.59C287.382 357.29 287.299 357.01 287.165 356.75C287.032 356.483 286.819 356.267 286.525 356.1C286.239 355.927 285.835 355.84 285.315 355.84C284.802 355.84 284.372 355.937 284.025 356.13C283.685 356.323 283.412 356.577 283.205 356.89C283.005 357.203 282.862 357.543 282.775 357.91C282.689 358.27 282.645 358.617 282.645 358.95L281.685 358.58C281.685 357.82 281.845 357.11 282.165 356.45C282.492 355.783 282.952 355.247 283.545 354.84C284.145 354.427 284.855 354.22 285.675 354.22C286.442 354.22 287.082 354.37 287.595 354.67C288.115 354.97 288.505 355.393 288.765 355.94C289.032 356.48 289.165 357.123 289.165 357.87C289.165 358.15 289.165 358.497 289.165 358.91C289.165 359.323 289.165 359.79 289.165 360.31V365H287.465ZM292.032 369.37V354.38H293.732V369.37H292.032ZM297.222 365.2C296.402 365.2 295.636 365 294.922 364.6C294.209 364.193 293.629 363.637 293.182 362.93C292.742 362.223 292.522 361.417 292.522 360.51C292.522 360.49 292.522 360.473 292.522 360.46C292.522 360.447 292.522 360.43 292.522 360.41L293.742 360.38C293.742 360.393 293.742 360.41 293.742 360.43C293.742 360.443 293.742 360.457 293.742 360.47C293.742 361.043 293.892 361.567 294.192 362.04C294.499 362.513 294.899 362.89 295.392 363.17C295.886 363.45 296.416 363.59 296.982 363.59C297.922 363.59 298.702 363.27 299.322 362.63C299.949 361.983 300.262 361 300.262 359.68C300.262 358.353 299.952 357.373 299.332 356.74C298.712 356.1 297.929 355.78 296.982 355.78C296.416 355.78 295.886 355.92 295.392 356.2C294.899 356.473 294.499 356.843 294.192 357.31C293.892 357.777 293.742 358.3 293.742 358.88L292.522 358.84C292.522 357.927 292.742 357.123 293.182 356.43C293.629 355.737 294.209 355.197 294.922 354.81C295.636 354.417 296.402 354.22 297.222 354.22C298.082 354.22 298.876 354.433 299.602 354.86C300.329 355.28 300.912 355.897 301.352 356.71C301.792 357.523 302.012 358.513 302.012 359.68C302.012 360.867 301.796 361.873 301.362 362.7C300.929 363.52 300.349 364.143 299.622 364.57C298.896 364.99 298.096 365.2 297.222 365.2ZM309.611 365.19C308.544 365.19 307.601 364.953 306.781 364.48C305.967 364 305.327 363.347 304.861 362.52C304.401 361.687 304.171 360.74 304.171 359.68C304.171 358.62 304.401 357.68 304.861 356.86C305.327 356.04 305.967 355.397 306.781 354.93C307.601 354.463 308.544 354.23 309.611 354.23C310.677 354.23 311.617 354.463 312.431 354.93C313.251 355.397 313.891 356.04 314.351 356.86C314.817 357.68 315.051 358.62 315.051 359.68C315.051 360.74 314.817 361.687 314.351 362.52C313.891 363.347 313.251 364 312.431 364.48C311.617 364.953 310.677 365.19 309.611 365.19ZM309.611 363.63C310.344 363.63 310.991 363.467 311.551 363.14C312.111 362.813 312.547 362.353 312.861 361.76C313.181 361.167 313.341 360.473 313.341 359.68C313.341 358.887 313.181 358.2 312.861 357.62C312.547 357.033 312.111 356.583 311.551 356.27C310.991 355.95 310.344 355.79 309.611 355.79C308.884 355.79 308.237 355.95 307.671 356.27C307.111 356.583 306.671 357.033 306.351 357.62C306.037 358.2 305.881 358.887 305.881 359.68C305.881 360.473 306.037 361.167 306.351 361.76C306.671 362.353 307.111 362.813 307.671 363.14C308.237 363.467 308.884 363.63 309.611 363.63ZM317.617 365V354.38H319.317V357.64L318.757 357.44C318.797 357.047 318.897 356.66 319.057 356.28C319.217 355.893 319.437 355.547 319.717 355.24C320.004 354.927 320.361 354.68 320.787 354.5C321.214 354.313 321.714 354.22 322.287 354.22C322.714 354.22 323.061 354.257 323.327 354.33C323.601 354.397 323.771 354.45 323.837 354.49L323.397 356.16C323.331 356.113 323.194 356.053 322.987 355.98C322.787 355.907 322.501 355.87 322.127 355.87C321.574 355.87 321.114 355.97 320.747 356.17C320.387 356.37 320.101 356.637 319.887 356.97C319.681 357.297 319.534 357.653 319.447 358.04C319.361 358.427 319.317 358.81 319.317 359.19V365H317.617ZM329.776 365.16C329.449 365.16 329.129 365.123 328.816 365.05C328.503 364.977 328.219 364.847 327.966 364.66C327.719 364.467 327.523 364.197 327.376 363.85C327.229 363.497 327.156 363.043 327.156 362.49C327.156 362.35 327.156 362.207 327.156 362.06C327.156 361.907 327.156 361.747 327.156 361.58V355.88H324.566V354.38H326.226C326.453 354.38 326.629 354.373 326.756 354.36C326.883 354.34 326.973 354.297 327.026 354.23C327.086 354.157 327.123 354.047 327.136 353.9C327.149 353.747 327.156 353.537 327.156 353.27V350.86H328.866V354.38H332.186V355.88H328.866V361.03C328.866 361.177 328.866 361.32 328.866 361.46C328.866 361.6 328.866 361.73 328.866 361.85C328.866 362.417 328.933 362.86 329.066 363.18C329.206 363.5 329.516 363.66 329.996 363.66C330.189 363.66 330.373 363.643 330.546 363.61C330.719 363.577 330.849 363.543 330.936 363.51V364.99C330.823 365.03 330.663 365.067 330.456 365.1C330.256 365.14 330.029 365.16 329.776 365.16ZM337.635 365.2C336.829 365.2 336.122 365.073 335.515 364.82C334.915 364.567 334.449 364.203 334.115 363.73C333.782 363.25 333.615 362.677 333.615 362.01C333.615 361.317 333.795 360.74 334.155 360.28C334.515 359.813 335.022 359.45 335.675 359.19C336.329 358.93 337.089 358.757 337.955 358.67C339.262 358.537 340.192 358.407 340.745 358.28C341.299 358.147 341.575 357.933 341.575 357.64C341.575 357.633 341.575 357.63 341.575 357.63C341.575 357.623 341.575 357.617 341.575 357.61C341.575 356.997 341.325 356.54 340.825 356.24C340.325 355.933 339.602 355.78 338.655 355.78C337.669 355.78 336.902 355.953 336.355 356.3C335.809 356.64 335.535 357.193 335.535 357.96H333.855C333.855 357.167 334.059 356.493 334.465 355.94C334.872 355.38 335.435 354.953 336.155 354.66C336.882 354.367 337.719 354.22 338.665 354.22C339.532 354.22 340.312 354.353 341.005 354.62C341.705 354.88 342.259 355.27 342.665 355.79C343.079 356.303 343.285 356.94 343.285 357.7C343.285 357.84 343.285 357.98 343.285 358.12C343.285 358.253 343.285 358.39 343.285 358.53V363C343.285 363.233 343.295 363.46 343.315 363.68C343.335 363.9 343.369 364.093 343.415 364.26C343.475 364.46 343.542 364.623 343.615 364.75C343.689 364.87 343.749 364.953 343.795 365H342.085C342.052 364.967 342.002 364.89 341.935 364.77C341.869 364.643 341.805 364.497 341.745 364.33C341.699 364.197 341.662 364.03 341.635 363.83C341.609 363.623 341.595 363.41 341.595 363.19L341.875 363.38C341.669 363.74 341.365 364.057 340.965 364.33C340.572 364.603 340.095 364.817 339.535 364.97C338.975 365.123 338.342 365.2 337.635 365.2ZM337.905 363.67C338.592 363.67 339.212 363.567 339.765 363.36C340.319 363.147 340.759 362.833 341.085 362.42C341.412 362.007 341.575 361.493 341.575 360.88V358.77L341.955 359.41C341.529 359.577 340.995 359.713 340.355 359.82C339.722 359.92 339.059 360.003 338.365 360.07C337.359 360.163 336.599 360.34 336.085 360.6C335.579 360.86 335.325 361.297 335.325 361.91C335.325 362.49 335.535 362.93 335.955 363.23C336.375 363.523 337.025 363.67 337.905 363.67ZM351.064 365.2C350.051 365.2 349.131 364.98 348.304 364.54C347.478 364.093 346.821 363.457 346.334 362.63C345.854 361.803 345.614 360.82 345.614 359.68C345.614 358.54 345.854 357.563 346.334 356.75C346.821 355.93 347.478 355.303 348.304 354.87C349.131 354.437 350.051 354.22 351.064 354.22C351.838 354.22 352.528 354.34 353.134 354.58C353.741 354.813 354.254 355.127 354.674 355.52C355.094 355.913 355.414 356.347 355.634 356.82C355.861 357.287 355.974 357.753 355.974 358.22C355.974 358.227 355.974 358.237 355.974 358.25C355.974 358.263 355.974 358.277 355.974 358.29H354.284C354.284 358.257 354.281 358.22 354.274 358.18C354.268 358.133 354.261 358.087 354.254 358.04C354.201 357.593 354.031 357.203 353.744 356.87C353.458 356.53 353.084 356.263 352.624 356.07C352.164 355.877 351.641 355.78 351.054 355.78C350.394 355.78 349.781 355.923 349.214 356.21C348.654 356.49 348.201 356.92 347.854 357.5C347.514 358.073 347.344 358.8 347.344 359.68C347.344 360.553 347.514 361.283 347.854 361.87C348.194 362.457 348.644 362.9 349.204 363.2C349.771 363.493 350.388 363.64 351.054 363.64C351.774 363.64 352.368 363.527 352.834 363.3C353.301 363.073 353.651 362.773 353.884 362.4C354.124 362.02 354.258 361.613 354.284 361.18H355.974C355.974 361.66 355.868 362.14 355.654 362.62C355.441 363.093 355.128 363.527 354.714 363.92C354.301 364.307 353.788 364.617 353.174 364.85C352.568 365.083 351.864 365.2 351.064 365.2ZM358.634 365V354.38H360.314V365H358.634ZM359.484 351.94C359.17 351.94 358.897 351.853 358.664 351.68C358.437 351.5 358.324 351.257 358.324 350.95C358.324 350.65 358.437 350.413 358.664 350.24C358.897 350.06 359.17 349.97 359.484 349.97C359.797 349.97 360.067 350.06 360.294 350.24C360.52 350.413 360.634 350.65 360.634 350.95C360.634 351.257 360.52 351.5 360.294 351.68C360.067 351.853 359.797 351.94 359.484 351.94ZM368.417 365.19C367.35 365.19 366.407 364.953 365.587 364.48C364.774 364 364.134 363.347 363.667 362.52C363.207 361.687 362.977 360.74 362.977 359.68C362.977 358.62 363.207 357.68 363.667 356.86C364.134 356.04 364.774 355.397 365.587 354.93C366.407 354.463 367.35 354.23 368.417 354.23C369.484 354.23 370.424 354.463 371.237 354.93C372.057 355.397 372.697 356.04 373.157 356.86C373.624 357.68 373.857 358.62 373.857 359.68C373.857 360.74 373.624 361.687 373.157 362.52C372.697 363.347 372.057 364 371.237 364.48C370.424 364.953 369.484 365.19 368.417 365.19ZM368.417 363.63C369.15 363.63 369.797 363.467 370.357 363.14C370.917 362.813 371.354 362.353 371.667 361.76C371.987 361.167 372.147 360.473 372.147 359.68C372.147 358.887 371.987 358.2 371.667 357.62C371.354 357.033 370.917 356.583 370.357 356.27C369.797 355.95 369.15 355.79 368.417 355.79C367.69 355.79 367.044 355.95 366.477 356.27C365.917 356.583 365.477 357.033 365.157 357.62C364.844 358.2 364.687 358.887 364.687 359.68C364.687 360.473 364.844 361.167 365.157 361.76C365.477 362.353 365.917 362.813 366.477 363.14C367.044 363.467 367.69 363.63 368.417 363.63ZM384.024 365V359.91C384.024 359.603 384.024 359.353 384.024 359.16C384.024 358.96 384.024 358.77 384.024 358.59C384.024 358.037 383.93 357.553 383.744 357.14C383.557 356.727 383.264 356.407 382.864 356.18C382.464 355.953 381.94 355.84 381.294 355.84C380.727 355.84 380.2 355.987 379.714 356.28C379.234 356.567 378.847 356.957 378.554 357.45C378.267 357.937 378.124 358.483 378.124 359.09L377.154 358.72C377.154 357.887 377.357 357.13 377.764 356.45C378.177 355.77 378.724 355.23 379.404 354.83C380.09 354.423 380.837 354.22 381.644 354.22C382.464 354.22 383.18 354.377 383.794 354.69C384.407 355.003 384.88 355.453 385.214 356.04C385.554 356.62 385.724 357.32 385.724 358.14C385.724 358.433 385.724 358.753 385.724 359.1C385.724 359.447 385.724 359.77 385.724 360.07V365H384.024ZM376.424 365V354.38H378.124V365H376.424ZM389.151 360.37V358.85H397.361L397.061 359.35C397.061 359.31 397.061 359.273 397.061 359.24C397.061 359.2 397.061 359.163 397.061 359.13C397.061 358.517 396.931 357.957 396.671 357.45C396.418 356.937 396.038 356.527 395.531 356.22C395.024 355.913 394.398 355.76 393.651 355.76C392.898 355.76 392.234 355.92 391.661 356.24C391.088 356.56 390.641 357.013 390.321 357.6C390.001 358.18 389.841 358.873 389.841 359.68C389.841 360.5 389.994 361.207 390.301 361.8C390.614 362.393 391.058 362.85 391.631 363.17C392.204 363.49 392.884 363.65 393.671 363.65C394.231 363.65 394.718 363.593 395.131 363.48C395.544 363.36 395.884 363.203 396.151 363.01C396.424 362.81 396.631 362.593 396.771 362.36C396.911 362.127 396.994 361.893 397.021 361.66H398.721C398.688 362.087 398.554 362.51 398.321 362.93C398.088 363.35 397.758 363.733 397.331 364.08C396.904 364.42 396.381 364.693 395.761 364.9C395.141 365.107 394.428 365.21 393.621 365.21C392.554 365.21 391.614 364.977 390.801 364.51C389.988 364.043 389.348 363.397 388.881 362.57C388.421 361.743 388.191 360.793 388.191 359.72C388.191 358.633 388.424 357.68 388.891 356.86C389.358 356.033 390.001 355.387 390.821 354.92C391.641 354.453 392.578 354.22 393.631 354.22C394.704 354.22 395.634 354.453 396.421 354.92C397.208 355.387 397.814 356.027 398.241 356.84C398.668 357.647 398.881 358.567 398.881 359.6C398.881 359.707 398.878 359.847 398.871 360.02C398.864 360.193 398.854 360.31 398.841 360.37H389.151ZM405.502 365.2C404.862 365.2 404.269 365.133 403.722 365C403.182 364.86 402.709 364.66 402.302 364.4C401.902 364.133 401.589 363.807 401.362 363.42C401.142 363.033 401.032 362.59 401.032 362.09C401.032 362.037 401.032 361.983 401.032 361.93C401.032 361.87 401.032 361.82 401.032 361.78H402.742C402.742 361.82 402.742 361.853 402.742 361.88C402.742 361.907 402.742 361.947 402.742 362C402.742 362.54 402.992 362.953 403.492 363.24C403.992 363.52 404.676 363.66 405.542 363.66C406.076 363.66 406.552 363.607 406.972 363.5C407.392 363.393 407.722 363.23 407.962 363.01C408.209 362.79 408.332 362.513 408.332 362.18C408.332 361.627 408.072 361.233 407.552 361C407.039 360.76 406.269 360.553 405.242 360.38C404.702 360.287 404.189 360.167 403.702 360.02C403.216 359.867 402.782 359.67 402.402 359.43C402.029 359.19 401.732 358.893 401.512 358.54C401.299 358.18 401.192 357.75 401.192 357.25C401.192 356.603 401.382 356.057 401.762 355.61C402.149 355.157 402.669 354.813 403.322 354.58C403.976 354.34 404.702 354.22 405.502 354.22C406.276 354.22 406.989 354.343 407.642 354.59C408.296 354.837 408.819 355.197 409.212 355.67C409.612 356.137 409.812 356.713 409.812 357.4C409.812 357.427 409.812 357.46 409.812 357.5C409.812 357.533 409.812 357.567 409.812 357.6H408.112C408.112 357.567 408.112 357.54 408.112 357.52C408.112 357.5 408.112 357.477 408.112 357.45C408.112 357.063 407.989 356.747 407.742 356.5C407.496 356.247 407.176 356.06 406.782 355.94C406.389 355.813 405.969 355.75 405.522 355.75C405.102 355.75 404.689 355.797 404.282 355.89C403.876 355.977 403.539 356.123 403.272 356.33C403.006 356.537 402.872 356.82 402.872 357.18C402.872 357.54 402.996 357.83 403.242 358.05C403.496 358.263 403.849 358.44 404.302 358.58C404.762 358.713 405.302 358.837 405.922 358.95C406.476 359.05 406.999 359.177 407.492 359.33C407.986 359.477 408.419 359.667 408.792 359.9C409.172 360.133 409.469 360.43 409.682 360.79C409.902 361.143 410.012 361.577 410.012 362.09C410.012 362.61 409.892 363.063 409.652 363.45C409.419 363.837 409.092 364.16 408.672 364.42C408.259 364.68 407.779 364.873 407.232 365C406.692 365.133 406.116 365.2 405.502 365.2Z" fill="white"/>
<defs>
<filter id="filter0_f_367_2267" x="-492.323" y="-784.526" width="1403.02" height="1182.89" filterUnits="userSpaceOnUse" color-interpolation-filters="sRGB">
<feFlood flood-opacity="0" result="BackgroundImageFix"/>
<feBlend mode="normal" in="SourceGraphic" in2="BackgroundImageFix" result="shape"/>
<feGaussianBlur stdDeviation="100" result="effect1_foregroundBlur_367_2267"/>
</filter>
<filter id="filter1_f_367_2267" x="166.846" y="249.889" width="886.235" height="526.02" filterUnits="userSpaceOnUse" color-interpolation-filters="sRGB">
<feFlood flood-opacity="0" result="BackgroundImageFix"/>
<feBlend mode="normal" in="SourceGraphic" in2="BackgroundImageFix" result="shape"/>
<feGaussianBlur stdDeviation="50" result="effect1_foregroundBlur_367_2267"/>
</filter>
<linearGradient id="paint0_linear_367_2267" x1="284.5" y1="661.174" x2="284.5" y2="99.0003" gradientUnits="userSpaceOnUse">
<stop stop-color="#111111"/>
<stop offset="1" stop-color="white"/>
</linearGradient>
</defs>
</svg>
