<svg width="675" height="317" viewBox="0 0 675 317" fill="none" xmlns="http://www.w3.org/2000/svg">
<rect width="555" height="317" rx="10" fill="url(#paint0_linear_367_2264)"/>
<path d="M172.944 238.18C160.477 238.18 149.624 235.907 140.384 231.36C131.291 226.667 124.324 220.36 119.484 212.44C114.644 204.52 112.224 195.573 112.224 185.6H146.984C146.984 192.347 149.257 197.847 153.804 202.1C158.351 206.207 164.731 208.26 172.944 208.26C178.371 208.26 182.991 207.233 186.804 205.18C190.617 203.127 193.551 200.34 195.604 196.82C197.657 193.153 198.684 189.047 198.684 184.5C198.684 177.46 196.411 171.667 191.864 167.12C187.464 162.573 181.157 160.3 172.944 160.3C168.544 160.3 164.657 160.96 161.284 162.28C158.057 163.6 155.271 165.213 152.924 167.12L136.644 139.62L185.264 107.94L183.284 104.2H118.824V73.4H227.064V106.84L170.964 142.48L153.364 137.64C156.297 136.76 159.377 136.1 162.604 135.66C165.977 135.073 169.571 134.78 173.384 134.78C185.851 134.78 196.557 136.833 205.504 140.94C214.451 145.047 221.344 150.84 226.184 158.32C231.171 165.653 233.664 174.233 233.664 184.06V186.7C233.664 196.527 231.171 205.327 226.184 213.1C221.344 220.873 214.377 227.033 205.284 231.58C196.337 235.98 185.557 238.18 172.944 238.18ZM326.728 234L288.668 177.68H271.728L320.788 113.44H357.748L311.548 173.28L311.988 156.12L366.328 234H326.728ZM241.808 234V73.4H277.008V234H241.808Z" fill="white"/>
<mask id="mask0_367_2264" style="mask-type:alpha" maskUnits="userSpaceOnUse" x="459" y="31" width="282" height="277">
<path d="M733.789 203.17L684.596 302.745C683.22 302.956 681.778 303.067 680.247 303.067C665.857 303.067 657.769 292.924 641.882 291.632C625.994 290.341 618.694 305.216 600.011 305.216C599.501 305.216 598.99 305.205 598.502 305.183C581.006 304.437 575.137 290.797 559.683 292.056C543.784 293.358 535.985 302.043 521.629 303.067C518.278 303.301 515.26 303.212 512.498 302.9L463.227 203.17L486.126 195.944L543.962 177.706L598.502 160.503L601.797 161.539L659.633 179.788L716.026 197.57L733.789 203.17Z" fill="url(#paint1_linear_367_2264)" fill-opacity="0.3" stroke="#F8FAFB" stroke-width="0.5" stroke-miterlimit="10"/>
<path d="M628.424 33.7837H570.588V88.3753H628.424V33.7837Z" fill="url(#paint2_linear_367_2264)" fill-opacity="0.3" stroke="#F8FAFB" stroke-width="0.5" stroke-miterlimit="10"/>
<path d="M570.589 88.3755H512.753V142.967H570.589V88.3755Z" fill="url(#paint3_linear_367_2264)" fill-opacity="0.3" stroke="#F8FAFB" stroke-width="0.5" stroke-miterlimit="10"/>
<path d="M628.424 88.3755H570.588V142.967H628.424V88.3755Z" fill="url(#paint4_linear_367_2264)" fill-opacity="0.3" stroke="#F8FAFB" stroke-width="0.5" stroke-miterlimit="10"/>
<path d="M686.259 88.3755H628.424V142.967H686.259V88.3755Z" fill="url(#paint5_linear_367_2264)" fill-opacity="0.3" stroke="#F8FAFB" stroke-width="0.5" stroke-miterlimit="10"/>
<path d="M659.633 142.967V179.788L601.797 161.539V142.967H659.633Z" fill="url(#paint6_linear_367_2264)" fill-opacity="0.3" stroke="#F8FAFB" stroke-width="0.5" stroke-miterlimit="10"/>
<path d="M717.468 142.967V197.57H716.026L659.633 179.788V142.967H717.468Z" fill="url(#paint7_linear_367_2264)" fill-opacity="0.3" stroke="#F8FAFB" stroke-width="0.5" stroke-miterlimit="10"/>
<path d="M601.797 142.967V161.539L598.502 160.503L543.961 177.706V142.967H601.797Z" fill="url(#paint8_linear_367_2264)" fill-opacity="0.3" stroke="#F8FAFB" stroke-width="0.5" stroke-miterlimit="10"/>
<path d="M543.962 142.967V177.706L486.126 195.944V142.967H543.962Z" fill="url(#paint9_linear_367_2264)" fill-opacity="0.3" stroke="#F8FAFB" stroke-width="0.5" stroke-miterlimit="10"/>
<path d="M474.066 225.105L598.513 189.809L722.96 225.105" stroke="#F8FAFB" stroke-width="0.5" stroke-miterlimit="10"/>
<path d="M598.502 305.183V160.503" stroke="#F8FAFB" stroke-width="0.5" stroke-miterlimit="10"/>
<path d="M460.864 305.216C484.739 283.449 490.264 300.406 512.498 302.9" stroke="#F8FAFB" stroke-width="0.5" stroke-miterlimit="10"/>
</mask>
<g mask="url(#mask0_367_2264)">
<rect x="372" width="184" height="317" rx="10" fill="#DFDFDF"/>
</g>
<path d="M112.53 276.37V261.38H114.23V276.37H112.53ZM117.72 272.2C116.9 272.2 116.133 272 115.42 271.6C114.707 271.193 114.127 270.637 113.68 269.93C113.24 269.223 113.02 268.417 113.02 267.51C113.02 267.49 113.02 267.473 113.02 267.46C113.02 267.447 113.02 267.43 113.02 267.41L114.24 267.38C114.24 267.393 114.24 267.41 114.24 267.43C114.24 267.443 114.24 267.457 114.24 267.47C114.24 268.043 114.39 268.567 114.69 269.04C114.997 269.513 115.397 269.89 115.89 270.17C116.383 270.45 116.913 270.59 117.48 270.59C118.42 270.59 119.2 270.27 119.82 269.63C120.447 268.983 120.76 268 120.76 266.68C120.76 265.353 120.45 264.373 119.83 263.74C119.21 263.1 118.427 262.78 117.48 262.78C116.913 262.78 116.383 262.92 115.89 263.2C115.397 263.473 114.997 263.843 114.69 264.31C114.39 264.777 114.24 265.3 114.24 265.88L113.02 265.84C113.02 264.927 113.24 264.123 113.68 263.43C114.127 262.737 114.707 262.197 115.42 261.81C116.133 261.417 116.9 261.22 117.72 261.22C118.58 261.22 119.373 261.433 120.1 261.86C120.827 262.28 121.41 262.897 121.85 263.71C122.29 264.523 122.51 265.513 122.51 266.68C122.51 267.867 122.293 268.873 121.86 269.7C121.427 270.52 120.847 271.143 120.12 271.57C119.393 271.99 118.593 272.2 117.72 272.2ZM125.078 272V261.38H126.778V264.64L126.218 264.44C126.258 264.047 126.358 263.66 126.518 263.28C126.678 262.893 126.898 262.547 127.178 262.24C127.465 261.927 127.822 261.68 128.248 261.5C128.675 261.313 129.175 261.22 129.748 261.22C130.175 261.22 130.522 261.257 130.788 261.33C131.062 261.397 131.232 261.45 131.298 261.49L130.858 263.16C130.792 263.113 130.655 263.053 130.448 262.98C130.248 262.907 129.962 262.87 129.588 262.87C129.035 262.87 128.575 262.97 128.208 263.17C127.848 263.37 127.562 263.637 127.348 263.97C127.142 264.297 126.995 264.653 126.908 265.04C126.822 265.427 126.778 265.81 126.778 266.19V272H125.078ZM137.872 272.19C136.805 272.19 135.862 271.953 135.042 271.48C134.228 271 133.588 270.347 133.122 269.52C132.662 268.687 132.432 267.74 132.432 266.68C132.432 265.62 132.662 264.68 133.122 263.86C133.588 263.04 134.228 262.397 135.042 261.93C135.862 261.463 136.805 261.23 137.872 261.23C138.938 261.23 139.878 261.463 140.692 261.93C141.512 262.397 142.152 263.04 142.612 263.86C143.078 264.68 143.312 265.62 143.312 266.68C143.312 267.74 143.078 268.687 142.612 269.52C142.152 270.347 141.512 271 140.692 271.48C139.878 271.953 138.938 272.19 137.872 272.19ZM137.872 270.63C138.605 270.63 139.252 270.467 139.812 270.14C140.372 269.813 140.808 269.353 141.122 268.76C141.442 268.167 141.602 267.473 141.602 266.68C141.602 265.887 141.442 265.2 141.122 264.62C140.808 264.033 140.372 263.583 139.812 263.27C139.252 262.95 138.605 262.79 137.872 262.79C137.145 262.79 136.498 262.95 135.932 263.27C135.372 263.583 134.932 264.033 134.612 264.62C134.298 265.2 134.142 265.887 134.142 266.68C134.142 267.473 134.298 268.167 134.612 268.76C134.932 269.353 135.372 269.813 135.932 270.14C136.498 270.467 137.145 270.63 137.872 270.63ZM150.258 272.2C149.385 272.2 148.585 271.99 147.858 271.57C147.132 271.143 146.552 270.52 146.118 269.7C145.685 268.873 145.468 267.867 145.468 266.68C145.468 265.513 145.688 264.523 146.128 263.71C146.568 262.897 147.152 262.28 147.878 261.86C148.605 261.433 149.398 261.22 150.258 261.22C151.078 261.22 151.845 261.417 152.558 261.81C153.278 262.197 153.858 262.737 154.298 263.43C154.738 264.123 154.958 264.927 154.958 265.84C154.958 265.86 154.958 265.88 154.958 265.9C154.958 265.92 154.958 265.94 154.958 265.96L153.738 266.01C153.738 265.99 153.738 265.97 153.738 265.95C153.738 265.923 153.738 265.9 153.738 265.88C153.738 265.3 153.585 264.777 153.278 264.31C152.978 263.843 152.582 263.473 152.088 263.2C151.595 262.92 151.065 262.78 150.498 262.78C149.552 262.78 148.768 263.1 148.148 263.74C147.528 264.373 147.218 265.353 147.218 266.68C147.218 268 147.528 268.983 148.148 269.63C148.775 270.27 149.558 270.59 150.498 270.59C151.092 270.59 151.632 270.447 152.118 270.16C152.612 269.873 153.005 269.49 153.298 269.01C153.592 268.523 153.738 267.98 153.738 267.38L154.958 267.41C154.958 268.317 154.748 269.133 154.328 269.86C153.908 270.58 153.342 271.15 152.628 271.57C151.922 271.99 151.132 272.2 150.258 272.2ZM153.738 272V256.37H155.448V272H153.738ZM162.269 272.19C161.509 272.19 160.875 272.06 160.369 271.8C159.862 271.533 159.459 271.19 159.159 270.77C158.865 270.35 158.655 269.897 158.529 269.41C158.409 268.917 158.349 268.443 158.349 267.99C158.349 267.737 158.349 267.477 158.349 267.21C158.349 266.937 158.349 266.663 158.349 266.39V261.38H160.059V266.17C160.059 266.417 160.059 266.66 160.059 266.9C160.059 267.14 160.059 267.367 160.059 267.58C160.059 268.12 160.132 268.62 160.279 269.08C160.432 269.54 160.695 269.913 161.069 270.2C161.442 270.48 161.955 270.62 162.609 270.62C163.222 270.62 163.759 270.437 164.219 270.07C164.679 269.697 165.039 269.233 165.299 268.68C165.559 268.12 165.689 267.563 165.689 267.01L166.679 267.42C166.679 268.007 166.575 268.583 166.369 269.15C166.162 269.71 165.865 270.22 165.479 270.68C165.099 271.14 164.635 271.507 164.089 271.78C163.549 272.053 162.942 272.19 162.269 272.19ZM165.689 272V261.38H167.389V272H165.689ZM175.293 272.2C174.279 272.2 173.359 271.98 172.533 271.54C171.706 271.093 171.049 270.457 170.563 269.63C170.083 268.803 169.843 267.82 169.843 266.68C169.843 265.54 170.083 264.563 170.563 263.75C171.049 262.93 171.706 262.303 172.533 261.87C173.359 261.437 174.279 261.22 175.293 261.22C176.066 261.22 176.756 261.34 177.363 261.58C177.969 261.813 178.483 262.127 178.903 262.52C179.323 262.913 179.643 263.347 179.863 263.82C180.089 264.287 180.203 264.753 180.203 265.22C180.203 265.227 180.203 265.237 180.203 265.25C180.203 265.263 180.203 265.277 180.203 265.29H178.513C178.513 265.257 178.509 265.22 178.503 265.18C178.496 265.133 178.489 265.087 178.483 265.04C178.429 264.593 178.259 264.203 177.973 263.87C177.686 263.53 177.313 263.263 176.853 263.07C176.393 262.877 175.869 262.78 175.283 262.78C174.623 262.78 174.009 262.923 173.443 263.21C172.883 263.49 172.429 263.92 172.083 264.5C171.743 265.073 171.573 265.8 171.573 266.68C171.573 267.553 171.743 268.283 172.083 268.87C172.423 269.457 172.873 269.9 173.433 270.2C173.999 270.493 174.616 270.64 175.283 270.64C176.003 270.64 176.596 270.527 177.063 270.3C177.529 270.073 177.879 269.773 178.113 269.4C178.353 269.02 178.486 268.613 178.513 268.18H180.203C180.203 268.66 180.096 269.14 179.883 269.62C179.669 270.093 179.356 270.527 178.943 270.92C178.529 271.307 178.016 271.617 177.403 271.85C176.796 272.083 176.093 272.2 175.293 272.2ZM186.747 272.16C186.42 272.16 186.1 272.123 185.787 272.05C185.474 271.977 185.19 271.847 184.937 271.66C184.69 271.467 184.494 271.197 184.347 270.85C184.2 270.497 184.127 270.043 184.127 269.49C184.127 269.35 184.127 269.207 184.127 269.06C184.127 268.907 184.127 268.747 184.127 268.58V262.88H181.537V261.38H183.197C183.424 261.38 183.6 261.373 183.727 261.36C183.854 261.34 183.944 261.297 183.997 261.23C184.057 261.157 184.094 261.047 184.107 260.9C184.12 260.747 184.127 260.537 184.127 260.27V257.86H185.837V261.38H189.157V262.88H185.837V268.03C185.837 268.177 185.837 268.32 185.837 268.46C185.837 268.6 185.837 268.73 185.837 268.85C185.837 269.417 185.904 269.86 186.037 270.18C186.177 270.5 186.487 270.66 186.967 270.66C187.16 270.66 187.344 270.643 187.517 270.61C187.69 270.577 187.82 270.543 187.907 270.51V271.99C187.794 272.03 187.634 272.067 187.427 272.1C187.227 272.14 187 272.16 186.747 272.16ZM195.926 272.19C194.86 272.19 193.916 271.953 193.096 271.48C192.283 271 191.643 270.347 191.176 269.52C190.716 268.687 190.486 267.74 190.486 266.68C190.486 265.62 190.716 264.68 191.176 263.86C191.643 263.04 192.283 262.397 193.096 261.93C193.916 261.463 194.86 261.23 195.926 261.23C196.993 261.23 197.933 261.463 198.746 261.93C199.566 262.397 200.206 263.04 200.666 263.86C201.133 264.68 201.366 265.62 201.366 266.68C201.366 267.74 201.133 268.687 200.666 269.52C200.206 270.347 199.566 271 198.746 271.48C197.933 271.953 196.993 272.19 195.926 272.19ZM195.926 270.63C196.66 270.63 197.306 270.467 197.866 270.14C198.426 269.813 198.863 269.353 199.176 268.76C199.496 268.167 199.656 267.473 199.656 266.68C199.656 265.887 199.496 265.2 199.176 264.62C198.863 264.033 198.426 263.583 197.866 263.27C197.306 262.95 196.66 262.79 195.926 262.79C195.2 262.79 194.553 262.95 193.986 263.27C193.426 263.583 192.986 264.033 192.666 264.62C192.353 265.2 192.196 265.887 192.196 266.68C192.196 267.473 192.353 268.167 192.666 268.76C192.986 269.353 193.426 269.813 193.986 270.14C194.553 270.467 195.2 270.63 195.926 270.63ZM207.993 272.2C207.353 272.2 206.76 272.133 206.213 272C205.673 271.86 205.2 271.66 204.793 271.4C204.393 271.133 204.08 270.807 203.853 270.42C203.633 270.033 203.523 269.59 203.523 269.09C203.523 269.037 203.523 268.983 203.523 268.93C203.523 268.87 203.523 268.82 203.523 268.78H205.233C205.233 268.82 205.233 268.853 205.233 268.88C205.233 268.907 205.233 268.947 205.233 269C205.233 269.54 205.483 269.953 205.983 270.24C206.483 270.52 207.166 270.66 208.033 270.66C208.566 270.66 209.043 270.607 209.463 270.5C209.883 270.393 210.213 270.23 210.453 270.01C210.7 269.79 210.823 269.513 210.823 269.18C210.823 268.627 210.563 268.233 210.043 268C209.53 267.76 208.76 267.553 207.733 267.38C207.193 267.287 206.68 267.167 206.193 267.02C205.706 266.867 205.273 266.67 204.893 266.43C204.52 266.19 204.223 265.893 204.003 265.54C203.79 265.18 203.683 264.75 203.683 264.25C203.683 263.603 203.873 263.057 204.253 262.61C204.64 262.157 205.16 261.813 205.813 261.58C206.466 261.34 207.193 261.22 207.993 261.22C208.766 261.22 209.48 261.343 210.133 261.59C210.786 261.837 211.31 262.197 211.703 262.67C212.103 263.137 212.303 263.713 212.303 264.4C212.303 264.427 212.303 264.46 212.303 264.5C212.303 264.533 212.303 264.567 212.303 264.6H210.603C210.603 264.567 210.603 264.54 210.603 264.52C210.603 264.5 210.603 264.477 210.603 264.45C210.603 264.063 210.48 263.747 210.233 263.5C209.986 263.247 209.666 263.06 209.273 262.94C208.88 262.813 208.46 262.75 208.013 262.75C207.593 262.75 207.18 262.797 206.773 262.89C206.366 262.977 206.03 263.123 205.763 263.33C205.496 263.537 205.363 263.82 205.363 264.18C205.363 264.54 205.486 264.83 205.733 265.05C205.986 265.263 206.34 265.44 206.793 265.58C207.253 265.713 207.793 265.837 208.413 265.95C208.966 266.05 209.49 266.177 209.983 266.33C210.476 266.477 210.91 266.667 211.283 266.9C211.663 267.133 211.96 267.43 212.173 267.79C212.393 268.143 212.503 268.577 212.503 269.09C212.503 269.61 212.383 270.063 212.143 270.45C211.91 270.837 211.583 271.16 211.163 271.42C210.75 271.68 210.27 271.873 209.723 272C209.183 272.133 208.606 272.2 207.993 272.2ZM220.067 272V261.38H221.747V272H220.067ZM220.917 258.94C220.604 258.94 220.331 258.853 220.097 258.68C219.871 258.5 219.757 258.257 219.757 257.95C219.757 257.65 219.871 257.413 220.097 257.24C220.331 257.06 220.604 256.97 220.917 256.97C221.231 256.97 221.501 257.06 221.727 257.24C221.954 257.413 222.067 257.65 222.067 257.95C222.067 258.257 221.954 258.5 221.727 258.68C221.501 258.853 221.231 258.94 220.917 258.94ZM231.351 272V267.31C231.351 266.897 231.351 266.54 231.351 266.24C231.351 265.933 231.351 265.677 231.351 265.47C231.351 265.21 231.331 264.93 231.291 264.63C231.257 264.323 231.174 264.037 231.041 263.77C230.907 263.497 230.697 263.273 230.411 263.1C230.131 262.927 229.741 262.84 229.241 262.84C228.734 262.84 228.307 262.94 227.961 263.14C227.614 263.333 227.334 263.59 227.121 263.91C226.907 264.23 226.754 264.583 226.661 264.97C226.567 265.35 226.521 265.727 226.521 266.1L225.561 265.71C225.561 264.91 225.727 264.17 226.061 263.49C226.394 262.81 226.861 262.263 227.461 261.85C228.067 261.43 228.777 261.22 229.591 261.22C230.397 261.22 231.054 261.383 231.561 261.71C232.067 262.037 232.441 262.487 232.681 263.06C232.921 263.633 233.041 264.293 233.041 265.04C233.041 265.307 233.041 265.65 233.041 266.07C233.041 266.483 233.041 266.957 233.041 267.49V272H231.351ZM224.821 272V261.38H226.521V272H224.821ZM237.861 272V267.31C237.861 266.857 237.861 266.483 237.861 266.19C237.861 265.89 237.861 265.637 237.861 265.43C237.861 265.17 237.844 264.89 237.811 264.59C237.777 264.29 237.694 264.01 237.561 263.75C237.427 263.483 237.214 263.267 236.921 263.1C236.634 262.927 236.231 262.84 235.711 262.84C235.197 262.84 234.767 262.937 234.421 263.13C234.081 263.323 233.807 263.577 233.601 263.89C233.401 264.203 233.257 264.543 233.171 264.91C233.084 265.27 233.041 265.617 233.041 265.95L232.081 265.58C232.081 264.82 232.241 264.11 232.561 263.45C232.887 262.783 233.347 262.247 233.941 261.84C234.541 261.427 235.251 261.22 236.071 261.22C236.837 261.22 237.477 261.37 237.991 261.67C238.511 261.97 238.901 262.393 239.161 262.94C239.427 263.48 239.561 264.123 239.561 264.87C239.561 265.15 239.561 265.497 239.561 265.91C239.561 266.323 239.561 266.79 239.561 267.31V272H237.861ZM242.428 276.37V261.38H244.128V276.37H242.428ZM247.618 272.2C246.798 272.2 246.031 272 245.318 271.6C244.604 271.193 244.024 270.637 243.578 269.93C243.138 269.223 242.918 268.417 242.918 267.51C242.918 267.49 242.918 267.473 242.918 267.46C242.918 267.447 242.918 267.43 242.918 267.41L244.138 267.38C244.138 267.393 244.138 267.41 244.138 267.43C244.138 267.443 244.138 267.457 244.138 267.47C244.138 268.043 244.288 268.567 244.588 269.04C244.894 269.513 245.294 269.89 245.788 270.17C246.281 270.45 246.811 270.59 247.378 270.59C248.318 270.59 249.098 270.27 249.718 269.63C250.344 268.983 250.658 268 250.658 266.68C250.658 265.353 250.348 264.373 249.728 263.74C249.108 263.1 248.324 262.78 247.378 262.78C246.811 262.78 246.281 262.92 245.788 263.2C245.294 263.473 244.894 263.843 244.588 264.31C244.288 264.777 244.138 265.3 244.138 265.88L242.918 265.84C242.918 264.927 243.138 264.123 243.578 263.43C244.024 262.737 244.604 262.197 245.318 261.81C246.031 261.417 246.798 261.22 247.618 261.22C248.478 261.22 249.271 261.433 249.998 261.86C250.724 262.28 251.308 262.897 251.748 263.71C252.188 264.523 252.408 265.513 252.408 266.68C252.408 267.867 252.191 268.873 251.758 269.7C251.324 270.52 250.744 271.143 250.018 271.57C249.291 271.99 248.491 272.2 247.618 272.2ZM260.006 272.19C258.939 272.19 257.996 271.953 257.176 271.48C256.363 271 255.723 270.347 255.256 269.52C254.796 268.687 254.566 267.74 254.566 266.68C254.566 265.62 254.796 264.68 255.256 263.86C255.723 263.04 256.363 262.397 257.176 261.93C257.996 261.463 258.939 261.23 260.006 261.23C261.073 261.23 262.013 261.463 262.826 261.93C263.646 262.397 264.286 263.04 264.746 263.86C265.213 264.68 265.446 265.62 265.446 266.68C265.446 267.74 265.213 268.687 264.746 269.52C264.286 270.347 263.646 271 262.826 271.48C262.013 271.953 261.073 272.19 260.006 272.19ZM260.006 270.63C260.739 270.63 261.386 270.467 261.946 270.14C262.506 269.813 262.943 269.353 263.256 268.76C263.576 268.167 263.736 267.473 263.736 266.68C263.736 265.887 263.576 265.2 263.256 264.62C262.943 264.033 262.506 263.583 261.946 263.27C261.386 262.95 260.739 262.79 260.006 262.79C259.279 262.79 258.633 262.95 258.066 263.27C257.506 263.583 257.066 264.033 256.746 264.62C256.433 265.2 256.276 265.887 256.276 266.68C256.276 267.473 256.433 268.167 256.746 268.76C257.066 269.353 257.506 269.813 258.066 270.14C258.633 270.467 259.279 270.63 260.006 270.63ZM268.013 272V261.38H269.713V264.64L269.153 264.44C269.193 264.047 269.293 263.66 269.453 263.28C269.613 262.893 269.833 262.547 270.113 262.24C270.399 261.927 270.756 261.68 271.183 261.5C271.609 261.313 272.109 261.22 272.683 261.22C273.109 261.22 273.456 261.257 273.723 261.33C273.996 261.397 274.166 261.45 274.233 261.49L273.793 263.16C273.726 263.113 273.589 263.053 273.383 262.98C273.183 262.907 272.896 262.87 272.523 262.87C271.969 262.87 271.509 262.97 271.143 263.17C270.783 263.37 270.496 263.637 270.283 263.97C270.076 264.297 269.929 264.653 269.843 265.04C269.756 265.427 269.713 265.81 269.713 266.19V272H268.013ZM280.171 272.16C279.845 272.16 279.525 272.123 279.211 272.05C278.898 271.977 278.615 271.847 278.361 271.66C278.115 271.467 277.918 271.197 277.771 270.85C277.625 270.497 277.551 270.043 277.551 269.49C277.551 269.35 277.551 269.207 277.551 269.06C277.551 268.907 277.551 268.747 277.551 268.58V262.88H274.961V261.38H276.621C276.848 261.38 277.025 261.373 277.151 261.36C277.278 261.34 277.368 261.297 277.421 261.23C277.481 261.157 277.518 261.047 277.531 260.9C277.545 260.747 277.551 260.537 277.551 260.27V257.86H279.261V261.38H282.581V262.88H279.261V268.03C279.261 268.177 279.261 268.32 279.261 268.46C279.261 268.6 279.261 268.73 279.261 268.85C279.261 269.417 279.328 269.86 279.461 270.18C279.601 270.5 279.911 270.66 280.391 270.66C280.585 270.66 280.768 270.643 280.941 270.61C281.115 270.577 281.245 270.543 281.331 270.51V271.99C281.218 272.03 281.058 272.067 280.851 272.1C280.651 272.14 280.425 272.16 280.171 272.16ZM288.031 272.2C287.224 272.2 286.517 272.073 285.911 271.82C285.311 271.567 284.844 271.203 284.511 270.73C284.177 270.25 284.011 269.677 284.011 269.01C284.011 268.317 284.191 267.74 284.551 267.28C284.911 266.813 285.417 266.45 286.071 266.19C286.724 265.93 287.484 265.757 288.351 265.67C289.657 265.537 290.587 265.407 291.141 265.28C291.694 265.147 291.971 264.933 291.971 264.64C291.971 264.633 291.971 264.63 291.971 264.63C291.971 264.623 291.971 264.617 291.971 264.61C291.971 263.997 291.721 263.54 291.221 263.24C290.721 262.933 289.997 262.78 289.051 262.78C288.064 262.78 287.297 262.953 286.751 263.3C286.204 263.64 285.931 264.193 285.931 264.96H284.251C284.251 264.167 284.454 263.493 284.861 262.94C285.267 262.38 285.831 261.953 286.551 261.66C287.277 261.367 288.114 261.22 289.061 261.22C289.927 261.22 290.707 261.353 291.401 261.62C292.101 261.88 292.654 262.27 293.061 262.79C293.474 263.303 293.681 263.94 293.681 264.7C293.681 264.84 293.681 264.98 293.681 265.12C293.681 265.253 293.681 265.39 293.681 265.53V270C293.681 270.233 293.691 270.46 293.711 270.68C293.731 270.9 293.764 271.093 293.811 271.26C293.871 271.46 293.937 271.623 294.011 271.75C294.084 271.87 294.144 271.953 294.191 272H292.481C292.447 271.967 292.397 271.89 292.331 271.77C292.264 271.643 292.201 271.497 292.141 271.33C292.094 271.197 292.057 271.03 292.031 270.83C292.004 270.623 291.991 270.41 291.991 270.19L292.271 270.38C292.064 270.74 291.761 271.057 291.361 271.33C290.967 271.603 290.491 271.817 289.931 271.97C289.371 272.123 288.737 272.2 288.031 272.2ZM288.301 270.67C288.987 270.67 289.607 270.567 290.161 270.36C290.714 270.147 291.154 269.833 291.481 269.42C291.807 269.007 291.971 268.493 291.971 267.88V265.77L292.351 266.41C291.924 266.577 291.391 266.713 290.751 266.82C290.117 266.92 289.454 267.003 288.761 267.07C287.754 267.163 286.994 267.34 286.481 267.6C285.974 267.86 285.721 268.297 285.721 268.91C285.721 269.49 285.931 269.93 286.351 270.23C286.771 270.523 287.421 270.67 288.301 270.67ZM300.8 272.2C299.926 272.2 299.126 271.99 298.4 271.57C297.673 271.143 297.093 270.52 296.66 269.7C296.226 268.873 296.01 267.867 296.01 266.68C296.01 265.513 296.23 264.523 296.67 263.71C297.11 262.897 297.693 262.28 298.42 261.86C299.146 261.433 299.94 261.22 300.8 261.22C301.62 261.22 302.386 261.417 303.1 261.81C303.82 262.197 304.4 262.737 304.84 263.43C305.28 264.123 305.5 264.927 305.5 265.84C305.5 265.86 305.5 265.88 305.5 265.9C305.5 265.92 305.5 265.94 305.5 265.96L304.28 266.01C304.28 265.99 304.28 265.97 304.28 265.95C304.28 265.923 304.28 265.9 304.28 265.88C304.28 265.3 304.126 264.777 303.82 264.31C303.52 263.843 303.123 263.473 302.63 263.2C302.136 262.92 301.606 262.78 301.04 262.78C300.093 262.78 299.31 263.1 298.69 263.74C298.07 264.373 297.76 265.353 297.76 266.68C297.76 268 298.07 268.983 298.69 269.63C299.316 270.27 300.1 270.59 301.04 270.59C301.633 270.59 302.173 270.447 302.66 270.16C303.153 269.873 303.546 269.49 303.84 269.01C304.133 268.523 304.28 267.98 304.28 267.38L305.5 267.41C305.5 268.317 305.29 269.133 304.87 269.86C304.45 270.58 303.883 271.15 303.17 271.57C302.463 271.99 301.673 272.2 300.8 272.2ZM304.28 272V256.37H305.99V272H304.28ZM313.92 272.19C312.853 272.19 311.91 271.953 311.09 271.48C310.277 271 309.637 270.347 309.17 269.52C308.71 268.687 308.48 267.74 308.48 266.68C308.48 265.62 308.71 264.68 309.17 263.86C309.637 263.04 310.277 262.397 311.09 261.93C311.91 261.463 312.853 261.23 313.92 261.23C314.987 261.23 315.927 261.463 316.74 261.93C317.56 262.397 318.2 263.04 318.66 263.86C319.127 264.68 319.36 265.62 319.36 266.68C319.36 267.74 319.127 268.687 318.66 269.52C318.2 270.347 317.56 271 316.74 271.48C315.927 271.953 314.987 272.19 313.92 272.19ZM313.92 270.63C314.653 270.63 315.3 270.467 315.86 270.14C316.42 269.813 316.857 269.353 317.17 268.76C317.49 268.167 317.65 267.473 317.65 266.68C317.65 265.887 317.49 265.2 317.17 264.62C316.857 264.033 316.42 263.583 315.86 263.27C315.3 262.95 314.653 262.79 313.92 262.79C313.193 262.79 312.547 262.95 311.98 263.27C311.42 263.583 310.98 264.033 310.66 264.62C310.347 265.2 310.19 265.887 310.19 266.68C310.19 267.473 310.347 268.167 310.66 268.76C310.98 269.353 311.42 269.813 311.98 270.14C312.547 270.467 313.193 270.63 313.92 270.63ZM325.987 272.2C325.347 272.2 324.753 272.133 324.207 272C323.667 271.86 323.193 271.66 322.787 271.4C322.387 271.133 322.073 270.807 321.847 270.42C321.627 270.033 321.517 269.59 321.517 269.09C321.517 269.037 321.517 268.983 321.517 268.93C321.517 268.87 321.517 268.82 321.517 268.78H323.227C323.227 268.82 323.227 268.853 323.227 268.88C323.227 268.907 323.227 268.947 323.227 269C323.227 269.54 323.477 269.953 323.977 270.24C324.477 270.52 325.16 270.66 326.027 270.66C326.56 270.66 327.037 270.607 327.457 270.5C327.877 270.393 328.207 270.23 328.447 270.01C328.693 269.79 328.817 269.513 328.817 269.18C328.817 268.627 328.557 268.233 328.037 268C327.523 267.76 326.753 267.553 325.727 267.38C325.187 267.287 324.673 267.167 324.187 267.02C323.7 266.867 323.267 266.67 322.887 266.43C322.513 266.19 322.217 265.893 321.997 265.54C321.783 265.18 321.677 264.75 321.677 264.25C321.677 263.603 321.867 263.057 322.247 262.61C322.633 262.157 323.153 261.813 323.807 261.58C324.46 261.34 325.187 261.22 325.987 261.22C326.76 261.22 327.473 261.343 328.127 261.59C328.78 261.837 329.303 262.197 329.697 262.67C330.097 263.137 330.297 263.713 330.297 264.4C330.297 264.427 330.297 264.46 330.297 264.5C330.297 264.533 330.297 264.567 330.297 264.6H328.597C328.597 264.567 328.597 264.54 328.597 264.52C328.597 264.5 328.597 264.477 328.597 264.45C328.597 264.063 328.473 263.747 328.227 263.5C327.98 263.247 327.66 263.06 327.267 262.94C326.873 262.813 326.453 262.75 326.007 262.75C325.587 262.75 325.173 262.797 324.767 262.89C324.36 262.977 324.023 263.123 323.757 263.33C323.49 263.537 323.357 263.82 323.357 264.18C323.357 264.54 323.48 264.83 323.727 265.05C323.98 265.263 324.333 265.44 324.787 265.58C325.247 265.713 325.787 265.837 326.407 265.95C326.96 266.05 327.483 266.177 327.977 266.33C328.47 266.477 328.903 266.667 329.277 266.9C329.657 267.133 329.953 267.43 330.167 267.79C330.387 268.143 330.497 268.577 330.497 269.09C330.497 269.61 330.377 270.063 330.137 270.45C329.903 270.837 329.577 271.16 329.157 271.42C328.743 271.68 328.263 271.873 327.717 272C327.177 272.133 326.6 272.2 325.987 272.2Z" fill="white"/>
<defs>
<linearGradient id="paint0_linear_367_2264" x1="150.5" y1="127" x2="16.5" y2="344.5" gradientUnits="userSpaceOnUse">
<stop stop-color="#FF500B"/>
<stop offset="1" stop-color="#880F0C"/>
</linearGradient>
<linearGradient id="paint1_linear_367_2264" x1="598.508" y1="160.503" x2="598.508" y2="258" gradientUnits="userSpaceOnUse">
<stop stop-color="white"/>
<stop offset="1" stop-color="#FF500B" stop-opacity="0"/>
</linearGradient>
<linearGradient id="paint2_linear_367_2264" x1="599.506" y1="33.7837" x2="599.506" y2="88.3753" gradientUnits="userSpaceOnUse">
<stop stop-color="white"/>
<stop offset="1" stop-color="#FF500B" stop-opacity="0"/>
</linearGradient>
<linearGradient id="paint3_linear_367_2264" x1="541.671" y1="88.3755" x2="541.671" y2="142.967" gradientUnits="userSpaceOnUse">
<stop stop-color="white"/>
<stop offset="1" stop-color="#FF500B" stop-opacity="0"/>
</linearGradient>
<linearGradient id="paint4_linear_367_2264" x1="599.506" y1="88.3755" x2="599.506" y2="142.967" gradientUnits="userSpaceOnUse">
<stop stop-color="white"/>
<stop offset="1" stop-color="#FF500B" stop-opacity="0"/>
</linearGradient>
<linearGradient id="paint5_linear_367_2264" x1="657.342" y1="88.3755" x2="657.342" y2="142.967" gradientUnits="userSpaceOnUse">
<stop stop-color="white"/>
<stop offset="1" stop-color="#FF500B" stop-opacity="0"/>
</linearGradient>
<linearGradient id="paint6_linear_367_2264" x1="630.715" y1="142.967" x2="630.715" y2="179.788" gradientUnits="userSpaceOnUse">
<stop stop-color="#D9D9D9"/>
<stop offset="1" stop-color="#FF500B" stop-opacity="0"/>
</linearGradient>
<linearGradient id="paint7_linear_367_2264" x1="688.551" y1="142.967" x2="688.551" y2="197.57" gradientUnits="userSpaceOnUse">
<stop stop-color="white"/>
<stop offset="1" stop-color="#FF500B" stop-opacity="0"/>
</linearGradient>
<linearGradient id="paint8_linear_367_2264" x1="572.879" y1="142.967" x2="572.879" y2="177.706" gradientUnits="userSpaceOnUse">
<stop stop-color="white"/>
<stop offset="1" stop-color="#FF500B" stop-opacity="0"/>
</linearGradient>
<linearGradient id="paint9_linear_367_2264" x1="515.044" y1="142.967" x2="515.044" y2="180" gradientUnits="userSpaceOnUse">
<stop stop-color="white"/>
<stop offset="1" stop-color="#FF500B" stop-opacity="0"/>
</linearGradient>
</defs>
</svg>
