<svg width="555" height="317" viewBox="0 0 555 317" fill="none" xmlns="http://www.w3.org/2000/svg">
<rect width="555" height="317" rx="10" fill="#FF500B"/>
<mask id="mask0_367_2266" style="mask-type:alpha" maskUnits="userSpaceOnUse" x="0" y="0" width="555" height="317">
<rect width="555" height="317" rx="10" fill="#FF500B"/>
</mask>
<g mask="url(#mask0_367_2266)">
<g filter="url(#filter0_f_367_2266)">
<circle cx="773" cy="159" r="245" fill="white"/>
</g>
<g filter="url(#filter1_f_367_2266)">
<path d="M-94.861 57.4411C-217.327 81.1046 -324.836 57.6915 -334.989 5.14659C-345.142 -47.3984 -254.094 -109.177 -131.628 -132.841C-9.16185 -156.504 98.3473 -133.091 108.5 -80.5465C118.653 -28.0015 27.6053 33.7776 -94.861 57.4411Z" fill="white"/>
</g>
</g>
<path d="M134.522 213V189C134.522 183.987 135.322 179.613 136.922 175.88C138.629 172.147 141.295 168.84 144.922 165.96C148.549 162.973 153.349 160.2 159.322 157.64L178.202 149.48C183.002 147.453 186.522 144.947 188.762 141.96C191.109 138.973 192.282 135.187 192.282 130.6C192.282 125.907 190.842 122.067 187.962 119.08C185.082 116.093 180.869 114.6 175.322 114.6C169.775 114.6 165.562 116.147 162.682 119.24C159.802 122.333 158.362 126.493 158.362 131.72H132.922C132.922 124.36 134.522 117.747 137.722 111.88C140.922 105.907 145.669 101.213 151.962 97.8C158.255 94.3867 166.042 92.68 175.322 92.68C184.602 92.68 192.335 94.3333 198.522 97.64C204.815 100.947 209.562 105.373 212.762 110.92C216.069 116.467 217.722 122.707 217.722 129.64V131.56C217.722 140.52 215.269 147.933 210.362 153.8C205.455 159.56 197.882 164.68 187.642 169.16L168.922 177.32C165.722 178.707 163.429 180.147 162.042 181.64C160.762 183.133 160.122 185.16 160.122 187.72V195.72L153.882 190.44H217.882V213H134.522ZM267.136 216.04C257.856 216.04 249.909 214.547 243.296 211.56C236.682 208.467 231.296 204.307 227.136 199.08C223.082 193.853 220.042 187.827 218.016 181C216.096 174.067 215.136 166.76 215.136 159.08V149.96C215.136 139.293 217.002 129.64 220.736 121C224.469 112.36 230.176 105.48 237.856 100.36C245.536 95.24 255.296 92.68 267.136 92.68C278.976 92.68 288.682 95.24 296.256 100.36C303.936 105.48 309.642 112.36 313.376 121C317.109 129.64 318.976 139.293 318.976 149.96V159.08C318.976 166.76 317.962 174.067 315.936 181C314.016 187.827 310.976 193.853 306.816 199.08C302.762 204.307 297.429 208.467 290.816 211.56C284.309 214.547 276.416 216.04 267.136 216.04ZM267.136 191.88C275.776 191.88 282.176 188.893 286.336 182.92C290.602 176.84 292.736 167.453 292.736 154.76C292.736 141.32 290.549 131.667 286.176 125.8C281.909 119.827 275.562 116.84 267.136 116.84C258.496 116.84 252.042 119.827 247.776 125.8C243.509 131.667 241.376 141.213 241.376 154.44C241.376 167.24 243.456 176.68 247.616 182.76C251.882 188.84 258.389 191.88 267.136 191.88ZM369.167 216.04C359.887 216.04 351.94 214.547 345.327 211.56C338.714 208.467 333.327 204.307 329.167 199.08C325.114 193.853 322.074 187.827 320.047 181C318.127 174.067 317.167 166.76 317.167 159.08V149.96C317.167 139.293 319.034 129.64 322.767 121C326.5 112.36 332.207 105.48 339.887 100.36C347.567 95.24 357.327 92.68 369.167 92.68C381.007 92.68 390.714 95.24 398.287 100.36C405.967 105.48 411.674 112.36 415.407 121C419.14 129.64 421.007 139.293 421.007 149.96V159.08C421.007 166.76 419.994 174.067 417.967 181C416.047 187.827 413.007 193.853 408.847 199.08C404.794 204.307 399.46 208.467 392.847 211.56C386.34 214.547 378.447 216.04 369.167 216.04ZM369.167 191.88C377.807 191.88 384.207 188.893 388.367 182.92C392.634 176.84 394.767 167.453 394.767 154.76C394.767 141.32 392.58 131.667 388.207 125.8C383.94 119.827 377.594 116.84 369.167 116.84C360.527 116.84 354.074 119.827 349.807 125.8C345.54 131.667 343.407 141.213 343.407 154.44C343.407 167.24 345.487 176.68 349.647 182.76C353.914 188.84 360.42 191.88 369.167 191.88Z" fill="white"/>
<path d="M148.57 252.2C147.557 252.2 146.637 251.98 145.81 251.54C144.983 251.093 144.327 250.457 143.84 249.63C143.36 248.803 143.12 247.82 143.12 246.68C143.12 245.54 143.36 244.563 143.84 243.75C144.327 242.93 144.983 242.303 145.81 241.87C146.637 241.437 147.557 241.22 148.57 241.22C149.343 241.22 150.033 241.34 150.64 241.58C151.247 241.813 151.76 242.127 152.18 242.52C152.6 242.913 152.92 243.347 153.14 243.82C153.367 244.287 153.48 244.753 153.48 245.22C153.48 245.227 153.48 245.237 153.48 245.25C153.48 245.263 153.48 245.277 153.48 245.29H151.79C151.79 245.257 151.787 245.22 151.78 245.18C151.773 245.133 151.767 245.087 151.76 245.04C151.707 244.593 151.537 244.203 151.25 243.87C150.963 243.53 150.59 243.263 150.13 243.07C149.67 242.877 149.147 242.78 148.56 242.78C147.9 242.78 147.287 242.923 146.72 243.21C146.16 243.49 145.707 243.92 145.36 244.5C145.02 245.073 144.85 245.8 144.85 246.68C144.85 247.553 145.02 248.283 145.36 248.87C145.7 249.457 146.15 249.9 146.71 250.2C147.277 250.493 147.893 250.64 148.56 250.64C149.28 250.64 149.873 250.527 150.34 250.3C150.807 250.073 151.157 249.773 151.39 249.4C151.63 249.02 151.763 248.613 151.79 248.18H153.48C153.48 248.66 153.373 249.14 153.16 249.62C152.947 250.093 152.633 250.527 152.22 250.92C151.807 251.307 151.293 251.617 150.68 251.85C150.073 252.083 149.37 252.2 148.57 252.2ZM161.07 252.19C160.003 252.19 159.06 251.953 158.24 251.48C157.427 251 156.787 250.347 156.32 249.52C155.86 248.687 155.63 247.74 155.63 246.68C155.63 245.62 155.86 244.68 156.32 243.86C156.787 243.04 157.427 242.397 158.24 241.93C159.06 241.463 160.003 241.23 161.07 241.23C162.137 241.23 163.077 241.463 163.89 241.93C164.71 242.397 165.35 243.04 165.81 243.86C166.277 244.68 166.51 245.62 166.51 246.68C166.51 247.74 166.277 248.687 165.81 249.52C165.35 250.347 164.71 251 163.89 251.48C163.077 251.953 162.137 252.19 161.07 252.19ZM161.07 250.63C161.803 250.63 162.45 250.467 163.01 250.14C163.57 249.813 164.007 249.353 164.32 248.76C164.64 248.167 164.8 247.473 164.8 246.68C164.8 245.887 164.64 245.2 164.32 244.62C164.007 244.033 163.57 243.583 163.01 243.27C162.45 242.95 161.803 242.79 161.07 242.79C160.343 242.79 159.697 242.95 159.13 243.27C158.57 243.583 158.13 244.033 157.81 244.62C157.497 245.2 157.34 245.887 157.34 246.68C157.34 247.473 157.497 248.167 157.81 248.76C158.13 249.353 158.57 249.813 159.13 250.14C159.697 250.467 160.343 250.63 161.07 250.63ZM176.677 252V246.91C176.677 246.603 176.677 246.353 176.677 246.16C176.677 245.96 176.677 245.77 176.677 245.59C176.677 245.037 176.584 244.553 176.397 244.14C176.211 243.727 175.917 243.407 175.517 243.18C175.117 242.953 174.594 242.84 173.947 242.84C173.381 242.84 172.854 242.987 172.367 243.28C171.887 243.567 171.501 243.957 171.207 244.45C170.921 244.937 170.777 245.483 170.777 246.09L169.807 245.72C169.807 244.887 170.011 244.13 170.417 243.45C170.831 242.77 171.377 242.23 172.057 241.83C172.744 241.423 173.491 241.22 174.297 241.22C175.117 241.22 175.834 241.377 176.447 241.69C177.061 242.003 177.534 242.453 177.867 243.04C178.207 243.62 178.377 244.32 178.377 245.14C178.377 245.433 178.377 245.753 178.377 246.1C178.377 246.447 178.377 246.77 178.377 247.07V252H176.677ZM169.077 252V241.38H170.777V252H169.077ZM185.162 252.16C184.836 252.16 184.516 252.123 184.202 252.05C183.889 251.977 183.606 251.847 183.352 251.66C183.106 251.467 182.909 251.197 182.762 250.85C182.616 250.497 182.542 250.043 182.542 249.49C182.542 249.35 182.542 249.207 182.542 249.06C182.542 248.907 182.542 248.747 182.542 248.58V242.88H179.952V241.38H181.612C181.839 241.38 182.016 241.373 182.142 241.36C182.269 241.34 182.359 241.297 182.412 241.23C182.472 241.157 182.509 241.047 182.522 240.9C182.536 240.747 182.542 240.537 182.542 240.27V237.86H184.252V241.38H187.572V242.88H184.252V248.03C184.252 248.177 184.252 248.32 184.252 248.46C184.252 248.6 184.252 248.73 184.252 248.85C184.252 249.417 184.319 249.86 184.452 250.18C184.592 250.5 184.902 250.66 185.382 250.66C185.576 250.66 185.759 250.643 185.932 250.61C186.106 250.577 186.236 250.543 186.322 250.51V251.99C186.209 252.03 186.049 252.067 185.842 252.1C185.642 252.14 185.416 252.16 185.162 252.16ZM189.862 247.37V245.85H198.072L197.772 246.35C197.772 246.31 197.772 246.273 197.772 246.24C197.772 246.2 197.772 246.163 197.772 246.13C197.772 245.517 197.642 244.957 197.382 244.45C197.129 243.937 196.749 243.527 196.242 243.22C195.736 242.913 195.109 242.76 194.362 242.76C193.609 242.76 192.946 242.92 192.372 243.24C191.799 243.56 191.352 244.013 191.032 244.6C190.712 245.18 190.552 245.873 190.552 246.68C190.552 247.5 190.706 248.207 191.012 248.8C191.326 249.393 191.769 249.85 192.342 250.17C192.916 250.49 193.596 250.65 194.382 250.65C194.942 250.65 195.429 250.593 195.842 250.48C196.256 250.36 196.596 250.203 196.862 250.01C197.136 249.81 197.342 249.593 197.482 249.36C197.622 249.127 197.706 248.893 197.732 248.66H199.432C199.399 249.087 199.266 249.51 199.032 249.93C198.799 250.35 198.469 250.733 198.042 251.08C197.616 251.42 197.092 251.693 196.472 251.9C195.852 252.107 195.139 252.21 194.332 252.21C193.266 252.21 192.326 251.977 191.512 251.51C190.699 251.043 190.059 250.397 189.592 249.57C189.132 248.743 188.902 247.793 188.902 246.72C188.902 245.633 189.136 244.68 189.602 243.86C190.069 243.033 190.712 242.387 191.532 241.92C192.352 241.453 193.289 241.22 194.342 241.22C195.416 241.22 196.346 241.453 197.132 241.92C197.919 242.387 198.526 243.027 198.952 243.84C199.379 244.647 199.592 245.567 199.592 246.6C199.592 246.707 199.589 246.847 199.582 247.02C199.576 247.193 199.566 247.31 199.552 247.37H189.862ZM209.754 252V246.91C209.754 246.603 209.754 246.353 209.754 246.16C209.754 245.96 209.754 245.77 209.754 245.59C209.754 245.037 209.661 244.553 209.474 244.14C209.288 243.727 208.994 243.407 208.594 243.18C208.194 242.953 207.671 242.84 207.024 242.84C206.458 242.84 205.931 242.987 205.444 243.28C204.964 243.567 204.578 243.957 204.284 244.45C203.998 244.937 203.854 245.483 203.854 246.09L202.884 245.72C202.884 244.887 203.088 244.13 203.494 243.45C203.908 242.77 204.454 242.23 205.134 241.83C205.821 241.423 206.568 241.22 207.374 241.22C208.194 241.22 208.911 241.377 209.524 241.69C210.138 242.003 210.611 242.453 210.944 243.04C211.284 243.62 211.454 244.32 211.454 245.14C211.454 245.433 211.454 245.753 211.454 246.1C211.454 246.447 211.454 246.77 211.454 247.07V252H209.754ZM202.154 252V241.38H203.854V252H202.154ZM214.882 247.37V245.85H223.092L222.792 246.35C222.792 246.31 222.792 246.273 222.792 246.24C222.792 246.2 222.792 246.163 222.792 246.13C222.792 245.517 222.662 244.957 222.402 244.45C222.149 243.937 221.769 243.527 221.262 243.22C220.756 242.913 220.129 242.76 219.382 242.76C218.629 242.76 217.966 242.92 217.392 243.24C216.819 243.56 216.372 244.013 216.052 244.6C215.732 245.18 215.572 245.873 215.572 246.68C215.572 247.5 215.726 248.207 216.032 248.8C216.346 249.393 216.789 249.85 217.362 250.17C217.936 250.49 218.616 250.65 219.402 250.65C219.962 250.65 220.449 250.593 220.862 250.48C221.276 250.36 221.616 250.203 221.882 250.01C222.156 249.81 222.362 249.593 222.502 249.36C222.642 249.127 222.726 248.893 222.752 248.66H224.452C224.419 249.087 224.286 249.51 224.052 249.93C223.819 250.35 223.489 250.733 223.062 251.08C222.636 251.42 222.112 251.693 221.492 251.9C220.872 252.107 220.159 252.21 219.352 252.21C218.286 252.21 217.346 251.977 216.532 251.51C215.719 251.043 215.079 250.397 214.612 249.57C214.152 248.743 213.922 247.793 213.922 246.72C213.922 245.633 214.156 244.68 214.622 243.86C215.089 243.033 215.732 242.387 216.552 241.92C217.372 241.453 218.309 241.22 219.362 241.22C220.436 241.22 221.366 241.453 222.152 241.92C222.939 242.387 223.546 243.027 223.972 243.84C224.399 244.647 224.612 245.567 224.612 246.6C224.612 246.707 224.609 246.847 224.602 247.02C224.596 247.193 224.586 247.31 224.572 247.37H214.882ZM231.554 252.2C230.681 252.2 229.881 251.99 229.154 251.57C228.428 251.143 227.848 250.52 227.414 249.7C226.981 248.873 226.764 247.867 226.764 246.68C226.764 245.513 226.984 244.523 227.424 243.71C227.864 242.897 228.448 242.28 229.174 241.86C229.901 241.433 230.694 241.22 231.554 241.22C232.374 241.22 233.141 241.417 233.854 241.81C234.574 242.197 235.154 242.737 235.594 243.43C236.034 244.123 236.254 244.927 236.254 245.84C236.254 245.86 236.254 245.88 236.254 245.9C236.254 245.92 236.254 245.94 236.254 245.96L235.034 246.01C235.034 245.99 235.034 245.97 235.034 245.95C235.034 245.923 235.034 245.9 235.034 245.88C235.034 245.3 234.881 244.777 234.574 244.31C234.274 243.843 233.878 243.473 233.384 243.2C232.891 242.92 232.361 242.78 231.794 242.78C230.848 242.78 230.064 243.1 229.444 243.74C228.824 244.373 228.514 245.353 228.514 246.68C228.514 248 228.824 248.983 229.444 249.63C230.071 250.27 230.854 250.59 231.794 250.59C232.388 250.59 232.928 250.447 233.414 250.16C233.908 249.873 234.301 249.49 234.594 249.01C234.888 248.523 235.034 247.98 235.034 247.38L236.254 247.41C236.254 248.317 236.044 249.133 235.624 249.86C235.204 250.58 234.638 251.15 233.924 251.57C233.218 251.99 232.428 252.2 231.554 252.2ZM235.034 252V236.37H236.744V252H235.034ZM244.675 252.19C243.609 252.19 242.665 251.953 241.845 251.48C241.032 251 240.392 250.347 239.925 249.52C239.465 248.687 239.235 247.74 239.235 246.68C239.235 245.62 239.465 244.68 239.925 243.86C240.392 243.04 241.032 242.397 241.845 241.93C242.665 241.463 243.609 241.23 244.675 241.23C245.742 241.23 246.682 241.463 247.495 241.93C248.315 242.397 248.955 243.04 249.415 243.86C249.882 244.68 250.115 245.62 250.115 246.68C250.115 247.74 249.882 248.687 249.415 249.52C248.955 250.347 248.315 251 247.495 251.48C246.682 251.953 245.742 252.19 244.675 252.19ZM244.675 250.63C245.409 250.63 246.055 250.467 246.615 250.14C247.175 249.813 247.612 249.353 247.925 248.76C248.245 248.167 248.405 247.473 248.405 246.68C248.405 245.887 248.245 245.2 247.925 244.62C247.612 244.033 247.175 243.583 246.615 243.27C246.055 242.95 245.409 242.79 244.675 242.79C243.949 242.79 243.302 242.95 242.735 243.27C242.175 243.583 241.735 244.033 241.415 244.62C241.102 245.2 240.945 245.887 240.945 246.68C240.945 247.473 241.102 248.167 241.415 248.76C241.735 249.353 242.175 249.813 242.735 250.14C243.302 250.467 243.949 250.63 244.675 250.63ZM252.683 252V241.38H254.383V244.64L253.823 244.44C253.863 244.047 253.963 243.66 254.123 243.28C254.283 242.893 254.503 242.547 254.783 242.24C255.069 241.927 255.426 241.68 255.853 241.5C256.279 241.313 256.779 241.22 257.353 241.22C257.779 241.22 258.126 241.257 258.393 241.33C258.666 241.397 258.836 241.45 258.903 241.49L258.463 243.16C258.396 243.113 258.259 243.053 258.053 242.98C257.853 242.907 257.566 242.87 257.193 242.87C256.639 242.87 256.179 242.97 255.813 243.17C255.453 243.37 255.166 243.637 254.953 243.97C254.746 244.297 254.599 244.653 254.513 245.04C254.426 245.427 254.383 245.81 254.383 246.19V252H252.683ZM260.997 247.37V245.85H269.207L268.907 246.35C268.907 246.31 268.907 246.273 268.907 246.24C268.907 246.2 268.907 246.163 268.907 246.13C268.907 245.517 268.777 244.957 268.517 244.45C268.263 243.937 267.883 243.527 267.377 243.22C266.87 242.913 266.243 242.76 265.497 242.76C264.743 242.76 264.08 242.92 263.507 243.24C262.933 243.56 262.487 244.013 262.167 244.6C261.847 245.18 261.687 245.873 261.687 246.68C261.687 247.5 261.84 248.207 262.147 248.8C262.46 249.393 262.903 249.85 263.477 250.17C264.05 250.49 264.73 250.65 265.517 250.65C266.077 250.65 266.563 250.593 266.977 250.48C267.39 250.36 267.73 250.203 267.997 250.01C268.27 249.81 268.477 249.593 268.617 249.36C268.757 249.127 268.84 248.893 268.867 248.66H270.567C270.533 249.087 270.4 249.51 270.167 249.93C269.933 250.35 269.603 250.733 269.177 251.08C268.75 251.42 268.227 251.693 267.607 251.9C266.987 252.107 266.273 252.21 265.467 252.21C264.4 252.21 263.46 251.977 262.647 251.51C261.833 251.043 261.193 250.397 260.727 249.57C260.267 248.743 260.037 247.793 260.037 246.72C260.037 245.633 260.27 244.68 260.737 243.86C261.203 243.033 261.847 242.387 262.667 241.92C263.487 241.453 264.423 241.22 265.477 241.22C266.55 241.22 267.48 241.453 268.267 241.92C269.053 242.387 269.66 243.027 270.087 243.84C270.513 244.647 270.727 245.567 270.727 246.6C270.727 246.707 270.723 246.847 270.717 247.02C270.71 247.193 270.7 247.31 270.687 247.37H260.997ZM277.349 252.2C276.709 252.2 276.115 252.133 275.569 252C275.029 251.86 274.555 251.66 274.149 251.4C273.749 251.133 273.435 250.807 273.209 250.42C272.989 250.033 272.879 249.59 272.879 249.09C272.879 249.037 272.879 248.983 272.879 248.93C272.879 248.87 272.879 248.82 272.879 248.78H274.589C274.589 248.82 274.589 248.853 274.589 248.88C274.589 248.907 274.589 248.947 274.589 249C274.589 249.54 274.839 249.953 275.339 250.24C275.839 250.52 276.522 250.66 277.389 250.66C277.922 250.66 278.399 250.607 278.819 250.5C279.239 250.393 279.569 250.23 279.809 250.01C280.055 249.79 280.179 249.513 280.179 249.18C280.179 248.627 279.919 248.233 279.399 248C278.885 247.76 278.115 247.553 277.089 247.38C276.549 247.287 276.035 247.167 275.549 247.02C275.062 246.867 274.629 246.67 274.249 246.43C273.875 246.19 273.579 245.893 273.359 245.54C273.145 245.18 273.039 244.75 273.039 244.25C273.039 243.603 273.229 243.057 273.609 242.61C273.995 242.157 274.515 241.813 275.169 241.58C275.822 241.34 276.549 241.22 277.349 241.22C278.122 241.22 278.835 241.343 279.489 241.59C280.142 241.837 280.665 242.197 281.059 242.67C281.459 243.137 281.659 243.713 281.659 244.4C281.659 244.427 281.659 244.46 281.659 244.5C281.659 244.533 281.659 244.567 281.659 244.6H279.959C279.959 244.567 279.959 244.54 279.959 244.52C279.959 244.5 279.959 244.477 279.959 244.45C279.959 244.063 279.835 243.747 279.589 243.5C279.342 243.247 279.022 243.06 278.629 242.94C278.235 242.813 277.815 242.75 277.369 242.75C276.949 242.75 276.535 242.797 276.129 242.89C275.722 242.977 275.385 243.123 275.119 243.33C274.852 243.537 274.719 243.82 274.719 244.18C274.719 244.54 274.842 244.83 275.089 245.05C275.342 245.263 275.695 245.44 276.149 245.58C276.609 245.713 277.149 245.837 277.769 245.95C278.322 246.05 278.845 246.177 279.339 246.33C279.832 246.477 280.265 246.667 280.639 246.9C281.019 247.133 281.315 247.43 281.529 247.79C281.749 248.143 281.859 248.577 281.859 249.09C281.859 249.61 281.739 250.063 281.499 250.45C281.265 250.837 280.939 251.16 280.519 251.42C280.105 251.68 279.625 251.873 279.079 252C278.539 252.133 277.962 252.2 277.349 252.2ZM289.424 252V241.38H291.104V252H289.424ZM290.274 238.94C289.961 238.94 289.688 238.853 289.454 238.68C289.228 238.5 289.114 238.257 289.114 237.95C289.114 237.65 289.228 237.413 289.454 237.24C289.688 237.06 289.961 236.97 290.274 236.97C290.588 236.97 290.858 237.06 291.084 237.24C291.311 237.413 291.424 237.65 291.424 237.95C291.424 238.257 291.311 238.5 291.084 238.68C290.858 238.853 290.588 238.94 290.274 238.94ZM300.708 252V247.31C300.708 246.897 300.708 246.54 300.708 246.24C300.708 245.933 300.708 245.677 300.708 245.47C300.708 245.21 300.688 244.93 300.648 244.63C300.615 244.323 300.531 244.037 300.398 243.77C300.265 243.497 300.055 243.273 299.768 243.1C299.488 242.927 299.098 242.84 298.598 242.84C298.091 242.84 297.665 242.94 297.318 243.14C296.971 243.333 296.691 243.59 296.478 243.91C296.265 244.23 296.111 244.583 296.018 244.97C295.925 245.35 295.878 245.727 295.878 246.1L294.918 245.71C294.918 244.91 295.085 244.17 295.418 243.49C295.751 242.81 296.218 242.263 296.818 241.85C297.425 241.43 298.135 241.22 298.948 241.22C299.755 241.22 300.411 241.383 300.918 241.71C301.425 242.037 301.798 242.487 302.038 243.06C302.278 243.633 302.398 244.293 302.398 245.04C302.398 245.307 302.398 245.65 302.398 246.07C302.398 246.483 302.398 246.957 302.398 247.49V252H300.708ZM294.178 252V241.38H295.878V252H294.178ZM307.218 252V247.31C307.218 246.857 307.218 246.483 307.218 246.19C307.218 245.89 307.218 245.637 307.218 245.43C307.218 245.17 307.201 244.89 307.168 244.59C307.135 244.29 307.051 244.01 306.918 243.75C306.785 243.483 306.571 243.267 306.278 243.1C305.991 242.927 305.588 242.84 305.068 242.84C304.555 242.84 304.125 242.937 303.778 243.13C303.438 243.323 303.165 243.577 302.958 243.89C302.758 244.203 302.615 244.543 302.528 244.91C302.441 245.27 302.398 245.617 302.398 245.95L301.438 245.58C301.438 244.82 301.598 244.11 301.918 243.45C302.245 242.783 302.705 242.247 303.298 241.84C303.898 241.427 304.608 241.22 305.428 241.22C306.195 241.22 306.835 241.37 307.348 241.67C307.868 241.97 308.258 242.393 308.518 242.94C308.785 243.48 308.918 244.123 308.918 244.87C308.918 245.15 308.918 245.497 308.918 245.91C308.918 246.323 308.918 246.79 308.918 247.31V252H307.218ZM311.786 256.37V241.38H313.486V256.37H311.786ZM316.976 252.2C316.156 252.2 315.389 252 314.676 251.6C313.962 251.193 313.382 250.637 312.936 249.93C312.496 249.223 312.276 248.417 312.276 247.51C312.276 247.49 312.276 247.473 312.276 247.46C312.276 247.447 312.276 247.43 312.276 247.41L313.496 247.38C313.496 247.393 313.496 247.41 313.496 247.43C313.496 247.443 313.496 247.457 313.496 247.47C313.496 248.043 313.646 248.567 313.946 249.04C314.252 249.513 314.652 249.89 315.146 250.17C315.639 250.45 316.169 250.59 316.736 250.59C317.676 250.59 318.456 250.27 319.076 249.63C319.702 248.983 320.016 248 320.016 246.68C320.016 245.353 319.706 244.373 319.086 243.74C318.466 243.1 317.682 242.78 316.736 242.78C316.169 242.78 315.639 242.92 315.146 243.2C314.652 243.473 314.252 243.843 313.946 244.31C313.646 244.777 313.496 245.3 313.496 245.88L312.276 245.84C312.276 244.927 312.496 244.123 312.936 243.43C313.382 242.737 313.962 242.197 314.676 241.81C315.389 241.417 316.156 241.22 316.976 241.22C317.836 241.22 318.629 241.433 319.356 241.86C320.082 242.28 320.666 242.897 321.106 243.71C321.546 244.523 321.766 245.513 321.766 246.68C321.766 247.867 321.549 248.873 321.116 249.7C320.682 250.52 320.102 251.143 319.376 251.57C318.649 251.99 317.849 252.2 316.976 252.2ZM329.365 252.19C328.298 252.19 327.355 251.953 326.535 251.48C325.722 251 325.082 250.347 324.615 249.52C324.155 248.687 323.925 247.74 323.925 246.68C323.925 245.62 324.155 244.68 324.615 243.86C325.082 243.04 325.722 242.397 326.535 241.93C327.355 241.463 328.298 241.23 329.365 241.23C330.432 241.23 331.372 241.463 332.185 241.93C333.005 242.397 333.645 243.04 334.105 243.86C334.572 244.68 334.805 245.62 334.805 246.68C334.805 247.74 334.572 248.687 334.105 249.52C333.645 250.347 333.005 251 332.185 251.48C331.372 251.953 330.432 252.19 329.365 252.19ZM329.365 250.63C330.098 250.63 330.745 250.467 331.305 250.14C331.865 249.813 332.302 249.353 332.615 248.76C332.935 248.167 333.095 247.473 333.095 246.68C333.095 245.887 332.935 245.2 332.615 244.62C332.302 244.033 331.865 243.583 331.305 243.27C330.745 242.95 330.098 242.79 329.365 242.79C328.638 242.79 327.992 242.95 327.425 243.27C326.865 243.583 326.425 244.033 326.105 244.62C325.792 245.2 325.635 245.887 325.635 246.68C325.635 247.473 325.792 248.167 326.105 248.76C326.425 249.353 326.865 249.813 327.425 250.14C327.992 250.467 328.638 250.63 329.365 250.63ZM337.372 252V241.38H339.072V244.64L338.512 244.44C338.552 244.047 338.652 243.66 338.812 243.28C338.972 242.893 339.192 242.547 339.472 242.24C339.759 241.927 340.116 241.68 340.542 241.5C340.969 241.313 341.469 241.22 342.042 241.22C342.469 241.22 342.816 241.257 343.082 241.33C343.356 241.397 343.526 241.45 343.592 241.49L343.152 243.16C343.086 243.113 342.949 243.053 342.742 242.98C342.542 242.907 342.256 242.87 341.882 242.87C341.329 242.87 340.869 242.97 340.502 243.17C340.142 243.37 339.856 243.637 339.642 243.97C339.436 244.297 339.289 244.653 339.202 245.04C339.116 245.427 339.072 245.81 339.072 246.19V252H337.372ZM349.531 252.16C349.205 252.16 348.885 252.123 348.571 252.05C348.258 251.977 347.975 251.847 347.721 251.66C347.475 251.467 347.278 251.197 347.131 250.85C346.985 250.497 346.911 250.043 346.911 249.49C346.911 249.35 346.911 249.207 346.911 249.06C346.911 248.907 346.911 248.747 346.911 248.58V242.88H344.321V241.38H345.981C346.208 241.38 346.385 241.373 346.511 241.36C346.638 241.34 346.728 241.297 346.781 241.23C346.841 241.157 346.878 241.047 346.891 240.9C346.905 240.747 346.911 240.537 346.911 240.27V237.86H348.621V241.38H351.941V242.88H348.621V248.03C348.621 248.177 348.621 248.32 348.621 248.46C348.621 248.6 348.621 248.73 348.621 248.85C348.621 249.417 348.688 249.86 348.821 250.18C348.961 250.5 349.271 250.66 349.751 250.66C349.945 250.66 350.128 250.643 350.301 250.61C350.475 250.577 350.605 250.543 350.691 250.51V251.99C350.578 252.03 350.418 252.067 350.211 252.1C350.011 252.14 349.785 252.16 349.531 252.16ZM357.391 252.2C356.585 252.2 355.878 252.073 355.271 251.82C354.671 251.567 354.205 251.203 353.871 250.73C353.538 250.25 353.371 249.677 353.371 249.01C353.371 248.317 353.551 247.74 353.911 247.28C354.271 246.813 354.778 246.45 355.431 246.19C356.085 245.93 356.845 245.757 357.711 245.67C359.018 245.537 359.948 245.407 360.501 245.28C361.055 245.147 361.331 244.933 361.331 244.64C361.331 244.633 361.331 244.63 361.331 244.63C361.331 244.623 361.331 244.617 361.331 244.61C361.331 243.997 361.081 243.54 360.581 243.24C360.081 242.933 359.358 242.78 358.411 242.78C357.425 242.78 356.658 242.953 356.111 243.3C355.565 243.64 355.291 244.193 355.291 244.96H353.611C353.611 244.167 353.815 243.493 354.221 242.94C354.628 242.38 355.191 241.953 355.911 241.66C356.638 241.367 357.475 241.22 358.421 241.22C359.288 241.22 360.068 241.353 360.761 241.62C361.461 241.88 362.015 242.27 362.421 242.79C362.835 243.303 363.041 243.94 363.041 244.7C363.041 244.84 363.041 244.98 363.041 245.12C363.041 245.253 363.041 245.39 363.041 245.53V250C363.041 250.233 363.051 250.46 363.071 250.68C363.091 250.9 363.125 251.093 363.171 251.26C363.231 251.46 363.298 251.623 363.371 251.75C363.445 251.87 363.505 251.953 363.551 252H361.841C361.808 251.967 361.758 251.89 361.691 251.77C361.625 251.643 361.561 251.497 361.501 251.33C361.455 251.197 361.418 251.03 361.391 250.83C361.365 250.623 361.351 250.41 361.351 250.19L361.631 250.38C361.425 250.74 361.121 251.057 360.721 251.33C360.328 251.603 359.851 251.817 359.291 251.97C358.731 252.123 358.098 252.2 357.391 252.2ZM357.661 250.67C358.348 250.67 358.968 250.567 359.521 250.36C360.075 250.147 360.515 249.833 360.841 249.42C361.168 249.007 361.331 248.493 361.331 247.88V245.77L361.711 246.41C361.285 246.577 360.751 246.713 360.111 246.82C359.478 246.92 358.815 247.003 358.121 247.07C357.115 247.163 356.355 247.34 355.841 247.6C355.335 247.86 355.081 248.297 355.081 248.91C355.081 249.49 355.291 249.93 355.711 250.23C356.131 250.523 356.781 250.67 357.661 250.67ZM370.161 252.2C369.288 252.2 368.488 251.99 367.761 251.57C367.035 251.143 366.455 250.52 366.021 249.7C365.588 248.873 365.371 247.867 365.371 246.68C365.371 245.513 365.591 244.523 366.031 243.71C366.471 242.897 367.055 242.28 367.781 241.86C368.508 241.433 369.301 241.22 370.161 241.22C370.981 241.22 371.748 241.417 372.461 241.81C373.181 242.197 373.761 242.737 374.201 243.43C374.641 244.123 374.861 244.927 374.861 245.84C374.861 245.86 374.861 245.88 374.861 245.9C374.861 245.92 374.861 245.94 374.861 245.96L373.641 246.01C373.641 245.99 373.641 245.97 373.641 245.95C373.641 245.923 373.641 245.9 373.641 245.88C373.641 245.3 373.488 244.777 373.181 244.31C372.881 243.843 372.485 243.473 371.991 243.2C371.498 242.92 370.968 242.78 370.401 242.78C369.455 242.78 368.671 243.1 368.051 243.74C367.431 244.373 367.121 245.353 367.121 246.68C367.121 248 367.431 248.983 368.051 249.63C368.678 250.27 369.461 250.59 370.401 250.59C370.995 250.59 371.535 250.447 372.021 250.16C372.515 249.873 372.908 249.49 373.201 249.01C373.495 248.523 373.641 247.98 373.641 247.38L374.861 247.41C374.861 248.317 374.651 249.133 374.231 249.86C373.811 250.58 373.245 251.15 372.531 251.57C371.825 251.99 371.035 252.2 370.161 252.2ZM373.641 252V236.37H375.351V252H373.641ZM383.282 252.19C382.215 252.19 381.272 251.953 380.452 251.48C379.639 251 378.999 250.347 378.532 249.52C378.072 248.687 377.842 247.74 377.842 246.68C377.842 245.62 378.072 244.68 378.532 243.86C378.999 243.04 379.639 242.397 380.452 241.93C381.272 241.463 382.215 241.23 383.282 241.23C384.349 241.23 385.289 241.463 386.102 241.93C386.922 242.397 387.562 243.04 388.022 243.86C388.489 244.68 388.722 245.62 388.722 246.68C388.722 247.74 388.489 248.687 388.022 249.52C387.562 250.347 386.922 251 386.102 251.48C385.289 251.953 384.349 252.19 383.282 252.19ZM383.282 250.63C384.015 250.63 384.662 250.467 385.222 250.14C385.782 249.813 386.219 249.353 386.532 248.76C386.852 248.167 387.012 247.473 387.012 246.68C387.012 245.887 386.852 245.2 386.532 244.62C386.219 244.033 385.782 243.583 385.222 243.27C384.662 242.95 384.015 242.79 383.282 242.79C382.555 242.79 381.909 242.95 381.342 243.27C380.782 243.583 380.342 244.033 380.022 244.62C379.709 245.2 379.552 245.887 379.552 246.68C379.552 247.473 379.709 248.167 380.022 248.76C380.342 249.353 380.782 249.813 381.342 250.14C381.909 250.467 382.555 250.63 383.282 250.63ZM395.349 252.2C394.709 252.2 394.116 252.133 393.569 252C393.029 251.86 392.556 251.66 392.149 251.4C391.749 251.133 391.436 250.807 391.209 250.42C390.989 250.033 390.879 249.59 390.879 249.09C390.879 249.037 390.879 248.983 390.879 248.93C390.879 248.87 390.879 248.82 390.879 248.78H392.589C392.589 248.82 392.589 248.853 392.589 248.88C392.589 248.907 392.589 248.947 392.589 249C392.589 249.54 392.839 249.953 393.339 250.24C393.839 250.52 394.523 250.66 395.389 250.66C395.923 250.66 396.399 250.607 396.819 250.5C397.239 250.393 397.569 250.23 397.809 250.01C398.056 249.79 398.179 249.513 398.179 249.18C398.179 248.627 397.919 248.233 397.399 248C396.886 247.76 396.116 247.553 395.089 247.38C394.549 247.287 394.036 247.167 393.549 247.02C393.063 246.867 392.629 246.67 392.249 246.43C391.876 246.19 391.579 245.893 391.359 245.54C391.146 245.18 391.039 244.75 391.039 244.25C391.039 243.603 391.229 243.057 391.609 242.61C391.996 242.157 392.516 241.813 393.169 241.58C393.823 241.34 394.549 241.22 395.349 241.22C396.123 241.22 396.836 241.343 397.489 241.59C398.143 241.837 398.666 242.197 399.059 242.67C399.459 243.137 399.659 243.713 399.659 244.4C399.659 244.427 399.659 244.46 399.659 244.5C399.659 244.533 399.659 244.567 399.659 244.6H397.959C397.959 244.567 397.959 244.54 397.959 244.52C397.959 244.5 397.959 244.477 397.959 244.45C397.959 244.063 397.836 243.747 397.589 243.5C397.343 243.247 397.023 243.06 396.629 242.94C396.236 242.813 395.816 242.75 395.369 242.75C394.949 242.75 394.536 242.797 394.129 242.89C393.723 242.977 393.386 243.123 393.119 243.33C392.853 243.537 392.719 243.82 392.719 244.18C392.719 244.54 392.843 244.83 393.089 245.05C393.343 245.263 393.696 245.44 394.149 245.58C394.609 245.713 395.149 245.837 395.769 245.95C396.323 246.05 396.846 246.177 397.339 246.33C397.833 246.477 398.266 246.667 398.639 246.9C399.019 247.133 399.316 247.43 399.529 247.79C399.749 248.143 399.859 248.577 399.859 249.09C399.859 249.61 399.739 250.063 399.499 250.45C399.266 250.837 398.939 251.16 398.519 251.42C398.106 251.68 397.626 251.873 397.079 252C396.539 252.133 395.963 252.2 395.349 252.2Z" fill="white"/>
<defs>
<filter id="filter0_f_367_2266" x="378" y="-236" width="790" height="790" filterUnits="userSpaceOnUse" color-interpolation-filters="sRGB">
<feFlood flood-opacity="0" result="BackgroundImageFix"/>
<feBlend mode="normal" in="SourceGraphic" in2="BackgroundImageFix" result="shape"/>
<feGaussianBlur stdDeviation="75" result="effect1_foregroundBlur_367_2266"/>
</filter>
<filter id="filter1_f_367_2266" x="-435.762" y="-242.069" width="645.036" height="408.739" filterUnits="userSpaceOnUse" color-interpolation-filters="sRGB">
<feFlood flood-opacity="0" result="BackgroundImageFix"/>
<feBlend mode="normal" in="SourceGraphic" in2="BackgroundImageFix" result="shape"/>
<feGaussianBlur stdDeviation="50" result="effect1_foregroundBlur_367_2266"/>
</filter>
</defs>
</svg>
