<svg width="555" height="190" viewBox="0 0 555 190" fill="none" xmlns="http://www.w3.org/2000/svg">
<rect width="555" height="190" rx="15" fill="url(#paint0_linear_367_2265)"/>
<path d="M122.717 136V61.36L127.997 65.44H105.557V48.4H142.277V136H122.717ZM191.625 138.28C184.665 138.28 178.705 137.16 173.745 134.92C168.785 132.6 164.745 129.48 161.625 125.56C158.585 121.64 156.305 117.12 154.785 112C153.345 106.8 152.625 101.32 152.625 95.56V88.72C152.625 80.72 154.025 73.48 156.825 67C159.625 60.52 163.905 55.36 169.665 51.52C175.425 47.68 182.745 45.76 191.625 45.76C200.505 45.76 207.785 47.68 213.465 51.52C219.225 55.36 223.505 60.52 226.305 67C229.105 73.48 230.505 80.72 230.505 88.72V95.56C230.505 101.32 229.745 106.8 228.225 112C226.785 117.12 224.505 121.64 221.385 125.56C218.345 129.48 214.345 132.6 209.385 134.92C204.505 137.16 198.585 138.28 191.625 138.28ZM191.625 120.16C198.105 120.16 202.905 117.92 206.025 113.44C209.225 108.88 210.825 101.84 210.825 92.32C210.825 82.24 209.185 75 205.905 70.6C202.705 66.12 197.945 63.88 191.625 63.88C185.145 63.88 180.305 66.12 177.105 70.6C173.905 75 172.305 82.16 172.305 92.08C172.305 101.68 173.865 108.76 176.985 113.32C180.185 117.88 185.065 120.16 191.625 120.16ZM297.609 136L267.369 95.08H255.249L291.969 48.4H314.529L281.529 90.28L281.289 81.76L321.369 136H297.609ZM240.009 136V48.4H259.689V136H240.009Z" fill="#1E1E1E"/>
<mask id="mask0_367_2265" style="mask-type:alpha" maskUnits="userSpaceOnUse" x="351" y="0" width="204" height="190">
<rect x="351" width="204" height="190" rx="15" fill="#00D680"/>
</mask>
<g mask="url(#mask0_367_2265)">
<path d="M520.164 103.983C550.81 103.983 575.653 79.1383 575.653 48.4913C575.653 17.8443 550.81 -7 520.164 -7C489.519 -7 464.676 17.8443 464.676 48.4913C464.676 79.1383 489.519 103.983 520.164 103.983Z" fill="url(#paint1_linear_367_2265)" fill-opacity="0.5" stroke="white" stroke-opacity="0.5" stroke-miterlimit="10"/>
<path d="M520.165 113.823C472.578 113.823 434 140.202 434 187.791V236.596H606.345V187.791C606.345 140.202 567.767 113.823 520.18 113.823H520.165Z" fill="url(#paint2_linear_367_2265)" fill-opacity="0.4" stroke="white" stroke-opacity="0.5" stroke-miterlimit="10"/>
</g>
<path d="M114.57 170.2C113.557 170.2 112.637 169.98 111.81 169.54C110.983 169.093 110.327 168.457 109.84 167.63C109.36 166.803 109.12 165.82 109.12 164.68C109.12 163.54 109.36 162.563 109.84 161.75C110.327 160.93 110.983 160.303 111.81 159.87C112.637 159.437 113.557 159.22 114.57 159.22C115.343 159.22 116.033 159.34 116.64 159.58C117.247 159.813 117.76 160.127 118.18 160.52C118.6 160.913 118.92 161.347 119.14 161.82C119.367 162.287 119.48 162.753 119.48 163.22C119.48 163.227 119.48 163.237 119.48 163.25C119.48 163.263 119.48 163.277 119.48 163.29H117.79C117.79 163.257 117.787 163.22 117.78 163.18C117.773 163.133 117.767 163.087 117.76 163.04C117.707 162.593 117.537 162.203 117.25 161.87C116.963 161.53 116.59 161.263 116.13 161.07C115.67 160.877 115.147 160.78 114.56 160.78C113.9 160.78 113.287 160.923 112.72 161.21C112.16 161.49 111.707 161.92 111.36 162.5C111.02 163.073 110.85 163.8 110.85 164.68C110.85 165.553 111.02 166.283 111.36 166.87C111.7 167.457 112.15 167.9 112.71 168.2C113.277 168.493 113.893 168.64 114.56 168.64C115.28 168.64 115.873 168.527 116.34 168.3C116.807 168.073 117.157 167.773 117.39 167.4C117.63 167.02 117.763 166.613 117.79 166.18H119.48C119.48 166.66 119.373 167.14 119.16 167.62C118.947 168.093 118.633 168.527 118.22 168.92C117.807 169.307 117.293 169.617 116.68 169.85C116.073 170.083 115.37 170.2 114.57 170.2ZM123.869 154.37V170H122.189V154.37H123.869ZM126.992 170V159.38H128.672V170H126.992ZM127.842 156.94C127.529 156.94 127.256 156.853 127.022 156.68C126.796 156.5 126.682 156.257 126.682 155.95C126.682 155.65 126.796 155.413 127.022 155.24C127.256 155.06 127.529 154.97 127.842 154.97C128.156 154.97 128.426 155.06 128.652 155.24C128.879 155.413 128.992 155.65 128.992 155.95C128.992 156.257 128.879 156.5 128.652 156.68C128.426 156.853 128.156 156.94 127.842 156.94ZM132.296 165.37V163.85H140.506L140.206 164.35C140.206 164.31 140.206 164.273 140.206 164.24C140.206 164.2 140.206 164.163 140.206 164.13C140.206 163.517 140.076 162.957 139.816 162.45C139.562 161.937 139.182 161.527 138.676 161.22C138.169 160.913 137.542 160.76 136.796 160.76C136.042 160.76 135.379 160.92 134.806 161.24C134.232 161.56 133.786 162.013 133.466 162.6C133.146 163.18 132.986 163.873 132.986 164.68C132.986 165.5 133.139 166.207 133.446 166.8C133.759 167.393 134.202 167.85 134.776 168.17C135.349 168.49 136.029 168.65 136.816 168.65C137.376 168.65 137.862 168.593 138.276 168.48C138.689 168.36 139.029 168.203 139.296 168.01C139.569 167.81 139.776 167.593 139.916 167.36C140.056 167.127 140.139 166.893 140.166 166.66H141.866C141.832 167.087 141.699 167.51 141.466 167.93C141.232 168.35 140.902 168.733 140.476 169.08C140.049 169.42 139.526 169.693 138.906 169.9C138.286 170.107 137.572 170.21 136.766 170.21C135.699 170.21 134.759 169.977 133.946 169.51C133.132 169.043 132.492 168.397 132.026 167.57C131.566 166.743 131.336 165.793 131.336 164.72C131.336 163.633 131.569 162.68 132.036 161.86C132.502 161.033 133.146 160.387 133.966 159.92C134.786 159.453 135.722 159.22 136.776 159.22C137.849 159.22 138.779 159.453 139.566 159.92C140.352 160.387 140.959 161.027 141.386 161.84C141.812 162.647 142.026 163.567 142.026 164.6C142.026 164.707 142.022 164.847 142.016 165.02C142.009 165.193 141.999 165.31 141.986 165.37H132.296ZM152.187 170V164.91C152.187 164.603 152.187 164.353 152.187 164.16C152.187 163.96 152.187 163.77 152.187 163.59C152.187 163.037 152.094 162.553 151.907 162.14C151.72 161.727 151.427 161.407 151.027 161.18C150.627 160.953 150.104 160.84 149.457 160.84C148.89 160.84 148.364 160.987 147.877 161.28C147.397 161.567 147.01 161.957 146.717 162.45C146.43 162.937 146.287 163.483 146.287 164.09L145.317 163.72C145.317 162.887 145.52 162.13 145.927 161.45C146.34 160.77 146.887 160.23 147.567 159.83C148.254 159.423 149 159.22 149.807 159.22C150.627 159.22 151.344 159.377 151.957 159.69C152.57 160.003 153.044 160.453 153.377 161.04C153.717 161.62 153.887 162.32 153.887 163.14C153.887 163.433 153.887 163.753 153.887 164.1C153.887 164.447 153.887 164.77 153.887 165.07V170H152.187ZM144.587 170V159.38H146.287V170H144.587ZM160.671 170.16C160.345 170.16 160.025 170.123 159.711 170.05C159.398 169.977 159.115 169.847 158.861 169.66C158.615 169.467 158.418 169.197 158.271 168.85C158.125 168.497 158.051 168.043 158.051 167.49C158.051 167.35 158.051 167.207 158.051 167.06C158.051 166.907 158.051 166.747 158.051 166.58V160.88H155.461V159.38H157.121C157.348 159.38 157.525 159.373 157.651 159.36C157.778 159.34 157.868 159.297 157.921 159.23C157.981 159.157 158.018 159.047 158.031 158.9C158.045 158.747 158.051 158.537 158.051 158.27V155.86H159.761V159.38H163.081V160.88H159.761V166.03C159.761 166.177 159.761 166.32 159.761 166.46C159.761 166.6 159.761 166.73 159.761 166.85C159.761 167.417 159.828 167.86 159.961 168.18C160.101 168.5 160.411 168.66 160.891 168.66C161.085 168.66 161.268 168.643 161.441 168.61C161.615 168.577 161.745 168.543 161.831 168.51V169.99C161.718 170.03 161.558 170.067 161.351 170.1C161.151 170.14 160.925 170.16 160.671 170.16ZM165.371 165.37V163.85H173.581L173.281 164.35C173.281 164.31 173.281 164.273 173.281 164.24C173.281 164.2 173.281 164.163 173.281 164.13C173.281 163.517 173.151 162.957 172.891 162.45C172.637 161.937 172.257 161.527 171.751 161.22C171.244 160.913 170.617 160.76 169.871 160.76C169.117 160.76 168.454 160.92 167.881 161.24C167.307 161.56 166.861 162.013 166.541 162.6C166.221 163.18 166.061 163.873 166.061 164.68C166.061 165.5 166.214 166.207 166.521 166.8C166.834 167.393 167.277 167.85 167.851 168.17C168.424 168.49 169.104 168.65 169.891 168.65C170.451 168.65 170.937 168.593 171.351 168.48C171.764 168.36 172.104 168.203 172.371 168.01C172.644 167.81 172.851 167.593 172.991 167.36C173.131 167.127 173.214 166.893 173.241 166.66H174.941C174.907 167.087 174.774 167.51 174.541 167.93C174.307 168.35 173.977 168.733 173.551 169.08C173.124 169.42 172.601 169.693 171.981 169.9C171.361 170.107 170.647 170.21 169.841 170.21C168.774 170.21 167.834 169.977 167.021 169.51C166.207 169.043 165.567 168.397 165.101 167.57C164.641 166.743 164.411 165.793 164.411 164.72C164.411 163.633 164.644 162.68 165.111 161.86C165.577 161.033 166.221 160.387 167.041 159.92C167.861 159.453 168.797 159.22 169.851 159.22C170.924 159.22 171.854 159.453 172.641 159.92C173.427 160.387 174.034 161.027 174.461 161.84C174.887 162.647 175.101 163.567 175.101 164.6C175.101 164.707 175.097 164.847 175.091 165.02C175.084 165.193 175.074 165.31 175.061 165.37H165.371ZM181.722 170.2C181.082 170.2 180.489 170.133 179.942 170C179.402 169.86 178.929 169.66 178.522 169.4C178.122 169.133 177.809 168.807 177.582 168.42C177.362 168.033 177.252 167.59 177.252 167.09C177.252 167.037 177.252 166.983 177.252 166.93C177.252 166.87 177.252 166.82 177.252 166.78H178.962C178.962 166.82 178.962 166.853 178.962 166.88C178.962 166.907 178.962 166.947 178.962 167C178.962 167.54 179.212 167.953 179.712 168.24C180.212 168.52 180.895 168.66 181.762 168.66C182.295 168.66 182.772 168.607 183.192 168.5C183.612 168.393 183.942 168.23 184.182 168.01C184.429 167.79 184.552 167.513 184.552 167.18C184.552 166.627 184.292 166.233 183.772 166C183.259 165.76 182.489 165.553 181.462 165.38C180.922 165.287 180.409 165.167 179.922 165.02C179.435 164.867 179.002 164.67 178.622 164.43C178.249 164.19 177.952 163.893 177.732 163.54C177.519 163.18 177.412 162.75 177.412 162.25C177.412 161.603 177.602 161.057 177.982 160.61C178.369 160.157 178.889 159.813 179.542 159.58C180.195 159.34 180.922 159.22 181.722 159.22C182.495 159.22 183.209 159.343 183.862 159.59C184.515 159.837 185.039 160.197 185.432 160.67C185.832 161.137 186.032 161.713 186.032 162.4C186.032 162.427 186.032 162.46 186.032 162.5C186.032 162.533 186.032 162.567 186.032 162.6H184.332C184.332 162.567 184.332 162.54 184.332 162.52C184.332 162.5 184.332 162.477 184.332 162.45C184.332 162.063 184.209 161.747 183.962 161.5C183.715 161.247 183.395 161.06 183.002 160.94C182.609 160.813 182.189 160.75 181.742 160.75C181.322 160.75 180.909 160.797 180.502 160.89C180.095 160.977 179.759 161.123 179.492 161.33C179.225 161.537 179.092 161.82 179.092 162.18C179.092 162.54 179.215 162.83 179.462 163.05C179.715 163.263 180.069 163.44 180.522 163.58C180.982 163.713 181.522 163.837 182.142 163.95C182.695 164.05 183.219 164.177 183.712 164.33C184.205 164.477 184.639 164.667 185.012 164.9C185.392 165.133 185.689 165.43 185.902 165.79C186.122 166.143 186.232 166.577 186.232 167.09C186.232 167.61 186.112 168.063 185.872 168.45C185.639 168.837 185.312 169.16 184.892 169.42C184.479 169.68 183.999 169.873 183.452 170C182.912 170.133 182.335 170.2 181.722 170.2ZM197.756 170.2C197.116 170.2 196.523 170.133 195.976 170C195.436 169.86 194.963 169.66 194.556 169.4C194.156 169.133 193.843 168.807 193.616 168.42C193.396 168.033 193.286 167.59 193.286 167.09C193.286 167.037 193.286 166.983 193.286 166.93C193.286 166.87 193.286 166.82 193.286 166.78H194.996C194.996 166.82 194.996 166.853 194.996 166.88C194.996 166.907 194.996 166.947 194.996 167C194.996 167.54 195.246 167.953 195.746 168.24C196.246 168.52 196.93 168.66 197.796 168.66C198.33 168.66 198.806 168.607 199.226 168.5C199.646 168.393 199.976 168.23 200.216 168.01C200.463 167.79 200.586 167.513 200.586 167.18C200.586 166.627 200.326 166.233 199.806 166C199.293 165.76 198.523 165.553 197.496 165.38C196.956 165.287 196.443 165.167 195.956 165.02C195.47 164.867 195.036 164.67 194.656 164.43C194.283 164.19 193.986 163.893 193.766 163.54C193.553 163.18 193.446 162.75 193.446 162.25C193.446 161.603 193.636 161.057 194.016 160.61C194.403 160.157 194.923 159.813 195.576 159.58C196.23 159.34 196.956 159.22 197.756 159.22C198.53 159.22 199.243 159.343 199.896 159.59C200.55 159.837 201.073 160.197 201.466 160.67C201.866 161.137 202.066 161.713 202.066 162.4C202.066 162.427 202.066 162.46 202.066 162.5C202.066 162.533 202.066 162.567 202.066 162.6H200.366C200.366 162.567 200.366 162.54 200.366 162.52C200.366 162.5 200.366 162.477 200.366 162.45C200.366 162.063 200.243 161.747 199.996 161.5C199.75 161.247 199.43 161.06 199.036 160.94C198.643 160.813 198.223 160.75 197.776 160.75C197.356 160.75 196.943 160.797 196.536 160.89C196.13 160.977 195.793 161.123 195.526 161.33C195.26 161.537 195.126 161.82 195.126 162.18C195.126 162.54 195.25 162.83 195.496 163.05C195.75 163.263 196.103 163.44 196.556 163.58C197.016 163.713 197.556 163.837 198.176 163.95C198.73 164.05 199.253 164.177 199.746 164.33C200.24 164.477 200.673 164.667 201.046 164.9C201.426 165.133 201.723 165.43 201.936 165.79C202.156 166.143 202.266 166.577 202.266 167.09C202.266 167.61 202.146 168.063 201.906 168.45C201.673 168.837 201.346 169.16 200.926 169.42C200.513 169.68 200.033 169.873 199.486 170C198.946 170.133 198.37 170.2 197.756 170.2ZM208.529 170.2C207.722 170.2 207.016 170.073 206.409 169.82C205.809 169.567 205.342 169.203 205.009 168.73C204.676 168.25 204.509 167.677 204.509 167.01C204.509 166.317 204.689 165.74 205.049 165.28C205.409 164.813 205.916 164.45 206.569 164.19C207.222 163.93 207.982 163.757 208.849 163.67C210.156 163.537 211.086 163.407 211.639 163.28C212.192 163.147 212.469 162.933 212.469 162.64C212.469 162.633 212.469 162.63 212.469 162.63C212.469 162.623 212.469 162.617 212.469 162.61C212.469 161.997 212.219 161.54 211.719 161.24C211.219 160.933 210.496 160.78 209.549 160.78C208.562 160.78 207.796 160.953 207.249 161.3C206.702 161.64 206.429 162.193 206.429 162.96H204.749C204.749 162.167 204.952 161.493 205.359 160.94C205.766 160.38 206.329 159.953 207.049 159.66C207.776 159.367 208.612 159.22 209.559 159.22C210.426 159.22 211.206 159.353 211.899 159.62C212.599 159.88 213.152 160.27 213.559 160.79C213.972 161.303 214.179 161.94 214.179 162.7C214.179 162.84 214.179 162.98 214.179 163.12C214.179 163.253 214.179 163.39 214.179 163.53V168C214.179 168.233 214.189 168.46 214.209 168.68C214.229 168.9 214.262 169.093 214.309 169.26C214.369 169.46 214.436 169.623 214.509 169.75C214.582 169.87 214.642 169.953 214.689 170H212.979C212.946 169.967 212.896 169.89 212.829 169.77C212.762 169.643 212.699 169.497 212.639 169.33C212.592 169.197 212.556 169.03 212.529 168.83C212.502 168.623 212.489 168.41 212.489 168.19L212.769 168.38C212.562 168.74 212.259 169.057 211.859 169.33C211.466 169.603 210.989 169.817 210.429 169.97C209.869 170.123 209.236 170.2 208.529 170.2ZM208.799 168.67C209.486 168.67 210.106 168.567 210.659 168.36C211.212 168.147 211.652 167.833 211.979 167.42C212.306 167.007 212.469 166.493 212.469 165.88V163.77L212.849 164.41C212.422 164.577 211.889 164.713 211.249 164.82C210.616 164.92 209.952 165.003 209.259 165.07C208.252 165.163 207.492 165.34 206.979 165.6C206.472 165.86 206.219 166.297 206.219 166.91C206.219 167.49 206.429 167.93 206.849 168.23C207.269 168.523 207.919 168.67 208.799 168.67ZM220.825 170.16C220.499 170.16 220.179 170.123 219.865 170.05C219.552 169.977 219.269 169.847 219.015 169.66C218.769 169.467 218.572 169.197 218.425 168.85C218.279 168.497 218.205 168.043 218.205 167.49C218.205 167.35 218.205 167.207 218.205 167.06C218.205 166.907 218.205 166.747 218.205 166.58V160.88H215.615V159.38H217.275C217.502 159.38 217.679 159.373 217.805 159.36C217.932 159.34 218.022 159.297 218.075 159.23C218.135 159.157 218.172 159.047 218.185 158.9C218.199 158.747 218.205 158.537 218.205 158.27V155.86H219.915V159.38H223.235V160.88H219.915V166.03C219.915 166.177 219.915 166.32 219.915 166.46C219.915 166.6 219.915 166.73 219.915 166.85C219.915 167.417 219.982 167.86 220.115 168.18C220.255 168.5 220.565 168.66 221.045 168.66C221.239 168.66 221.422 168.643 221.595 168.61C221.769 168.577 221.899 168.543 221.985 168.51V169.99C221.872 170.03 221.712 170.067 221.505 170.1C221.305 170.14 221.079 170.16 220.825 170.16ZM225.426 170V159.38H227.106V170H225.426ZM226.276 156.94C225.963 156.94 225.689 156.853 225.456 156.68C225.229 156.5 225.116 156.257 225.116 155.95C225.116 155.65 225.229 155.413 225.456 155.24C225.689 155.06 225.963 154.97 226.276 154.97C226.589 154.97 226.859 155.06 227.086 155.24C227.313 155.413 227.426 155.65 227.426 155.95C227.426 156.257 227.313 156.5 227.086 156.68C226.859 156.853 226.589 156.94 226.276 156.94ZM234.239 170.2C233.599 170.2 233.006 170.133 232.459 170C231.919 169.86 231.446 169.66 231.039 169.4C230.639 169.133 230.326 168.807 230.099 168.42C229.879 168.033 229.769 167.59 229.769 167.09C229.769 167.037 229.769 166.983 229.769 166.93C229.769 166.87 229.769 166.82 229.769 166.78H231.479C231.479 166.82 231.479 166.853 231.479 166.88C231.479 166.907 231.479 166.947 231.479 167C231.479 167.54 231.729 167.953 232.229 168.24C232.729 168.52 233.412 168.66 234.279 168.66C234.812 168.66 235.289 168.607 235.709 168.5C236.129 168.393 236.459 168.23 236.699 168.01C236.946 167.79 237.069 167.513 237.069 167.18C237.069 166.627 236.809 166.233 236.289 166C235.776 165.76 235.006 165.553 233.979 165.38C233.439 165.287 232.926 165.167 232.439 165.02C231.952 164.867 231.519 164.67 231.139 164.43C230.766 164.19 230.469 163.893 230.249 163.54C230.036 163.18 229.929 162.75 229.929 162.25C229.929 161.603 230.119 161.057 230.499 160.61C230.886 160.157 231.406 159.813 232.059 159.58C232.712 159.34 233.439 159.22 234.239 159.22C235.012 159.22 235.726 159.343 236.379 159.59C237.032 159.837 237.556 160.197 237.949 160.67C238.349 161.137 238.549 161.713 238.549 162.4C238.549 162.427 238.549 162.46 238.549 162.5C238.549 162.533 238.549 162.567 238.549 162.6H236.849C236.849 162.567 236.849 162.54 236.849 162.52C236.849 162.5 236.849 162.477 236.849 162.45C236.849 162.063 236.726 161.747 236.479 161.5C236.232 161.247 235.912 161.06 235.519 160.94C235.126 160.813 234.706 160.75 234.259 160.75C233.839 160.75 233.426 160.797 233.019 160.89C232.612 160.977 232.276 161.123 232.009 161.33C231.742 161.537 231.609 161.82 231.609 162.18C231.609 162.54 231.732 162.83 231.979 163.05C232.232 163.263 232.586 163.44 233.039 163.58C233.499 163.713 234.039 163.837 234.659 163.95C235.212 164.05 235.736 164.177 236.229 164.33C236.722 164.477 237.156 164.667 237.529 164.9C237.909 165.133 238.206 165.43 238.419 165.79C238.639 166.143 238.749 166.577 238.749 167.09C238.749 167.61 238.629 168.063 238.389 168.45C238.156 168.837 237.829 169.16 237.409 169.42C236.996 169.68 236.516 169.873 235.969 170C235.429 170.133 234.852 170.2 234.239 170.2ZM242.475 170V160.88H240.155V159.38H242.475V158.01C242.475 157.537 242.528 157.103 242.635 156.71C242.748 156.31 242.908 155.957 243.115 155.65C243.328 155.343 243.585 155.083 243.885 154.87C244.185 154.657 244.525 154.497 244.905 154.39C245.292 154.277 245.712 154.22 246.165 154.22C246.492 154.22 246.752 154.24 246.945 154.28C247.138 154.32 247.268 154.357 247.335 154.39V155.89C247.255 155.863 247.122 155.833 246.935 155.8C246.748 155.767 246.548 155.75 246.335 155.75C245.882 155.75 245.512 155.82 245.225 155.96C244.945 156.1 244.728 156.293 244.575 156.54C244.422 156.78 244.315 157.053 244.255 157.36C244.202 157.667 244.175 157.987 244.175 158.32V159.38H247.275V160.88H244.175V170H242.475ZM249.166 165.37V163.85H257.376L257.076 164.35C257.076 164.31 257.076 164.273 257.076 164.24C257.076 164.2 257.076 164.163 257.076 164.13C257.076 163.517 256.946 162.957 256.686 162.45C256.432 161.937 256.052 161.527 255.546 161.22C255.039 160.913 254.412 160.76 253.666 160.76C252.912 160.76 252.249 160.92 251.676 161.24C251.102 161.56 250.656 162.013 250.336 162.6C250.016 163.18 249.856 163.873 249.856 164.68C249.856 165.5 250.009 166.207 250.316 166.8C250.629 167.393 251.072 167.85 251.646 168.17C252.219 168.49 252.899 168.65 253.686 168.65C254.246 168.65 254.732 168.593 255.146 168.48C255.559 168.36 255.899 168.203 256.166 168.01C256.439 167.81 256.646 167.593 256.786 167.36C256.926 167.127 257.009 166.893 257.036 166.66H258.736C258.702 167.087 258.569 167.51 258.336 167.93C258.102 168.35 257.772 168.733 257.346 169.08C256.919 169.42 256.396 169.693 255.776 169.9C255.156 170.107 254.442 170.21 253.636 170.21C252.569 170.21 251.629 169.977 250.816 169.51C250.002 169.043 249.362 168.397 248.896 167.57C248.436 166.743 248.206 165.793 248.206 164.72C248.206 163.633 248.439 162.68 248.906 161.86C249.372 161.033 250.016 160.387 250.836 159.92C251.656 159.453 252.592 159.22 253.646 159.22C254.719 159.22 255.649 159.453 256.436 159.92C257.222 160.387 257.829 161.027 258.256 161.84C258.682 162.647 258.896 163.567 258.896 164.6C258.896 164.707 258.892 164.847 258.886 165.02C258.879 165.193 258.869 165.31 258.856 165.37H249.166ZM266.497 170.2C265.484 170.2 264.564 169.98 263.737 169.54C262.911 169.093 262.254 168.457 261.767 167.63C261.287 166.803 261.047 165.82 261.047 164.68C261.047 163.54 261.287 162.563 261.767 161.75C262.254 160.93 262.911 160.303 263.737 159.87C264.564 159.437 265.484 159.22 266.497 159.22C267.271 159.22 267.961 159.34 268.567 159.58C269.174 159.813 269.687 160.127 270.107 160.52C270.527 160.913 270.847 161.347 271.067 161.82C271.294 162.287 271.407 162.753 271.407 163.22C271.407 163.227 271.407 163.237 271.407 163.25C271.407 163.263 271.407 163.277 271.407 163.29H269.717C269.717 163.257 269.714 163.22 269.707 163.18C269.701 163.133 269.694 163.087 269.687 163.04C269.634 162.593 269.464 162.203 269.177 161.87C268.891 161.53 268.517 161.263 268.057 161.07C267.597 160.877 267.074 160.78 266.487 160.78C265.827 160.78 265.214 160.923 264.647 161.21C264.087 161.49 263.634 161.92 263.287 162.5C262.947 163.073 262.777 163.8 262.777 164.68C262.777 165.553 262.947 166.283 263.287 166.87C263.627 167.457 264.077 167.9 264.637 168.2C265.204 168.493 265.821 168.64 266.487 168.64C267.207 168.64 267.801 168.527 268.267 168.3C268.734 168.073 269.084 167.773 269.317 167.4C269.557 167.02 269.691 166.613 269.717 166.18H271.407C271.407 166.66 271.301 167.14 271.087 167.62C270.874 168.093 270.561 168.527 270.147 168.92C269.734 169.307 269.221 169.617 268.607 169.85C268.001 170.083 267.297 170.2 266.497 170.2ZM281.577 170V166.05C281.577 165.863 281.577 165.643 281.577 165.39C281.577 165.13 281.577 164.87 281.577 164.61C281.577 164.343 281.577 164.117 281.577 163.93C281.577 162.91 281.357 162.14 280.917 161.62C280.483 161.1 279.793 160.84 278.847 160.84C278.213 160.84 277.657 160.963 277.177 161.21C276.703 161.457 276.333 161.793 276.067 162.22C275.8 162.647 275.667 163.13 275.667 163.67L274.587 163.34C274.587 162.58 274.783 161.89 275.177 161.27C275.577 160.643 276.12 160.147 276.807 159.78C277.5 159.407 278.283 159.22 279.157 159.22C280.43 159.22 281.433 159.603 282.167 160.37C282.907 161.137 283.277 162.197 283.277 163.55C283.277 163.903 283.277 164.31 283.277 164.77C283.277 165.23 283.277 165.713 283.277 166.22V170H281.577ZM273.967 170V154.37H275.667V170H273.967ZM291.174 170.19C290.107 170.19 289.164 169.953 288.344 169.48C287.531 169 286.891 168.347 286.424 167.52C285.964 166.687 285.734 165.74 285.734 164.68C285.734 163.62 285.964 162.68 286.424 161.86C286.891 161.04 287.531 160.397 288.344 159.93C289.164 159.463 290.107 159.23 291.174 159.23C292.241 159.23 293.181 159.463 293.994 159.93C294.814 160.397 295.454 161.04 295.914 161.86C296.381 162.68 296.614 163.62 296.614 164.68C296.614 165.74 296.381 166.687 295.914 167.52C295.454 168.347 294.814 169 293.994 169.48C293.181 169.953 292.241 170.19 291.174 170.19ZM291.174 168.63C291.907 168.63 292.554 168.467 293.114 168.14C293.674 167.813 294.111 167.353 294.424 166.76C294.744 166.167 294.904 165.473 294.904 164.68C294.904 163.887 294.744 163.2 294.424 162.62C294.111 162.033 293.674 161.583 293.114 161.27C292.554 160.95 291.907 160.79 291.174 160.79C290.447 160.79 289.801 160.95 289.234 161.27C288.674 161.583 288.234 162.033 287.914 162.62C287.601 163.2 287.444 163.887 287.444 164.68C287.444 165.473 287.601 166.167 287.914 166.76C288.234 167.353 288.674 167.813 289.234 168.14C289.801 168.467 290.447 168.63 291.174 168.63ZM303.241 170.2C302.601 170.2 302.007 170.133 301.461 170C300.921 169.86 300.447 169.66 300.041 169.4C299.641 169.133 299.327 168.807 299.101 168.42C298.881 168.033 298.771 167.59 298.771 167.09C298.771 167.037 298.771 166.983 298.771 166.93C298.771 166.87 298.771 166.82 298.771 166.78H300.481C300.481 166.82 300.481 166.853 300.481 166.88C300.481 166.907 300.481 166.947 300.481 167C300.481 167.54 300.731 167.953 301.231 168.24C301.731 168.52 302.414 168.66 303.281 168.66C303.814 168.66 304.291 168.607 304.711 168.5C305.131 168.393 305.461 168.23 305.701 168.01C305.947 167.79 306.071 167.513 306.071 167.18C306.071 166.627 305.811 166.233 305.291 166C304.777 165.76 304.007 165.553 302.981 165.38C302.441 165.287 301.927 165.167 301.441 165.02C300.954 164.867 300.521 164.67 300.141 164.43C299.767 164.19 299.471 163.893 299.251 163.54C299.037 163.18 298.931 162.75 298.931 162.25C298.931 161.603 299.121 161.057 299.501 160.61C299.887 160.157 300.407 159.813 301.061 159.58C301.714 159.34 302.441 159.22 303.241 159.22C304.014 159.22 304.727 159.343 305.381 159.59C306.034 159.837 306.557 160.197 306.951 160.67C307.351 161.137 307.551 161.713 307.551 162.4C307.551 162.427 307.551 162.46 307.551 162.5C307.551 162.533 307.551 162.567 307.551 162.6H305.851C305.851 162.567 305.851 162.54 305.851 162.52C305.851 162.5 305.851 162.477 305.851 162.45C305.851 162.063 305.727 161.747 305.481 161.5C305.234 161.247 304.914 161.06 304.521 160.94C304.127 160.813 303.707 160.75 303.261 160.75C302.841 160.75 302.427 160.797 302.021 160.89C301.614 160.977 301.277 161.123 301.011 161.33C300.744 161.537 300.611 161.82 300.611 162.18C300.611 162.54 300.734 162.83 300.981 163.05C301.234 163.263 301.587 163.44 302.041 163.58C302.501 163.713 303.041 163.837 303.661 163.95C304.214 164.05 304.737 164.177 305.231 164.33C305.724 164.477 306.157 164.667 306.531 164.9C306.911 165.133 307.207 165.43 307.421 165.79C307.641 166.143 307.751 166.577 307.751 167.09C307.751 167.61 307.631 168.063 307.391 168.45C307.157 168.837 306.831 169.16 306.411 169.42C305.997 169.68 305.517 169.873 304.971 170C304.431 170.133 303.854 170.2 303.241 170.2Z" fill="#1E1E1E"/>
<defs>
<linearGradient id="paint0_linear_367_2265" x1="199" y1="42" x2="935" y2="164.5" gradientUnits="userSpaceOnUse">
<stop stop-color="#00D680"/>
<stop offset="1" stop-color="#111111"/>
</linearGradient>
<linearGradient id="paint1_linear_367_2265" x1="520.164" y1="-7" x2="520.164" y2="103.983" gradientUnits="userSpaceOnUse">
<stop stop-color="white"/>
<stop offset="1" stop-color="#00D680" stop-opacity="0"/>
</linearGradient>
<linearGradient id="paint2_linear_367_2265" x1="520.172" y1="113.823" x2="520.172" y2="236.596" gradientUnits="userSpaceOnUse">
<stop stop-color="white"/>
<stop offset="1" stop-color="#00D680" stop-opacity="0"/>
</linearGradient>
</defs>
</svg>
