<svg width="45" height="45" viewBox="0 0 45 45" fill="none" xmlns="http://www.w3.org/2000/svg">
<circle cx="22.5" cy="22.5" r="22.5" fill="#25D366"/>
<path d="M28.6742 16.3127C27.8264 15.461 26.8168 14.7857 25.7042 14.3262C24.5916 13.8667 23.3983 13.6323 22.1938 13.6365C17.1465 13.6365 13.0331 17.7302 13.0285 22.7559C13.0285 24.3655 13.4515 25.9315 14.2502 27.3179L12.9545 32.0456L17.8134 30.7776C19.1576 31.5058 20.6634 31.8875 22.1938 31.8879H22.1984C27.2468 31.8879 31.359 27.7942 31.3636 22.764C31.3648 21.5651 31.1276 20.3779 30.6659 19.2707C30.2041 18.1635 29.5268 17.1582 28.673 16.3127H28.6742ZM22.1938 30.3439C20.8288 30.3443 19.4889 29.9787 18.315 29.2854L18.0376 29.1197L15.1551 29.8721L15.9249 27.0728L15.7446 26.784C14.9815 25.5763 14.578 24.178 14.5807 22.7513C14.5807 18.5794 17.9983 15.176 22.1984 15.176C23.199 15.1742 24.19 15.3696 25.1144 15.7509C26.0388 16.1322 26.8782 16.6919 27.5843 17.3977C28.2928 18.1008 28.8545 18.9365 29.2369 19.8567C29.6194 20.777 29.815 21.7635 29.8126 22.7594C29.808 26.9463 26.3904 30.3439 22.1938 30.3439ZM26.3719 24.667C26.1442 24.5531 25.0196 24.002 24.8081 23.9237C24.5978 23.8489 24.444 23.8098 24.2938 24.0376C24.1401 24.2643 23.7009 24.7809 23.5691 24.9293C23.4374 25.0823 23.301 25.0996 23.0721 24.9869C22.8445 24.8718 22.1059 24.6325 21.2322 23.8535C20.5503 23.2495 20.0937 22.5016 19.9573 22.275C19.8256 22.0472 19.9446 21.9252 20.0591 21.8113C20.1596 21.71 20.2867 21.5444 20.4012 21.4132C20.5167 21.282 20.5549 21.1854 20.63 21.0335C20.7051 20.8793 20.6693 20.7482 20.6127 20.6343C20.5549 20.5204 20.0984 19.3963 19.9053 18.9429C19.7204 18.4954 19.532 18.5575 19.391 18.5517C19.2593 18.5437 19.1055 18.5437 18.9518 18.5437C18.8357 18.5466 18.7215 18.5733 18.6163 18.6222C18.5111 18.6711 18.4172 18.7411 18.3404 18.8279C18.1301 19.0557 17.5418 19.6068 17.5418 20.7309C17.5418 21.855 18.3624 22.9354 18.478 23.0884C18.5912 23.2414 20.0891 25.5414 22.3879 26.5309C22.9311 26.7668 23.3588 26.906 23.6928 27.0118C24.2418 27.1867 24.7376 27.1603 25.1329 27.1039C25.5721 27.0372 26.4863 26.5516 26.6793 26.0189C26.8688 25.485 26.8688 25.0294 26.8111 24.9339C26.7544 24.8373 26.6007 24.7809 26.3719 24.667Z" fill="white"/>
</svg>
