<svg width="190" height="36" viewBox="0 0 190 36" fill="none" xmlns="http://www.w3.org/2000/svg">
<g clip-path="url(#clip0_969_72)">
<path d="M12.8494 12.933C12.3001 12.3312 11.6462 11.8627 10.886 11.5241C10.1257 11.1873 9.27829 11.018 8.3454 11.018C7.29743 11.018 6.35757 11.2471 5.52233 11.7037C4.6871 12.1602 4.02449 12.8424 3.5345 13.7503C3.36885 14.0581 3.23458 14.3983 3.11776 14.7522V11.4027H0V29.407H3.92684V22.9354C4.3802 23.5748 4.93645 24.0724 5.60778 24.4127C6.4186 24.8213 7.32882 25.0265 8.3454 25.0265C9.36199 25.0265 10.199 24.8538 10.9592 24.5084C11.7195 24.163 12.3664 23.686 12.8982 23.0773C13.4301 22.4669 13.8346 21.7505 14.1136 20.9229C14.3908 20.0971 14.5303 19.2097 14.5303 18.2625V17.7085C14.5303 16.7459 14.3874 15.8602 14.1014 15.0497C13.8154 14.2393 13.3969 13.5331 12.8494 12.9313V12.933ZM10.1623 19.974C9.88336 20.5519 9.49451 21.0016 8.99581 21.3213C8.4971 21.6428 7.91122 21.8035 7.24163 21.8035C6.68539 21.8035 6.14484 21.6753 5.62173 21.4188C5.09861 21.1623 4.66791 20.7896 4.33312 20.2989C3.99659 19.8099 3.82919 19.22 3.82919 18.5292V17.6384C3.82919 16.9169 3.98961 16.303 4.30871 15.7969C4.62781 15.2908 5.04979 14.9027 5.5729 14.6291C6.09601 14.3556 6.65226 14.2205 7.24163 14.2205C7.92865 14.2205 8.51803 14.3761 9.00976 14.6907C9.49974 15.0036 9.8851 15.4413 10.1641 16.0021C10.4413 16.5646 10.5808 17.2212 10.5808 17.9752C10.5808 18.7293 10.4413 19.3944 10.1641 19.9723L10.1623 19.974Z" fill="#151515"/>
<path d="M20.5326 12.7535C19.9205 13.516 19.5421 14.5214 19.3922 15.7696V11.4061H16.2744V24.5956H20.2013V17.8812C20.2013 16.8057 20.4959 15.9833 21.0853 15.4139C21.6747 14.8446 22.5099 14.559 23.5893 14.559H24.571V11.2369H24.0549C22.5169 11.2369 21.3416 11.743 20.5326 12.7535Z" fill="#151515"/>
<path d="M37.5315 12.9689C36.8933 12.3431 36.1191 11.849 35.2124 11.4882C34.3039 11.1274 33.2699 10.9462 32.1069 10.9462C30.9438 10.9462 29.9551 11.1274 29.0379 11.4882C28.1207 11.849 27.3395 12.3431 26.6944 12.9689C26.0475 13.5947 25.5575 14.3213 25.2227 15.1472C24.8861 15.973 24.7188 16.8433 24.7188 17.7581V18.312C24.7188 19.2114 24.8827 20.0663 25.2087 20.875C25.5366 21.6855 26.0143 22.4036 26.6456 23.0294C27.275 23.6552 28.0492 24.1493 28.9647 24.5101C29.8801 24.8709 30.9281 25.0521 32.1069 25.0521C33.2856 25.0521 34.3562 24.8709 35.2734 24.5101C36.1906 24.1493 36.9631 23.6552 37.5926 23.0294C38.222 22.4036 38.7016 21.6855 39.0294 20.875C39.3572 20.0646 39.5194 19.2097 39.5194 18.312V17.7581C39.5194 16.8433 39.3485 15.973 39.0032 15.1472C38.6597 14.3213 38.168 13.5947 37.5315 12.9689ZM35.188 19.9723C34.9177 20.5502 34.5289 20.9999 34.0215 21.3196C33.514 21.641 32.8758 21.8018 32.1069 21.8018C31.3379 21.8018 30.7398 21.641 30.2167 21.3196C29.6936 20.9981 29.2995 20.5502 29.0379 19.9723C28.7764 19.3943 28.6456 18.7532 28.6456 18.047C28.6456 17.293 28.7799 16.6313 29.0501 16.0619C29.3204 15.4926 29.7162 15.0395 30.2411 14.7026C30.7642 14.3658 31.3867 14.1965 32.1069 14.1965C32.827 14.1965 33.4687 14.3658 33.9848 14.7026C34.4992 15.0395 34.8968 15.4926 35.1758 16.0619C35.4548 16.6313 35.5925 17.293 35.5925 18.047C35.5925 18.7532 35.4583 19.3943 35.188 19.9723Z" fill="#151515"/>
<path d="M54.1739 12.9091C53.649 12.3072 53.0161 11.8421 52.2715 11.5121C51.5269 11.1839 50.6969 11.0197 49.7798 11.0197C48.7318 11.0197 47.7989 11.2488 46.9811 11.7053C46.2487 12.1157 45.6646 12.7158 45.213 13.4853V7.0239H41.2861V24.5939H44.4039V21.7129C44.4911 21.9368 44.587 22.1523 44.6986 22.354C45.1729 23.2209 45.8268 23.8826 46.662 24.3391C47.4972 24.7956 48.4615 25.0248 49.5583 25.0248C50.5243 25.0248 51.3909 24.8521 52.1599 24.5067C52.9289 24.1613 53.588 23.6808 54.1355 23.0619C54.6831 22.4447 55.1016 21.7265 55.3875 20.9075C55.6735 20.0885 55.8165 19.1994 55.8165 18.2351V17.7051C55.8165 16.7424 55.6735 15.8516 55.3875 15.0343C55.1016 14.2153 54.6953 13.5058 54.1722 12.9039L54.1739 12.9091ZM51.4485 19.962C51.1695 20.5485 50.7806 21.0016 50.2819 21.3213C49.7832 21.6428 49.1973 21.8035 48.5278 21.8035C47.9715 21.8035 47.431 21.6752 46.9079 21.4188C46.3847 21.1623 45.954 20.7896 45.6193 20.2988C45.2827 19.8098 45.1153 19.22 45.1153 18.5292V17.6384C45.1153 16.9168 45.2757 16.303 45.5948 15.7969C45.9139 15.2908 46.3359 14.9027 46.859 14.6291C47.3821 14.3556 47.9384 14.2205 48.5278 14.2205C49.1991 14.2205 49.7832 14.3761 50.2819 14.6907C50.7806 15.0036 51.1695 15.4413 51.4485 16.0021C51.7257 16.5646 51.8652 17.2212 51.8652 17.9752C51.8652 18.7292 51.7257 19.3755 51.4485 19.9603V19.962Z" fill="#151515"/>
<path d="M65.8317 19.155C65.8317 19.8936 65.6103 20.4784 65.1691 20.9127C64.7279 21.3453 64.1543 21.5624 63.4515 21.5624C62.7488 21.5624 62.2152 21.3538 61.8072 20.9366C61.3974 20.5194 61.1934 19.9586 61.1934 19.2525V11.4061H57.2666V19.0592C57.2666 21.0495 57.6833 22.537 58.5186 23.5236C59.3538 24.5101 60.5483 25.0042 62.1019 25.0042H62.2745C63.2894 25.0042 64.1403 24.7871 64.8273 24.3545C65.5144 23.9219 66.034 23.2585 66.3862 22.3694C66.4891 22.1112 66.571 21.8274 66.6443 21.5316V24.5956H69.762V11.4061H65.8352V19.1567L65.8317 19.155Z" fill="#151515"/>
<path d="M82.1304 17.7837C81.2132 17.0622 79.9298 16.6125 78.2768 16.4364L77.2219 16.3406C76.5174 16.2603 76.01 16.1235 75.6996 15.932C75.3892 15.7388 75.2323 15.4584 75.2323 15.089C75.2323 14.7197 75.4119 14.4 75.7728 14.1743C76.132 13.9503 76.6151 13.8375 77.2201 13.8375C77.9891 13.8375 78.5698 13.9862 78.9621 14.282C79.3544 14.5795 79.5846 14.9437 79.6491 15.378H83.1348C83.086 13.9657 82.5297 12.8868 81.4661 12.1413C80.4024 11.3959 79.0022 11.0214 77.2689 11.0214C76.1896 11.0214 75.2271 11.1821 74.3848 11.5019C73.5426 11.8233 72.8835 12.2969 72.4092 12.921C71.9349 13.5468 71.6978 14.3248 71.6978 15.2566C71.6978 16.3799 72.1023 17.3032 72.9132 18.0248C73.724 18.7463 74.9376 19.1892 76.5575 19.3482L77.6125 19.4439C78.4965 19.5397 79.1103 19.7055 79.4538 19.9381C79.7973 20.1706 79.9682 20.4801 79.9682 20.8648C79.9682 21.2974 79.7433 21.6308 79.2934 21.8633C78.8435 22.0958 78.2751 22.2121 77.588 22.2121C76.6883 22.2121 76.0135 22.048 75.5619 21.7197C75.112 21.3914 74.8539 21.0169 74.7894 20.5998H71.3037C71.3682 21.995 71.9419 23.079 73.0213 23.8484C74.1006 24.6178 75.5985 25.0042 77.5131 25.0042C78.7232 25.0042 79.7799 24.8315 80.6796 24.4861C81.5794 24.1408 82.2751 23.6432 82.7669 22.9935C83.2568 22.3438 83.5027 21.5778 83.5027 20.6955C83.5027 19.4764 83.0441 18.5052 82.1287 17.7837H82.1304Z" fill="#151515"/>
<path d="M87.2376 10.105C87.9734 10.105 88.5175 9.91691 88.8697 9.53905C89.222 9.16289 89.3981 8.68414 89.3981 8.10794C89.3981 7.53173 89.222 7.02905 88.8697 6.65118C88.5175 6.27502 87.9734 6.08524 87.2376 6.08524C86.5018 6.08524 85.956 6.27331 85.6055 6.65118C85.2533 7.02905 85.0771 7.51463 85.0771 8.10794C85.0771 8.70124 85.2533 9.16289 85.6055 9.53905C85.9577 9.91691 86.5018 10.105 87.2376 10.105Z" fill="#151515"/>
<path d="M83.9229 11.4044V14.2444H85.7154V24.5939H89.6422V14.2444V11.4044H85.7154H83.9229Z" fill="#151515"/>
<path d="M100.124 10.9958H99.9514C98.9208 10.9958 98.0455 11.2215 97.3253 11.6694C96.6052 12.1191 96.0698 12.7928 95.7176 13.6904C95.5886 14.0187 95.4927 14.3863 95.4107 14.7727V11.4027H92.293V24.5922H96.2198V16.9134C96.2198 16.1748 96.4447 15.5781 96.8946 15.1198C97.3445 14.6633 97.9374 14.4342 98.675 14.4342C99.4125 14.4342 99.967 14.6599 100.393 15.1079C100.818 15.5575 101.031 16.1355 101.031 16.8416V24.5922H104.958V17.0588C104.958 15.0207 104.544 13.5006 103.718 12.497C102.891 11.495 101.693 10.9924 100.122 10.9924L100.124 10.9958Z" fill="#151515"/>
<path d="M116.975 11.8986C115.985 11.2642 114.77 10.9479 113.331 10.9479C112.234 10.9479 111.258 11.136 110.398 11.5139C109.538 11.8917 108.823 12.4012 108.25 13.0424C107.676 13.6836 107.238 14.4103 106.937 15.2207C106.633 16.0312 106.483 16.8775 106.483 17.7598V18.2419C106.483 19.0934 106.635 19.9227 106.937 20.7331C107.24 21.5436 107.681 22.2737 108.262 22.9234C108.843 23.5731 109.572 24.0912 110.447 24.4759C111.322 24.8606 112.334 25.0538 113.477 25.0538C114.621 25.0538 115.605 24.8606 116.473 24.4759C117.34 24.0912 118.06 23.5526 118.634 22.8636C119.206 22.1745 119.591 21.388 119.788 20.5057H116.18C116.016 20.9075 115.706 21.2444 115.247 21.5162C114.789 21.7898 114.199 21.9249 113.479 21.9249C112.694 21.9249 112.055 21.7641 111.565 21.4444C111.075 21.123 110.714 20.6699 110.485 20.0851C110.358 19.7603 110.269 19.4012 110.213 19.0148H120.034V17.7153C120.034 16.5116 119.772 15.4002 119.249 14.3812C118.724 13.3622 117.967 12.5363 116.979 11.902L116.975 11.8986ZM110.508 15.8704C110.754 15.284 111.113 14.8394 111.587 14.5351C112.062 14.2307 112.642 14.0769 113.329 14.0769C114.016 14.0769 114.56 14.2256 115.01 14.5214C115.46 14.8189 115.8 15.2481 116.028 15.8089C116.152 16.1115 116.239 16.4501 116.297 16.8194H110.236C110.297 16.4723 110.386 16.1543 110.506 15.8687L110.508 15.8704Z" fill="#151515"/>
<path d="M131.372 17.7837C130.454 17.0622 129.171 16.6125 127.518 16.4364L126.463 16.3406C125.759 16.2603 125.251 16.1235 124.941 15.932C124.63 15.7388 124.474 15.4584 124.474 15.089C124.474 14.7197 124.653 14.4 125.014 14.1743C125.373 13.9503 125.856 13.8375 126.461 13.8375C127.23 13.8375 127.811 13.9862 128.203 14.282C128.596 14.5795 128.826 14.9437 128.89 15.378H132.376C132.327 13.9657 131.771 12.8868 130.707 12.1413C129.644 11.3959 128.243 11.0214 126.51 11.0214C125.431 11.0214 124.468 11.1821 123.626 11.5019C122.784 11.8233 122.125 12.2969 121.65 12.921C121.176 13.5468 120.939 14.3248 120.939 15.2566C120.939 16.3799 121.344 17.3032 122.154 18.0248C122.965 18.7463 124.179 19.1892 125.799 19.3482L126.854 19.4439C127.738 19.5397 128.352 19.7055 128.695 19.9381C129.039 20.1706 129.209 20.4801 129.209 20.8648C129.209 21.2974 128.984 21.6308 128.535 21.8633C128.085 22.0958 127.516 22.2121 126.829 22.2121C125.929 22.2121 125.255 22.048 124.803 21.7197C124.353 21.3914 124.095 21.0169 124.031 20.5998H120.545C120.609 21.995 121.183 23.079 122.262 23.8484C123.342 24.6178 124.84 25.0042 126.754 25.0042C127.964 25.0042 129.021 24.8315 129.921 24.4861C130.821 24.1408 131.516 23.6432 132.008 22.9935C132.5 22.3438 132.744 21.5778 132.744 20.6955C132.744 19.4764 132.285 18.5052 131.37 17.7837H131.372Z" fill="#151515"/>
<path d="M144.038 17.7837C143.12 17.0622 141.837 16.6125 140.184 16.4364L139.129 16.3406C138.425 16.2603 137.917 16.1235 137.607 15.932C137.296 15.7388 137.14 15.4584 137.14 15.089C137.14 14.7197 137.319 14.4 137.68 14.1743C138.039 13.9503 138.522 13.8375 139.127 13.8375C139.896 13.8375 140.477 13.9862 140.869 14.282C141.262 14.5795 141.492 14.9437 141.556 15.378H145.042C144.993 13.9657 144.437 12.8868 143.373 12.1413C142.31 11.3959 140.909 11.0214 139.176 11.0214C138.097 11.0214 137.134 11.1821 136.292 11.5019C135.45 11.8233 134.791 12.2969 134.316 12.921C133.842 13.5468 133.605 14.3248 133.605 15.2566C133.605 16.3799 134.01 17.3032 134.82 18.0248C135.631 18.7463 136.845 19.1892 138.465 19.3482L139.52 19.4439C140.404 19.5397 141.018 19.7055 141.361 19.9381C141.705 20.1706 141.875 20.4801 141.875 20.8648C141.875 21.2974 141.651 21.6308 141.201 21.8633C140.751 22.0958 140.182 22.2121 139.495 22.2121C138.596 22.2121 137.921 22.048 137.469 21.7197C137.019 21.3914 136.761 21.0169 136.697 20.5998H133.211C133.275 21.995 133.849 23.079 134.928 23.8484C136.008 24.6178 137.506 25.0042 139.42 25.0042C140.63 25.0042 141.687 24.8315 142.587 24.4861C143.487 24.1408 144.182 23.6432 144.674 22.9935C145.166 22.3438 145.41 21.5778 145.41 20.6955C145.41 19.4764 144.951 18.5052 144.036 17.7837H144.038Z" fill="#151515"/>
<path d="M189.975 20.8357L178.713 20.8323L186.675 28.7094L182.518 32.7514L174.531 24.9102V36.0017H168.69V24.9341L160.705 32.7411L156.583 28.6649L164.58 20.8374H153.269L153.293 15.1027L162.847 15.1421C163.279 15.5695 171.372 23.5748 171.523 23.7253C173.473 21.8206 178.35 17.0964 180.368 15.1386L190 15.1421L189.975 20.8374V20.8357Z" fill="#151515"/>
<path d="M174.526 11.0488L174.531 0.00686975L168.688 3.05176e-05V11.0659L160.744 3.22986L156.587 7.27184L171.524 22.048L173.637 19.9945L186.68 7.3163L182.559 3.24012L174.526 11.0488Z" fill="#FF500B"/>
</g>
<defs>
<clipPath id="clip0_969_72">
<rect width="190" height="36" fill="white"/>
</clipPath>
</defs>
</svg>
