<svg width="175" height="81" viewBox="0 0 175 81" fill="none" xmlns="http://www.w3.org/2000/svg">
<g clip-path="url(#clip0_1047_1352)">
<path d="M15.464 60.807C14.803 60.0694 14.016 59.4952 13.1011 59.0802C12.1861 58.6674 11.1662 58.46 10.0435 58.46C8.78232 58.46 7.65121 58.7408 6.64602 59.3003C5.64083 59.8598 4.84339 60.6959 4.25371 61.8087C4.05435 62.1859 3.89276 62.6029 3.75216 63.0367V58.9315H0V80.9978H4.72587V73.0661C5.27149 73.8498 5.94092 74.4596 6.74885 74.8766C7.72466 75.3775 8.82009 75.629 10.0435 75.629C11.267 75.629 12.2743 75.4173 13.1892 74.994C14.1042 74.5707 14.8827 73.986 15.5228 73.24C16.1628 72.4919 16.6497 71.6138 16.9854 70.5996C17.3191 69.5874 17.487 68.4998 17.487 67.3389V66.6599C17.487 65.4801 17.3149 64.3946 16.9708 63.4013C16.6266 62.408 16.1229 61.5425 15.464 60.8049V60.807ZM12.2302 69.4365C11.8944 70.1449 11.4265 70.696 10.8263 71.0879C10.2261 71.4818 9.521 71.6788 8.71516 71.6788C8.04574 71.6788 7.39519 71.5216 6.76564 71.2073C6.13608 70.893 5.61774 70.4361 5.21483 69.8347C4.80981 69.2354 4.60836 68.5124 4.60836 67.6658V66.574C4.60836 65.6897 4.80142 64.9374 5.18545 64.3171C5.56948 63.6968 6.07732 63.2211 6.70688 62.8858C7.33643 62.5505 8.00586 62.385 8.71516 62.385C9.54198 62.385 10.2513 62.5757 10.8431 62.9612C11.4327 63.3447 11.8965 63.8812 12.2323 64.5685C12.566 65.258 12.7338 66.0627 12.7338 66.9868C12.7338 67.911 12.566 68.7261 12.2323 69.4345L12.2302 69.4365Z" fill="white"/>
<path d="M24.7105 60.5863C23.9739 61.5209 23.5186 62.7531 23.3381 64.2829V58.935H19.5859V75.1002H24.3118V66.8709C24.3118 65.5528 24.6665 64.5448 25.3758 63.847C26.0851 63.1492 27.0903 62.7992 28.3892 62.7992H29.5707V58.7275H28.9495C27.0986 58.7275 25.6842 59.3478 24.7105 60.5863Z" fill="white"/>
<path d="M45.169 60.8502C44.4009 60.0832 43.4692 59.4776 42.3779 59.0354C41.2846 58.5932 40.0402 58.3711 38.6405 58.3711C37.2408 58.3711 36.0509 58.5932 34.9471 59.0354C33.8432 59.4776 32.9031 60.0832 32.1266 60.8502C31.3481 61.6171 30.7584 62.5077 30.3555 63.5199C29.9505 64.5321 29.749 65.5987 29.749 66.7198V67.3988C29.749 68.5011 29.9463 69.5489 30.3387 70.5401C30.7332 71.5334 31.3082 72.4135 32.0679 73.1805C32.8255 73.9475 33.7572 74.5531 34.8589 74.9952C35.9607 75.4374 37.2219 75.6595 38.6405 75.6595C40.0591 75.6595 41.3476 75.4374 42.4514 74.9952C43.5552 74.5531 44.4848 73.9475 45.2424 73.1805C46 72.4135 46.5771 71.5334 46.9716 70.5401C47.3661 69.5468 47.5613 68.499 47.5613 67.3988V66.7198C47.5613 65.5987 47.3556 64.5321 46.9401 63.5199C46.5267 62.5077 45.9349 61.6171 45.169 60.8502ZM42.3486 69.4336C42.0233 70.1419 41.5553 70.693 40.9446 71.0849C40.334 71.4789 39.5659 71.6759 38.6405 71.6759C37.715 71.6759 36.9952 71.4789 36.3657 71.0849C35.7361 70.6909 35.2618 70.1419 34.9471 69.4336C34.6323 68.7253 34.4749 67.9395 34.4749 67.074C34.4749 66.1498 34.6365 65.3389 34.9618 64.641C35.287 63.9432 35.7634 63.3879 36.395 62.9751C37.0246 62.5622 37.7738 62.3548 38.6405 62.3548C39.5072 62.3548 40.2794 62.5622 40.9006 62.9751C41.5196 63.3879 41.9981 63.9432 42.3339 64.641C42.6696 65.3389 42.8354 66.1498 42.8354 67.074C42.8354 67.9395 42.6738 68.7253 42.3486 69.4336Z" fill="white"/>
<path d="M65.1967 60.7779C64.565 60.0402 63.8033 59.4703 62.9072 59.0658C62.0111 58.6635 61.0123 58.4623 59.9084 58.4623C58.6472 58.4623 57.5245 58.7431 56.5403 59.3026C55.6589 59.8055 54.9559 60.5411 54.4124 61.4841V53.5649H49.6865V75.099H53.4387V71.568C53.5436 71.8425 53.659 72.1065 53.7933 72.3538C54.3641 73.4163 55.1511 74.2272 56.1563 74.7868C57.1615 75.3463 58.3219 75.6271 59.6419 75.6271C60.8045 75.6271 61.8475 75.4154 62.7729 74.9921C63.6984 74.5688 64.4916 73.98 65.1505 73.2214C65.8095 72.4649 66.3131 71.5847 66.6573 70.581C67.0014 69.5772 67.1735 68.4875 67.1735 67.3056V66.656C67.1735 65.4761 67.0014 64.3844 66.6573 63.3827C66.3131 62.3789 65.8242 61.5092 65.1946 60.7716L65.1967 60.7779ZM61.9167 69.4221C61.5809 70.1409 61.113 70.6962 60.5128 71.0881C59.9126 71.4821 59.2075 71.679 58.4017 71.679C57.7323 71.679 57.0817 71.5219 56.4522 71.2075C55.8226 70.8932 55.3043 70.4364 54.9014 69.8349C54.4963 69.2356 54.2949 68.5126 54.2949 67.666V66.5742C54.2949 65.6899 54.4879 64.9376 54.872 64.3173C55.256 63.697 55.7638 63.2213 56.3934 62.886C57.023 62.5507 57.6924 62.3852 58.4017 62.3852C59.2096 62.3852 59.9126 62.5759 60.5128 62.9615C61.113 63.3471 61.5809 63.8814 61.9167 64.5688C62.2504 65.2582 62.4183 66.0629 62.4183 66.9871C62.4183 67.9112 62.2504 68.7033 61.9167 69.42V69.4221Z" fill="white"/>
<path d="M79.2279 68.4322C79.2279 69.3375 78.9613 70.0541 78.4304 70.5864C77.8995 71.1166 77.2091 71.3827 76.3634 71.3827C75.5177 71.3827 74.8755 71.1271 74.3845 70.6158C73.8913 70.1044 73.6458 69.4171 73.6458 68.5516V58.9351H68.9199V68.3148C68.9199 70.7541 69.4215 72.5772 70.4267 73.7863C71.4319 74.9955 72.8693 75.6011 74.7391 75.6011H74.9469C76.1682 75.6011 77.1923 75.335 78.0191 74.8048C78.8459 74.2746 79.4713 73.4615 79.8952 72.3718C80.019 72.0554 80.1176 71.7075 80.2058 71.345V75.1003H83.9579V58.9351H79.2321V68.4343L79.2279 68.4322Z" fill="white"/>
<path d="M98.8422 66.7514C97.7384 65.867 96.1939 65.3159 94.2045 65.1L92.9349 64.9827C92.0871 64.8842 91.4764 64.7166 91.1029 64.4819C90.7293 64.2451 90.5405 63.9014 90.5405 63.4487C90.5405 62.9961 90.7566 62.6042 91.191 62.3276C91.6233 62.0531 92.2046 61.9148 92.9328 61.9148C93.8582 61.9148 94.557 62.0971 95.0292 62.4596C95.5014 62.8243 95.7784 63.2706 95.856 63.8029H100.051C99.9922 62.0719 99.3228 60.7496 98.0427 59.836C96.7626 58.9223 95.0775 58.4634 92.9915 58.4634C91.6926 58.4634 90.5342 58.6604 89.5206 59.0522C88.507 59.4462 87.7138 60.0267 87.143 60.7916C86.5722 61.5585 86.2868 62.512 86.2868 63.6541C86.2868 65.0309 86.7736 66.1625 87.7494 67.0468C88.7252 67.9312 90.1858 68.4739 92.1353 68.6688L93.405 68.7862C94.4689 68.9035 95.2076 69.1068 95.621 69.3918C96.0344 69.6768 96.2401 70.0561 96.2401 70.5276C96.2401 71.0577 95.9693 71.4664 95.4279 71.7514C94.8865 72.0364 94.2024 72.1789 93.3756 72.1789C92.2927 72.1789 91.4806 71.9777 90.9371 71.5754C90.3957 71.173 90.0851 70.7141 90.0074 70.2028H85.8125C85.8901 71.9127 86.5806 73.2413 87.8795 74.1843C89.1785 75.1273 90.9812 75.6009 93.2853 75.6009C94.7417 75.6009 96.0134 75.3893 97.0963 74.966C98.1791 74.5427 99.0164 73.9329 99.6082 73.1366C100.2 72.3402 100.494 71.4014 100.494 70.3201C100.494 68.826 99.9418 67.6357 98.8401 66.7514H98.8422Z" fill="white"/>
<path d="M104.989 57.3407C105.874 57.3407 106.529 57.1102 106.953 56.6471C107.377 56.1861 107.589 55.5993 107.589 54.8931C107.589 54.1869 107.377 53.5708 106.953 53.1077C106.529 52.6467 105.874 52.4141 104.989 52.4141C104.103 52.4141 103.446 52.6446 103.025 53.1077C102.601 53.5708 102.389 54.166 102.389 54.8931C102.389 55.6203 102.601 56.1861 103.025 56.6471C103.448 57.1102 104.103 57.3407 104.989 57.3407Z" fill="white"/>
<path d="M101 58.9331V62.4138H103.157V75.0983H107.883V62.4138V58.9331H103.157H101Z" fill="white"/>
<path d="M120.497 58.4324H120.289C119.049 58.4324 117.995 58.709 117.129 59.2581C116.262 59.8092 115.618 60.6349 115.194 61.735C115.038 62.1374 114.923 62.5879 114.824 63.0615V58.9312H111.072V75.0964H115.798V65.6852C115.798 64.7799 116.069 64.0485 116.61 63.4869C117.152 62.9274 117.865 62.6466 118.753 62.6466C119.641 62.6466 120.308 62.9232 120.82 63.4723C121.332 64.0234 121.588 64.7317 121.588 65.5972V75.0964H126.314V65.8633C126.314 63.3654 125.816 61.5024 124.822 60.2723C123.827 59.0443 122.385 58.4282 120.495 58.4282L120.497 58.4324Z" fill="white"/>
<path d="M140.777 59.5377C139.585 58.7602 138.123 58.3726 136.391 58.3726C135.071 58.3726 133.896 58.6031 132.862 59.0662C131.827 59.5293 130.967 60.1538 130.276 60.9396C129.586 61.7255 129.059 62.6161 128.696 63.6094C128.331 64.6027 128.15 65.64 128.15 66.7213V67.3123C128.15 68.3558 128.333 69.3722 128.696 70.3655C129.061 71.3588 129.592 72.2536 130.291 73.0499C130.99 73.8462 131.867 74.4812 132.92 74.9527C133.974 75.4242 135.191 75.661 136.568 75.661C137.944 75.661 139.128 75.4242 140.173 74.9527C141.216 74.4812 142.082 73.8211 142.773 72.9766C143.461 72.1321 143.925 71.1681 144.162 70.0868H139.82C139.623 70.5792 139.249 70.9921 138.698 71.3253C138.146 71.6606 137.436 71.8261 136.57 71.8261C135.625 71.8261 134.855 71.6291 134.265 71.2373C133.676 70.8433 133.241 70.288 132.967 69.5713C132.813 69.1731 132.706 68.733 132.639 68.2594H144.458V66.6668C144.458 65.1915 144.143 63.8294 143.514 62.5805C142.882 61.3315 141.971 60.3193 140.781 59.5419L140.777 59.5377ZM132.994 64.4057C133.29 63.6869 133.722 63.1421 134.293 62.7691C134.864 62.3961 135.562 62.2074 136.389 62.2074C137.216 62.2074 137.871 62.3898 138.412 62.7523C138.954 63.1169 139.363 63.6429 139.638 64.3303C139.787 64.7012 139.892 65.1161 139.961 65.5687H132.666C132.74 65.1433 132.847 64.7536 132.992 64.4036L132.994 64.4057Z" fill="white"/>
<path d="M158.103 66.7514C156.999 65.867 155.455 65.3159 153.465 65.1L152.196 64.9827C151.348 64.8842 150.737 64.7166 150.364 64.4819C149.99 64.2451 149.801 63.9014 149.801 63.4487C149.801 62.9961 150.017 62.6042 150.452 62.3276C150.884 62.0531 151.465 61.9148 152.194 61.9148C153.119 61.9148 153.818 62.0971 154.29 62.4596C154.762 62.8243 155.039 63.2706 155.117 63.8029H159.312C159.253 62.0719 158.584 60.7496 157.303 59.836C156.023 58.9223 154.338 58.4634 152.252 58.4634C150.953 58.4634 149.795 58.6604 148.781 59.0522C147.768 59.4462 146.975 60.0267 146.404 60.7916C145.833 61.5585 145.548 62.512 145.548 63.6541C145.548 65.0309 146.034 66.1625 147.01 67.0468C147.986 67.9312 149.447 68.4739 151.396 68.6688L152.666 68.7862C153.73 68.9035 154.468 69.1068 154.882 69.3918C155.295 69.6768 155.501 70.0561 155.501 70.5276C155.501 71.0577 155.23 71.4664 154.689 71.7514C154.147 72.0364 153.463 72.1789 152.636 72.1789C151.553 72.1789 150.741 71.9777 150.198 71.5754C149.656 71.173 149.346 70.7141 149.268 70.2028H145.073C145.151 71.9127 145.841 73.2413 147.14 74.1843C148.439 75.1273 150.242 75.6009 152.546 75.6009C154.002 75.6009 155.274 75.3893 156.357 74.966C157.44 74.5427 158.277 73.9329 158.869 73.1366C159.461 72.3402 159.755 71.4014 159.755 70.3201C159.755 68.826 159.203 67.6357 158.101 66.7514H158.103Z" fill="white"/>
<path d="M173.346 66.7514C172.242 65.867 170.698 65.3159 168.708 65.1L167.439 64.9827C166.591 64.8842 165.98 64.7166 165.607 64.4819C165.233 64.2451 165.044 63.9014 165.044 63.4487C165.044 62.9961 165.261 62.6042 165.695 62.3276C166.127 62.0531 166.709 61.9148 167.437 61.9148C168.362 61.9148 169.061 62.0971 169.533 62.4596C170.005 62.8243 170.282 63.2706 170.36 63.8029H174.555C174.496 62.0719 173.827 60.7496 172.547 59.836C171.266 58.9223 169.581 58.4634 167.495 58.4634C166.196 58.4634 165.038 58.6604 164.024 59.0522C163.011 59.4462 162.218 60.0267 161.647 60.7916C161.076 61.5585 160.791 62.512 160.791 63.6541C160.791 65.0309 161.278 66.1625 162.253 67.0468C163.229 67.9312 164.69 68.4739 166.639 68.6688L167.909 68.7862C168.973 68.9035 169.711 69.1068 170.125 69.3918C170.538 69.6768 170.744 70.0561 170.744 70.5276C170.744 71.0577 170.473 71.4664 169.932 71.7514C169.39 72.0364 168.706 72.1789 167.879 72.1789C166.797 72.1789 165.985 71.9777 165.441 71.5754C164.9 71.173 164.589 70.7141 164.511 70.2028H160.316C160.394 71.9127 161.084 73.2413 162.383 74.1843C163.682 75.1273 165.485 75.6009 167.789 75.6009C169.246 75.6009 170.517 75.3893 171.6 74.966C172.683 74.5427 173.52 73.9329 174.112 73.1366C174.704 72.3402 174.998 71.4014 174.998 70.3201C174.998 68.826 174.446 67.6357 173.344 66.7514H173.346Z" fill="white"/>
<path d="M44.176 25.5357L30.6216 25.5315L40.2035 35.1858L35.2006 40.1397L25.5894 30.5295V44.1234H18.5593V30.5588L8.9502 40.1272L3.98929 35.1313L13.6131 25.5378H0L0.0293793 18.5093L11.5272 18.5575C12.0476 19.0814 21.7869 28.8928 21.9694 29.0772C24.3156 26.7428 30.1852 20.9527 32.6131 18.5533L44.2054 18.5575L44.176 25.5378V25.5357Z" fill="white"/>
<path d="M25.5808 13.5416L25.5892 0.00838227L18.555 0V13.5625L8.99409 3.95853L3.99121 8.91245L21.9693 27.0224L24.5106 24.5056L40.2096 8.96694L35.2487 3.9711L25.5808 13.5416Z" fill="#FF6A29"/>
</g>
<defs>
<clipPath id="clip0_1047_1352">
<rect width="175" height="81" fill="white"/>
</clipPath>
</defs>
</svg>
