<svg width="49" height="48" viewBox="0 0 49 48" fill="none" xmlns="http://www.w3.org/2000/svg">
<path d="M48.6989 27.6428L33.7568 27.6382L44.3197 38.0887L38.8046 43.4512L28.2093 33.0483V47.7634H20.4595V33.0801L9.86656 43.4376L4.39773 38.0297L15.0069 27.645H0L0.0323907 20.0368L12.7074 20.089C13.2811 20.6561 24.0175 31.2767 24.2187 31.4763C26.8051 28.9493 33.2756 22.6818 35.9522 20.0845L48.7313 20.089L48.6989 27.645V27.6428Z" fill="#151515"/>
<path d="M28.2024 14.6584L28.2093 0.00907359L20.4572 0V14.6811L9.91743 4.285L4.40234 9.64749L24.2187 29.251L27.0225 26.5266L44.3266 9.70647L38.8601 4.29861L28.2024 14.6584Z" fill="#FF6A29"/>
</svg>
